<svg xmlns="http://www.w3.org/2000/svg" xmlns:xlink="http://www.w3.org/1999/xlink" width="293" height="200" viewBox="0 0 293 200"><defs><style>.a{fill:none;}.b{fill:url(#a);}.c{fill:url(#c);}.d{fill:url(#d);}.e{clip-path:url(#e);}.f{fill:#fff;}</style><linearGradient id="a" y1="0.5" x2="1" y2="0.5" gradientUnits="objectBoundingBox"><stop offset="0" stop-color="#f9634f"/><stop offset="0.731" stop-color="#d10000"/></linearGradient><radialGradient id="c" cx="0.425" cy="0.392" r="0.926" gradientTransform="translate(0.114) scale(0.772 1)" xlink:href="#a"/><linearGradient id="d" x1="0.5" y1="-0.303" x2="0.5" y2="1.348" gradientUnits="objectBoundingBox"><stop offset="0" stop-color="#f5f5f5"/><stop offset="0.967" stop-color="#e01510"/></linearGradient><clipPath id="e"><path class="a" d="M342.423,430.533c-12.482-4.4-22.569-4.341-43.842,9.676-21.278-14.017-31.2-14.308-43.842-9.676s-26.567,19.7-25.144,39.822c1.471,20.908,24.5,49.321,68.986,64.232,44.487-14.911,67.513-43.324,68.989-64.232C368.985,450.229,354.908,434.931,342.423,430.533Z" transform="translate(-229.494 -427.855)"/></clipPath></defs><g transform="translate(-780 -357.551)"><rect class="a" width="293" height="200" transform="translate(780 357.551)"/><g transform="translate(583.842 -23.669)"><path class="b" d="M247.555,503.872c-1.62-.144-2.11-1.312-2.572-2.336h0a22.536,22.536,0,0,1-1.1-4.336h0a131.754,131.754,0,0,1-1.353-13.763h0c-.105-1.8-.2-3.684-.275-5.587h0c-.2,2.793-.4,5.443-.59,7.818h0c-.521,5.846-.852,9.692-1.461,11.206h0a1.5,1.5,0,0,1-1.4.973h0c-1.9-.349-1.9-1.486-2.436-2.447h0a28.372,28.372,0,0,1-1.06-3.656h0c-.367-1.576-.66-3.13-.829-4.108h0l-5.4-.642a1.387,1.387,0,0,1-1.091-.806h0s-1.127-2.483-1.964-4.079h0a9.006,9.006,0,0,0-.888,2.308h0a5.319,5.319,0,0,1-1.065,2.506h0a3.048,3.048,0,0,1-2.365.783h0c-.383,0-.8-.013-1.294-.013h-19v.005a1.375,1.375,0,0,1-1.373-1.373h0a1.371,1.371,0,0,1,1.373-1.368h19c.537,0,.968.005,1.294.005h0c.19,0,.329-.005.419-.013h0c.013-.033.031-.074.049-.121h0a9.209,9.209,0,0,0,.293-1.045h0a10.175,10.175,0,0,1,2.56-4.883h0a1.428,1.428,0,0,1,1.06-.47h0c1.194.19,1.1.583,1.381.775h0a7.179,7.179,0,0,1,.529.806h0c.357.609.744,1.348,1.107,2.1h0c.418.85.814,1.689,1.071,2.254h0l5.646.67a1.381,1.381,0,0,1,1.2,1.145h0c0,.01.293,1.913.76,4.051h0c.136.678.308,1.394.49,2.069h0c.169-1.43.347-3.212.526-5.245h0c.483-5.558.991-13,1.445-20.431h0c.9-14.867,1.62-29.717,1.62-29.742h0a1.374,1.374,0,0,1,1.412-1.312h0a1.369,1.369,0,0,1,1.327,1.391h0v.046h0l0,.021h0c-.008.6-.085,5.715-.085,12.867h0c-.005,13.409.277,34.012,1.771,44.846h0A21.1,21.1,0,0,0,247.8,501.1h0c.3-.054.439-.193.763-.7h0a10.037,10.037,0,0,0,.883-3.011h0c.488-2.609.67-5.908,1.846-8.462h0a5.02,5.02,0,0,1,4.642-3.2h0c3.294.018,5.512-.383,6.67-1.143h0c1.114-.732,1.651-1.694,1.689-4.033h0c.013-2.575-.033-5.463.86-7.954h0a6.608,6.608,0,0,1,6.732-4.537h0a1.387,1.387,0,0,1,.973.4h0a1.373,1.373,0,0,1,.4.97h0v21.026c1.9-2.626,4.9-5.381,9.214-5.509h13.109a1.371,1.371,0,0,1,1.374,1.368h0a1.372,1.372,0,0,1-1.374,1.368H282.468c-2.819-.015-5.15,1.954-6.816,4.167h0a20.07,20.07,0,0,0-2.49,4.382h0a1.371,1.371,0,0,1-1.528.86h0a1.364,1.364,0,0,1-1.119-1.34h0V470.956a3.532,3.532,0,0,0-2.783,2.578h0c-.668,1.784-.706,4.452-.7,7.022h0c.044,2.783-.917,5.1-2.976,6.359h0c-2.018,1.24-4.662,1.551-8.128,1.561h0c-1.5-.021-2.19,1.135-2.857,3.8h0c-.59,2.552-.729,5.789-1.589,8.277h0a4.273,4.273,0,0,1-3.889,3.32h-.041Z" transform="translate(0 12.089)"/><path class="b" d="M320.9,503.872c-1.623-.144-2.108-1.312-2.57-2.336h0a22.709,22.709,0,0,1-1.1-4.336h0a130.409,130.409,0,0,1-1.35-13.763h0c-.108-1.8-.2-3.684-.272-5.587h0c-.2,2.793-.4,5.443-.593,7.818h0c-.521,5.846-.857,9.692-1.458,11.206h0a1.505,1.505,0,0,1-1.4.973h0c-1.9-.349-1.9-1.486-2.436-2.447h0a27.981,27.981,0,0,1-1.058-3.656h0c-.372-1.576-.662-3.13-.829-4.108h0l-5.394-.642a1.368,1.368,0,0,1-1.089-.806h0c-.01,0-1.14-2.485-1.972-4.082h0a8.813,8.813,0,0,0-.888,2.311h0a5.272,5.272,0,0,1-1.068,2.506h0a3.037,3.037,0,0,1-2.364.783h0c-.38,0-.788-.013-1.289-.013H274.772v.005a1.372,1.372,0,0,1-1.374-1.373h0a1.367,1.367,0,0,1,1.374-1.368h18.993c.537,0,.968.005,1.289.005h0c.2,0,.336-.005.424-.013h0a1.182,1.182,0,0,0,.049-.121h0a10.639,10.639,0,0,0,.29-1.045h0a10.171,10.171,0,0,1,2.562-4.883h0a1.422,1.422,0,0,1,1.058-.47h0c1.194.19,1.109.583,1.379.775h0a7.207,7.207,0,0,1,.537.806h0c.349.609.737,1.348,1.109,2.1h0c.413.85.809,1.687,1.065,2.254h0l5.646.67a1.386,1.386,0,0,1,1.194,1.145h0c0,.01.3,1.913.757,4.051h0c.141.678.316,1.4.5,2.074h0c.169-1.435.341-3.214.521-5.25h0c.493-5.558.994-13,1.445-20.431h0c.906-14.867,1.62-29.717,1.62-29.742h0a1.377,1.377,0,0,1,1.415-1.312h0a1.367,1.367,0,0,1,1.325,1.391h0l0,.046h0l0,.021h0c-.005.6-.082,5.715-.082,12.867h0c-.005,13.409.277,34.012,1.769,44.846h0a20.965,20.965,0,0,0,1.522,6.359h0c.288-.054.437-.193.76-.7h0a10.092,10.092,0,0,0,.888-3.011h0c.48-2.609.662-5.908,1.841-8.462h0a5.015,5.015,0,0,1,4.642-3.2h0c3.294.018,5.509-.383,6.672-1.143h0c1.107-.732,1.646-1.694,1.689-4.033h0c.013-2.575-.033-5.463.855-7.954h0a6.608,6.608,0,0,1,6.732-4.537h0a1.374,1.374,0,0,1,.973.4h0a1.373,1.373,0,0,1,.4.97h0v21.026c1.9-2.626,4.9-5.381,9.219-5.509h13.1a1.375,1.375,0,0,1,1.379,1.368h0a1.377,1.377,0,0,1-1.379,1.368h-13.1c-2.824-.015-5.153,1.954-6.819,4.167h0a20.155,20.155,0,0,0-2.493,4.382h0a1.366,1.366,0,0,1-1.528.86h0a1.361,1.361,0,0,1-1.117-1.34h0V470.956a3.542,3.542,0,0,0-2.788,2.578h0c-.657,1.784-.7,4.452-.691,7.022h0c.046,2.783-.911,5.1-2.973,6.359h0c-2.023,1.24-4.662,1.551-8.131,1.561h0c-1.5-.021-2.19,1.132-2.852,3.8h0c-.593,2.552-.734,5.789-1.592,8.277h0a4.279,4.279,0,0,1-3.892,3.32H320.9Z" transform="translate(114.969 12.089)"/><g transform="translate(275.651 427.855)"><path class="c" d="M342.423,430.533c-12.482-4.4-22.569-4.341-43.842,9.676-21.278-14.017-31.2-14.308-43.842-9.676s-26.567,19.7-25.144,39.822c1.471,20.908,24.5,49.321,68.986,64.232,44.487-14.911,67.513-43.324,68.989-64.232C368.985,450.229,354.908,434.931,342.423,430.533Z" transform="translate(-229.494 -427.855)"/><g transform="translate(10.674 4.597)"><path class="d" d="M329.563,431.087c-9.032-2.737-19.337-1.954-37.411,11.278-18.071-13.232-27.9-14.4-37.07-11.278s-22.559,9.253-21.355,28.228c1.253,19.709,26.192,30.412,58.6,30.412s57.344-10.7,58.594-30.412C352.127,440.34,338.595,433.821,329.563,431.087Z" transform="translate(-233.651 -429.645)"/></g></g><g transform="translate(275.651 427.855)"><g class="e"><g transform="translate(-75.607 19.801)"><path class="f" d="M247.555,503.872c-1.62-.144-2.11-1.312-2.572-2.336h0a22.536,22.536,0,0,1-1.1-4.336h0a131.754,131.754,0,0,1-1.353-13.763h0c-.105-1.8-.2-3.684-.275-5.587h0c-.2,2.793-.4,5.443-.59,7.818h0c-.521,5.846-.852,9.692-1.461,11.206h0a1.5,1.5,0,0,1-1.4.973h0c-1.9-.349-1.9-1.486-2.436-2.447h0a28.372,28.372,0,0,1-1.06-3.656h0c-.367-1.576-.66-3.13-.829-4.108h0l-5.4-.642a1.387,1.387,0,0,1-1.091-.806h0s-1.127-2.483-1.964-4.079h0a9.006,9.006,0,0,0-.888,2.308h0a5.319,5.319,0,0,1-1.065,2.506h0a3.048,3.048,0,0,1-2.365.783h0c-.383,0-.8-.013-1.294-.013h-19v.005a1.375,1.375,0,0,1-1.373-1.373h0a1.371,1.371,0,0,1,1.373-1.368h19c.537,0,.968.005,1.294.005h0c.19,0,.329-.005.419-.013h0c.013-.033.031-.074.049-.121h0a9.209,9.209,0,0,0,.293-1.045h0a10.175,10.175,0,0,1,2.56-4.883h0a1.428,1.428,0,0,1,1.06-.47h0c1.194.19,1.1.583,1.381.775h0a7.179,7.179,0,0,1,.529.806h0c.357.609.744,1.348,1.107,2.1h0c.418.85.814,1.689,1.071,2.254h0l5.646.67a1.381,1.381,0,0,1,1.2,1.145h0c0,.01.293,1.913.76,4.051h0c.136.678.308,1.394.49,2.069h0c.169-1.43.347-3.212.526-5.245h0c.483-5.558.991-13,1.445-20.431h0c.9-14.867,1.62-29.717,1.62-29.742h0a1.374,1.374,0,0,1,1.412-1.312h0a1.369,1.369,0,0,1,1.327,1.391h0v.046h0l0,.021h0c-.008.6-.085,5.715-.085,12.867h0c-.005,13.409.277,34.012,1.771,44.846h0A21.1,21.1,0,0,0,247.8,501.1h0c.3-.054.439-.193.763-.7h0a10.037,10.037,0,0,0,.883-3.011h0c.488-2.609.67-5.908,1.846-8.462h0a5.02,5.02,0,0,1,4.642-3.2h0c3.294.018,5.512-.383,6.67-1.143h0c1.114-.732,1.651-1.694,1.689-4.033h0c.013-2.575-.033-5.463.86-7.954h0a6.608,6.608,0,0,1,6.732-4.537h0a1.387,1.387,0,0,1,.973.4h0a1.373,1.373,0,0,1,.4.97h0v21.026c1.9-2.626,4.9-5.381,9.214-5.509h13.109a1.371,1.371,0,0,1,1.374,1.368h0a1.372,1.372,0,0,1-1.374,1.368H282.468c-2.819-.015-5.15,1.954-6.816,4.167h0a20.07,20.07,0,0,0-2.49,4.382h0a1.371,1.371,0,0,1-1.528.86h0a1.364,1.364,0,0,1-1.119-1.34h0V470.956a3.532,3.532,0,0,0-2.783,2.578h0c-.668,1.784-.706,4.452-.7,7.022h0c.044,2.783-.917,5.1-2.976,6.359h0c-2.018,1.24-4.662,1.551-8.128,1.561h0c-1.5-.021-2.19,1.135-2.857,3.8h0c-.59,2.552-.729,5.789-1.589,8.277h0a4.273,4.273,0,0,1-3.889,3.32h-.041Z" transform="translate(-200.044 -435.568)"/><path class="f" d="M284.227,503.872c-1.615-.144-2.11-1.312-2.567-2.336h0a22.169,22.169,0,0,1-1.107-4.328h0a133.766,133.766,0,0,1-1.35-13.758h0c-.105-1.82-.2-3.715-.275-5.643h0c-.2,2.814-.4,5.476-.593,7.861h0c-.521,5.846-.85,9.692-1.461,11.206h0a1.486,1.486,0,0,1-1.394.973h0c-1.9-.349-1.9-1.486-2.434-2.447h0a29.213,29.213,0,0,1-1.068-3.656h0c-.367-1.576-.66-3.13-.829-4.108h0l-5.389-.642a1.376,1.376,0,0,1-1.094-.806h0c-.005,0-1.132-2.483-1.967-4.079h0a8.657,8.657,0,0,0-.891,2.308h0a5.268,5.268,0,0,1-1.065,2.506h0a3.034,3.034,0,0,1-2.365.783h0c-.375,0-.791-.013-1.294-.013H238.092v.005a1.371,1.371,0,0,1-1.371-1.373h0a1.367,1.367,0,0,1,1.371-1.368h18.993c.537,0,.971.005,1.294.005h0c.187,0,.334-.005.424-.013h0l.049-.121h0c.077-.208.174-.565.3-1.045h0a10.152,10.152,0,0,1,2.56-4.883h0a1.411,1.411,0,0,1,1.058-.47h0c1.2.19,1.1.583,1.379.775h0a7.55,7.55,0,0,1,.531.806h0c.357.609.737,1.348,1.107,2.1h0c.419.85.809,1.687,1.068,2.254h0l5.643.67a1.373,1.373,0,0,1,1.2,1.145h0c.005.01.3,1.913.765,4.051h0c.139.678.308,1.4.49,2.074h0c.169-1.435.347-3.214.524-5.25h0c.483-5.558.988-13,1.443-20.431h0c.86-14.054,1.54-28.084,1.617-29.606h0v-.1h.005l0-.038h0a1.377,1.377,0,0,1,1.415-1.312h0a1.371,1.371,0,0,1,1.325,1.391h0v.046h0v.021h0c-.01.609-.1,5.728-.1,12.888h0c0,13.417.285,34,1.771,44.825h0a21.521,21.521,0,0,0,1.52,6.359h0c.3-.054.442-.193.765-.7h0a10.172,10.172,0,0,0,.888-3.011h0c.483-2.609.667-5.908,1.843-8.462h0a5.01,5.01,0,0,1,4.644-3.2h0c3.284.018,5.509-.383,6.662-1.143h0c1.119-.732,1.648-1.694,1.692-4.033h0c.01-2.575-.031-5.463.863-7.954h0a6.594,6.594,0,0,1,6.729-4.537h0a1.362,1.362,0,0,1,.968.4h0a1.364,1.364,0,0,1,.4.97h0v21.039c1.9-2.637,4.9-5.394,9.217-5.522h13.114a1.37,1.37,0,0,1,1.371,1.368h0a1.372,1.372,0,0,1-1.371,1.368H319.142c-2.819-.015-5.153,1.954-6.814,4.167h0a20.071,20.071,0,0,0-2.49,4.382h0a1.371,1.371,0,0,1-1.528.86h0a1.368,1.368,0,0,1-1.124-1.34h0V470.956a3.561,3.561,0,0,0-2.786,2.578h0c-.665,1.784-.7,4.452-.693,7.022h0c.041,2.783-.911,5.1-2.973,6.359h0c-2.02,1.24-4.66,1.551-8.123,1.561h0c-1.507-.021-2.2,1.135-2.86,3.8h0c-.59,2.552-.727,5.789-1.594,8.277h0a4.266,4.266,0,0,1-3.89,3.32h-.041Z" transform="translate(-142.559 -435.568)"/><path class="f" d="M320.9,503.872c-1.623-.144-2.108-1.312-2.57-2.336h0a22.709,22.709,0,0,1-1.1-4.336h0a130.409,130.409,0,0,1-1.35-13.763h0c-.108-1.8-.2-3.684-.272-5.587h0c-.2,2.793-.4,5.443-.593,7.818h0c-.521,5.846-.857,9.692-1.458,11.206h0a1.505,1.505,0,0,1-1.4.973h0c-1.9-.349-1.9-1.486-2.436-2.447h0a27.981,27.981,0,0,1-1.058-3.656h0c-.372-1.576-.662-3.13-.829-4.108h0l-5.394-.642a1.368,1.368,0,0,1-1.089-.806h0c-.01,0-1.14-2.485-1.972-4.082h0a8.813,8.813,0,0,0-.888,2.311h0a5.272,5.272,0,0,1-1.068,2.506h0a3.037,3.037,0,0,1-2.364.783h0c-.38,0-.788-.013-1.289-.013H274.772v.005a1.372,1.372,0,0,1-1.374-1.373h0a1.367,1.367,0,0,1,1.374-1.368h18.993c.537,0,.968.005,1.289.005h0c.2,0,.336-.005.424-.013h0a1.182,1.182,0,0,0,.049-.121h0a10.639,10.639,0,0,0,.29-1.045h0a10.171,10.171,0,0,1,2.562-4.883h0a1.422,1.422,0,0,1,1.058-.47h0c1.194.19,1.109.583,1.379.775h0a7.207,7.207,0,0,1,.537.806h0c.349.609.737,1.348,1.109,2.1h0c.413.85.809,1.687,1.065,2.254h0l5.646.67a1.386,1.386,0,0,1,1.194,1.145h0c0,.01.3,1.913.757,4.051h0c.141.678.316,1.4.5,2.074h0c.169-1.435.341-3.214.521-5.25h0c.493-5.558.994-13,1.445-20.431h0c.906-14.867,1.62-29.717,1.62-29.742h0a1.377,1.377,0,0,1,1.415-1.312h0a1.367,1.367,0,0,1,1.325,1.391h0l0,.046h0l0,.021h0c-.005.6-.082,5.715-.082,12.867h0c-.005,13.409.277,34.012,1.769,44.846h0a20.965,20.965,0,0,0,1.522,6.359h0c.288-.054.437-.193.76-.7h0a10.092,10.092,0,0,0,.888-3.011h0c.48-2.609.662-5.908,1.841-8.462h0a5.015,5.015,0,0,1,4.642-3.2h0c3.294.018,5.509-.383,6.672-1.143h0c1.107-.732,1.646-1.694,1.689-4.033h0c.013-2.575-.033-5.463.855-7.954h0a6.608,6.608,0,0,1,6.732-4.537h0a1.374,1.374,0,0,1,.973.4h0a1.373,1.373,0,0,1,.4.97h0v21.026c1.9-2.626,4.9-5.381,9.219-5.509h13.1a1.375,1.375,0,0,1,1.379,1.368h0a1.377,1.377,0,0,1-1.379,1.368h-13.1c-2.824-.015-5.153,1.954-6.819,4.167h0a20.155,20.155,0,0,0-2.493,4.382h0a1.366,1.366,0,0,1-1.528.86h0a1.361,1.361,0,0,1-1.117-1.34h0V470.956a3.542,3.542,0,0,0-2.788,2.578h0c-.657,1.784-.7,4.452-.691,7.022h0c.046,2.783-.911,5.1-2.973,6.359h0c-2.023,1.24-4.662,1.551-8.131,1.561h0c-1.5-.021-2.19,1.132-2.852,3.8h0c-.593,2.552-.734,5.789-1.592,8.277h0a4.279,4.279,0,0,1-3.892,3.32H320.9Z" transform="translate(-85.075 -435.568)"/></g></g></g></g></g></svg>