<svg xmlns="http://www.w3.org/2000/svg" width="293" height="200" viewBox="0 0 293 200"><defs><style>.a{fill:none;}.b{fill:#efaea6;}.c,.e,.h,.i{fill:#1f1f39;}.d{fill:#3b3b4c;}.e{opacity:0.46;}.f{fill:#fff;}.g{fill:#056493;}.h{opacity:0.17;}.i{opacity:0.14;}.j{fill:#f2c7c4;}.k{fill:#0267a4;}</style></defs><g transform="translate(-780 -357.551)"><rect class="a" width="293" height="200" transform="translate(780 357.551)"/><g transform="translate(667.178 263.509)"><path class="b" d="M1233.83,1561.9c.491-3.344,2.772-11.563,2.772-11.563l8.745,1.828-3.538,12.312-6.706,2.536Z" transform="translate(-1044.769 -1281.937)"/><path class="c" d="M1157.937,1602.324c-.873-.406-.668.547-1.289,1.862-1.421,3.011-12.97.753-14.767.685-.928-.035-3.323,4.33,1.147,5.219,3.866.77,16.239,3.28,20.475,4.1a1.983,1.983,0,0,0,2.168-1.087c1.384-2.907,2.141-7.7.983-8.041C1164.986,1604.126,1161.573,1604.015,1157.937,1602.324Z" transform="translate(-969.216 -1323.903)"/><g transform="translate(333.518 215.918)"><path class="b" d="M2000.78,1286.343c-3.378-.114-11.8-1.461-11.8-1.461l.838-8.9,12.631,2.14,3.27,6.38Z" transform="translate(-1988.98 -1275.986)"/><path class="c" d="M2042.61,1291.48c-.306.912.618.6,1.995,1.073,3.152,1.076,2.2,12.805,2.332,14.6.069.926,4.674,2.818,5.058-1.724.333-3.928,1.445-16.5,1.781-20.8a1.982,1.982,0,0,0-1.323-2.032c-3.043-1.05-7.891-1.267-8.1-.078C2043.612,1284.273,2043.884,1287.677,2042.61,1291.48Z" transform="translate(-2032.303 -1280.613)"/></g><path class="d" d="M1278.8,926.961c-6.292,24.659-21.9,58.982-24.333,66.046s-16.619,47.327-16.771,49.813c8.21,3.522,11.765,3.934,11.765,3.934,2.193-5.853,11.407-37.138,17.657-46.588s31.075-49.809,31.075-49.809c13.01,7.643,27.936,26.007,40.589,34.507,17.553,10.248,44.965,11.51,44.965,11.51,3.582-6.189,4-10.7,3.044-11.773-8.048-2.588-36.578-5.206-42.062-11.144s-21.417-44.281-37.8-56.32c-1.645-1.208-10.9,5.79-16.765,8.073A30.325,30.325,0,0,1,1278.8,926.961Z" transform="translate(-1047.898 -769.753)"/><path class="e" d="M1531.724,1078.078s0,.007,0,.018a.933.933,0,0,1-.092-.064A.751.751,0,0,1,1531.724,1078.078Z" transform="translate(-1285.6 -899.982)"/><path class="e" d="M1510.965,1078.359a.007.007,0,0,1,0,0l-10.167,16.474c5.334-13.4,6.579-19.184,6.657-19.558C1507.724,1075.451,1508.345,1076.142,1510.965,1078.359Z" transform="translate(-1260.666 -897.756)"/><path class="e" d="M1572.318,945.621c-4.2.1-9.517.222-11.318.28-3.138.1-7.517-2.638-10.247-7.139l13.357-2.968A75.864,75.864,0,0,1,1572.318,945.621Z" transform="translate(-1301.067 -784.954)"/><path class="f" d="M1261.505,748.451c-2.623,1.829.053,6.7-1.372,8.768-.865,1.253-2.122-.85-3.14-.757-.627.057-1.075-.04-.918,1.162,2.694,20.592,36.772,34.957,36.772,34.957s14.968-4.777,21.354-5.35c9.345-.838,9.382-5.028,7.464-6.212s-49.964-32.482-49.964-32.482A30.441,30.441,0,0,0,1261.505,748.451Z" transform="translate(-1062.734 -633.159)"/><path class="g" d="M1130.65,742.885c-7.406,7.891-15.023,14.81-18.958,17.07.618-1.959,8.949-17.683,12.748-25.109-1.7-2.248-3.441-2.648-5.448-4.189-4.868,4.531-23.22,35.864-16.566,39.1,6.861,3.335,28.608-9.06,30.95-8.274,3.465,1.162,18.01,11.744,20.959,14.746s7.794,9.167,19.063,7.737c4.611-.585,7.933-4.128,7.737-6.728-.336-4.457-12.783-4.261-22.156-10.32-8.923-5.768-15.387-7.734-21.464-14.118A39.407,39.407,0,0,1,1130.65,742.885Z" transform="translate(-937.341 -619.058)"/><path class="h" d="M1217.253,865.211a21.159,21.159,0,0,1-6.88,5.267c-4.654-3.351-11.913-2.668-13.734-3.281-.246-.083-5.914-2.778-6.372-2.581,6.134-4.3,20.016-1.63,24.386-1.066C1215.2,863.855,1216.684,864.9,1217.253,865.211Z" transform="translate(-1009.54 -725.45)"/><g transform="translate(176.455 97.765)"><path class="b" d="M1247.777,736.872l2.792-5.877c-1.393-2.905-5.509-7.633-8.282-9.1-3.043-1.609-3.084-1.259-3.084-1.259l-.72,6.027-.339,2.836a9.035,9.035,0,0,1,2.735,2.481c1.028,1.307,1.286.472,2.161,3.226C1243.7,737.269,1247.777,736.872,1247.777,736.872Z" transform="translate(-1224.714 -708.694)"/><path class="i" d="M1238.145,750.836a12.51,12.51,0,0,1,2.955,2.767c4.54-2.373,3.418-6.732,1.652-6.613a33.994,33.994,0,0,0-4.268,1.01Z" transform="translate(-1224.714 -730.03)"/><path class="b" d="M1190.267,695.119c.622,2.823-.727,9.011,1.13,8.429s1.308,5.966,3.306,5.418c4.842-1.328,9.418-6.068,9.324-8.574s-2.427-8.866-2.427-8.866Z" transform="translate(-1185.995 -685.177)"/><path class="c" d="M1177.963,669.4c-1.456.645-1.393,1.017-2.61.833s.163-2.212-1.913-1.926-4.282.836-5.186-1.36c-1.309-3.178,1.747-3.566,3.654-3.743,1.228-.114.739-2.706,3.076-3.312,1.833-.476,1.947.645,3.6.293,1-.213,2.4-2.4,4.28-1.7,3.484,1.3,1.961,4.693,5.016,6.285,3.564,1.856-.977,9.581-1.925,9.111-1.106-.548-.711-3.74-1.779-4.128-1.611-.586-1.43.577-2.205,1.946-.828,1.463-2.965,2.2-2.237-.357S1179.281,668.814,1177.963,669.4Z" transform="translate(-1167.936 -658.343)"/></g><path class="j" d="M1210.29,707.193a6.122,6.122,0,0,1,1.293-2.031c1.42-2.033.545-4.166,1.742-6.655.8-1.657,1.875-4.635,4.426-3.853,3.937,1.207,1.879,3.285,1.668,4.684-.585,3.863.848,1.094,1.57,2.672s-2.039.474-3.963,4.287c-1.155,2.289-1.182,2.378-1.971,3.156S1210.29,707.193,1210.29,707.193Z" transform="translate(-1025.733 -589.839)"/><path class="k" d="M1305.635,766.817c4.794,3.347,14.5,5.189,19.007,7.048,10.429,4.3,13.7,10.381,19.809,10.015,5.111-.306,25.185-7.335,25.185-17.062,0-3.794-10.636-.313-19.091-1.447-7.737-1.037-14.591-4.654-19.764-7.4-5.018-2.665-10.81-7.617-17.964-12.946-4.567-3.4-12.99-5.128-16.643-4.916-8.694.507-10.987,1.831-10.987,1.831C1287.729,744.365,1295.432,759.692,1305.635,766.817Z" transform="translate(-1086.302 -626.687)"/><path class="h" d="M1385.848,838.681c-.665-.316-1.362-.628-2.094-.929-4.51-1.858-14.212-3.7-19.007-7.047a64.722,64.722,0,0,1-6.464-5.8l10.428-5.812C1368.667,828.363,1382.144,835.411,1385.848,838.681Z" transform="translate(-1145.415 -690.575)"/><path class="k" d="M1201.537,746.61c-20.263,19.517-19.587,20.748-24.2,22.242s6.1-24.629,5.426-25.321-4.971-2.937-6.516-1.269-15.771,37.392-7.024,38.929c7.886,1.386,39.393-20.2,39.393-20.2s9.26-7.118,4.74-12.286S1201.537,746.61,1201.537,746.61Z" transform="translate(-990.24 -627.956)"/></g></g></svg>