<svg xmlns="http://www.w3.org/2000/svg" xmlns:xlink="http://www.w3.org/1999/xlink" width="293" height="200" viewBox="0 0 293 200"><defs><style>.a{fill:none;}.b{fill:url(#a);}.c{fill:url(#b);}.d{fill:url(#c);}.e{fill:url(#d);}.f{fill:url(#e);}.g{fill:url(#f);}.h{fill:url(#g);}.i{fill:url(#h);}.j{fill:url(#i);}.k{fill:url(#j);}.l{fill:url(#k);}.m{fill:url(#l);}.n{fill:url(#m);}.o{fill:url(#n);}.p{fill:url(#o);}.q{fill:url(#p);}.r{fill:url(#q);}.s{fill:url(#r);}.t{fill:url(#s);}.u{fill:url(#t);}.v{fill:url(#u);}.w{fill:url(#v);}.x{fill:url(#w);}.y{fill:url(#x);}.z{fill:url(#y);}.aa{fill:url(#z);}.ab{fill:url(#aa);}.ac{fill:url(#ab);}.ad{fill:url(#ac);}.ae{fill:url(#ad);}.af{fill:url(#ae);}.ag{fill:url(#af);}.ah{fill:url(#ag);}.ai{fill:url(#ah);}.aj{fill:url(#ai);}.ak{fill:url(#aj);}.al{fill:url(#ak);}.am{fill:url(#al);}.an,.ap,.aq,.au,.aw,.az,.bb,.be,.bg,.bj,.bl,.bp,.bt,.bw,.bz,.cb,.ce,.cg,.cj,.cl,.co,.cp,.cs,.cu,.cx,.cz,.dc,.de,.di,.dl,.dn,.dp,.dr,.du,.dw,.dz,.eb{mix-blend-mode:screen;}.an,.ao,.ap,.aq,.au,.av,.aw,.az,.ba,.bb,.be,.bf,.bg,.bj,.bk,.bl,.bo,.bp,.bs,.bt,.bv,.bw,.bz,.ca,.cb,.ce,.cf,.cg,.cj,.ck,.cl,.co,.cp,.cs,.ct,.cu,.cx,.cy,.cz,.dc,.dd,.de,.dh,.di,.dl,.dm,.dn,.dp,.dq,.dr,.du,.dv,.dw,.dz,.ea,.eb{isolation:isolate;}.an{fill:url(#am);}.ao,.av,.ba,.bf,.bk,.bo,.bs,.bv,.ca,.cf,.ck,.ct,.cy,.dd,.dh,.dm,.dq,.dv,.ea{mix-blend-mode:multiply;}.ao{fill:url(#an);}.ap{fill:url(#ao);}.aq{fill:url(#ap);}.ar{fill:#fff;}.as{fill:url(#aq);}.at{fill:url(#ar);}.au{fill:url(#as);}.av{fill:url(#at);}.aw{fill:url(#av);}.ax{fill:url(#aw);}.ay{fill:url(#ax);}.az{fill:url(#ay);}.ba{fill:url(#az);}.bb{fill:url(#bb);}.bc{fill:url(#bc);}.bd{fill:url(#bd);}.be{fill:url(#be);}.bf{fill:url(#bf);}.bg{fill:url(#bh);}.bh{fill:url(#bi);}.bi{fill:url(#bj);}.bj{fill:url(#bk);}.bk{fill:url(#bl);}.bl{fill:url(#bn);}.bm{fill:url(#bo);}.bn{fill:url(#bp);}.bo{fill:url(#br);}.bp{fill:url(#bt);}.bq{fill:url(#bu);}.br{fill:url(#bv);}.bs{fill:url(#bx);}.bt{fill:url(#bz);}.bu{fill:url(#ca);}.bv{fill:url(#cd);}.bw{fill:url(#cf);}.bx{fill:url(#cg);}.by{fill:url(#ch);}.bz{fill:url(#ci);}.ca{fill:url(#cj);}.cb{fill:url(#cl);}.cc{fill:url(#cm);}.cd{fill:url(#cn);}.ce{fill:url(#co);}.cf{fill:url(#cp);}.cg{fill:url(#cr);}.ch{fill:url(#cs);}.ci{fill:url(#ct);}.cj{fill:url(#cu);}.ck{fill:url(#cv);}.cl{fill:url(#cx);}.cm{fill:url(#cy);}.cn{fill:url(#cz);}.co{fill:url(#da);}.cp{fill:url(#dd);}.cq{fill:url(#de);}.cr{fill:url(#df);}.cs{fill:url(#dg);}.ct{fill:url(#dh);}.cu{fill:url(#dj);}.cv{fill:url(#dk);}.cw{fill:url(#dl);}.cx{fill:url(#dm);}.cy{fill:url(#dn);}.cz{fill:url(#dp);}.da{fill:url(#dq);}.db{fill:url(#dr);}.dc{fill:url(#ds);}.dd{fill:url(#dt);}.de{fill:url(#dv);}.df{fill:url(#dw);}.dg{fill:url(#dx);}.dh{fill:url(#dz);}.di{fill:url(#eb);}.dj{fill:url(#ec);}.dk{fill:url(#ed);}.dl{fill:url(#ee);}.dm{fill:url(#ef);}.dn{fill:url(#eh);}.do{fill:url(#ei);}.dp{fill:url(#ek);}.dq{fill:url(#el);}.dr{fill:url(#en);}.ds{fill:url(#eo);}.dt{fill:url(#ep);}.du{fill:url(#eq);}.dv{fill:url(#er);}.dw{fill:url(#et);}.dx{fill:url(#eu);}.dy{fill:url(#ev);}.dz{fill:url(#ew);}.ea{fill:url(#ex);}.eb{fill:url(#ez);}</style><linearGradient id="a" x1="0.498" y1="0.3" x2="0.502" y2="0.711" gradientUnits="objectBoundingBox"><stop offset="0" stop-color="#60b6f5"/><stop offset="0.13" stop-color="#fff"/><stop offset="0.238" stop-color="#fcfdfe"/><stop offset="0.301" stop-color="#f4fafe"/><stop offset="0.353" stop-color="#e6f3fd"/><stop offset="0.399" stop-color="#d1eafc"/><stop offset="0.441" stop-color="#b7defa"/><stop offset="0.48" stop-color="#97cff8"/><stop offset="0.516" stop-color="#72bef6"/><stop offset="0.532" stop-color="#60b6f5"/><stop offset="0.748" stop-color="#225982"/><stop offset="0.865" stop-color="#0f344f"/><stop offset="1" stop-color="#288cd4"/></linearGradient><linearGradient id="b" x1="0" y1="0.5" x2="1" y2="0.5" xlink:href="#a"/><linearGradient id="c" x1="0.457" y1="0.512" x2="0.545" y2="0.488" xlink:href="#a"/><linearGradient id="d" x1="0.519" y1="0.401" x2="0.481" y2="0.596" xlink:href="#a"/><linearGradient id="e" x1="0.482" y1="0.403" x2="0.516" y2="0.59" xlink:href="#a"/><linearGradient id="f" x1="0.413" y1="0.512" x2="0.586" y2="0.489" xlink:href="#a"/><linearGradient id="g" x1="0.423" y1="0.487" x2="0.57" y2="0.512" xlink:href="#a"/><linearGradient id="h" x1="0.485" y1="0.412" x2="0.514" y2="0.584" xlink:href="#a"/><linearGradient id="i" x1="0.508" y1="0.465" x2="0.492" y2="0.535" xlink:href="#a"/><linearGradient id="j" x1="0.487" y1="0.444" x2="0.513" y2="0.553" xlink:href="#a"/><linearGradient id="k" x1="0.337" y1="0.506" x2="0.67" y2="0.494" xlink:href="#a"/><linearGradient id="l" x1="0.51" y1="0.425" x2="0.49" y2="0.575" xlink:href="#a"/><linearGradient id="m" x1="0.429" y1="0.508" x2="0.57" y2="0.492" xlink:href="#a"/><linearGradient id="n" x1="0.49" y1="0.443" x2="0.511" y2="0.559" xlink:href="#a"/><linearGradient id="o" x1="0.452" y1="0.521" x2="0.543" y2="0.481" xlink:href="#a"/><linearGradient id="p" x1="0.431" y1="0.495" x2="0.559" y2="0.505" xlink:href="#a"/><linearGradient id="q" x1="0.404" y1="0.511" x2="0.596" y2="0.489" xlink:href="#a"/><linearGradient id="r" x1="0.329" y1="0.497" x2="0.699" y2="0.503" xlink:href="#a"/><linearGradient id="s" x1="0.468" y1="0.53" x2="0.53" y2="0.472" xlink:href="#a"/><linearGradient id="t" x1="0.5" y1="0.086" x2="0.5" y2="0.946" xlink:href="#a"/><linearGradient id="u" x1="0.495" y1="0.232" x2="0.505" y2="0.769" xlink:href="#a"/><linearGradient id="v" x1="0.445" y1="0.485" x2="0.559" y2="0.516" xlink:href="#a"/><linearGradient id="w" x1="0.42" y1="0.478" x2="0.579" y2="0.522" xlink:href="#a"/><linearGradient id="x" x1="0.416" y1="0.478" x2="0.579" y2="0.521" xlink:href="#a"/><linearGradient id="y" x1="0.423" y1="0.521" x2="0.575" y2="0.479" xlink:href="#a"/><linearGradient id="z" x1="0.42" y1="0.521" x2="0.583" y2="0.478" xlink:href="#a"/><linearGradient id="aa" x1="0.431" y1="0.519" x2="0.564" y2="0.482" xlink:href="#a"/><linearGradient id="ab" x1="0.482" y1="0.473" x2="0.516" y2="0.524" xlink:href="#a"/><linearGradient id="ac" x1="0.48" y1="0.446" x2="0.52" y2="0.554" xlink:href="#a"/><linearGradient id="ad" x1="0.511" y1="0.421" x2="0.489" y2="0.574" xlink:href="#a"/><linearGradient id="ae" x1="0.431" y1="0.485" x2="0.567" y2="0.515" xlink:href="#a"/><linearGradient id="af" x1="0.445" y1="0.484" x2="0.554" y2="0.516" xlink:href="#a"/><linearGradient id="ag" x1="0.436" y1="0.51" x2="0.557" y2="0.491" xlink:href="#a"/><linearGradient id="ah" x1="0.497" y1="0.233" x2="0.503" y2="0.765" xlink:href="#a"/><linearGradient id="ai" x1="0.364" y1="0.504" x2="0.635" y2="0.496" xlink:href="#a"/><linearGradient id="aj" x1="0.439" y1="0.514" x2="0.557" y2="0.487" xlink:href="#a"/><radialGradient id="ak" cx="0.534" cy="0.379" r="0.664" gradientTransform="matrix(1, 0.012, -0.012, 1, 0.004, -0.007)" gradientUnits="objectBoundingBox"><stop offset="0" stop-color="#fff"/><stop offset="0.178" stop-color="#fcfdfe"/><stop offset="0.283" stop-color="#f4fafe"/><stop offset="0.369" stop-color="#e6f3fd"/><stop offset="0.445" stop-color="#d1eafc"/><stop offset="0.514" stop-color="#b7defa"/><stop offset="0.578" stop-color="#97cff8"/><stop offset="0.637" stop-color="#72bef6"/><stop offset="0.663" stop-color="#60b6f5"/><stop offset="0.817" stop-color="#225982"/><stop offset="0.896" stop-color="#0f344f"/><stop offset="1" stop-color="#288cd4"/></radialGradient><radialGradient id="al" cx="0.533" cy="0.32" r="0.743" gradientTransform="translate(0.001)" xlink:href="#ak"/><radialGradient id="am" cx="0.627" cy="0.873" r="0.426" gradientTransform="translate(0.067) scale(0.866 1)" gradientUnits="objectBoundingBox"><stop offset="0" stop-color="#96c8ec"/><stop offset="0.093" stop-color="#8ebee0"/><stop offset="0.258" stop-color="#7aa3c1"/><stop offset="0.478" stop-color="#5a798f"/><stop offset="0.741" stop-color="#2f3f4a"/><stop offset="1"/></radialGradient><radialGradient id="an" cx="0.533" cy="0.379" r="0.664" gradientTransform="translate(0)" gradientUnits="objectBoundingBox"><stop offset="0" stop-color="#42afff"/><stop offset="1" stop-color="#206fa8"/></radialGradient><linearGradient id="ao" x1="0.423" y1="0.476" x2="0.78" y2="0.97" gradientUnits="objectBoundingBox"><stop offset="0" stop-color="#4b667a"/><stop offset="0.365" stop-color="#2c3c48"/><stop offset="0.791" stop-color="#0c1114"/><stop offset="1"/></linearGradient><linearGradient id="ap" x1="-1.407" y1="4.447" x2="-1.072" y2="5.261" gradientUnits="objectBoundingBox"><stop offset="0" stop-color="#cfebff"/><stop offset="0.207" stop-color="#accadf"/><stop offset="0.661" stop-color="#567891"/><stop offset="1" stop-color="#123854"/></linearGradient><radialGradient id="aq" cx="0.534" cy="0.379" r="0.664" xlink:href="#ak"/><radialGradient id="ar" cx="0.533" cy="0.32" r="0.743" gradientTransform="translate(0.001)" xlink:href="#ak"/><radialGradient id="as" cx="0.627" cy="0.873" r="0.426" xlink:href="#am"/><radialGradient id="at" cx="0.533" cy="0.379" r="0.664" xlink:href="#an"/><linearGradient id="av" x1="-1.262" y1="5.134" x2="-0.927" y2="5.948" xlink:href="#ap"/><radialGradient id="aw" cx="0.534" cy="0.379" r="0.664" gradientTransform="matrix(1, 0.012, -0.012, 1, 0.004, -0.006)" xlink:href="#ak"/><radialGradient id="ax" cx="0.533" cy="0.32" r="0.743" gradientTransform="translate(0.001)" xlink:href="#ak"/><radialGradient id="ay" cx="0.627" cy="0.873" r="0.426" xlink:href="#am"/><radialGradient id="az" cx="0.533" cy="0.379" r="0.664" xlink:href="#an"/><linearGradient id="bb" x1="-0.128" y1="2.026" x2="0.208" y2="2.84" xlink:href="#ap"/><radialGradient id="bc" cx="0.534" cy="0.379" r="0.664" gradientTransform="matrix(1, 0.012, -0.012, 1, 0.004, -0.005)" xlink:href="#ak"/><radialGradient id="bd" cx="0.533" cy="0.32" r="0.743" gradientTransform="translate(0.001)" xlink:href="#ak"/><radialGradient id="be" cx="0.627" cy="0.873" r="0.426" xlink:href="#am"/><radialGradient id="bf" cx="0.533" cy="0.379" r="0.664" xlink:href="#an"/><linearGradient id="bh" x1="1.704" y1="0.054" x2="2.04" y2="0.868" xlink:href="#ap"/><radialGradient id="bi" cx="0.534" cy="0.379" r="0.664" gradientTransform="matrix(1, 0.012, -0.012, 1, 0.004, -0.006)" xlink:href="#ak"/><radialGradient id="bj" cx="0.533" cy="0.32" r="0.743" gradientTransform="translate(0.001)" xlink:href="#ak"/><radialGradient id="bk" cx="0.627" cy="0.873" r="0.426" xlink:href="#am"/><radialGradient id="bl" cx="0.533" cy="0.379" r="0.664" xlink:href="#an"/><linearGradient id="bn" x1="1.145" y1="0.57" x2="1.481" y2="1.384" xlink:href="#ap"/><radialGradient id="bo" cx="0.534" cy="0.379" r="0.664" gradientTransform="matrix(1, 0.012, -0.012, 1, 0.004, -0.006)" xlink:href="#ak"/><radialGradient id="bp" cx="0.533" cy="0.32" r="0.743" gradientTransform="translate(0.001)" xlink:href="#ak"/><radialGradient id="br" cx="0.533" cy="0.379" r="0.664" xlink:href="#an"/><linearGradient id="bt" x1="0.602" y1="1.055" x2="0.937" y2="1.869" xlink:href="#ap"/><radialGradient id="bu" cx="0.534" cy="0.379" r="0.664" gradientTransform="matrix(1, 0.012, -0.012, 1, 0.003, -0.006)" xlink:href="#ak"/><radialGradient id="bv" cx="0.533" cy="0.32" r="0.743" gradientTransform="translate(0.001)" xlink:href="#ak"/><radialGradient id="bx" cx="0.533" cy="0.379" r="0.664" xlink:href="#an"/><linearGradient id="bz" x1="0.47" y1="3.469" x2="0.806" y2="4.283" xlink:href="#ap"/><radialGradient id="ca" cx="0.534" cy="0.379" r="0.664" gradientTransform="matrix(1, 0.012, -0.012, 1, 0.004, -0.006)" xlink:href="#ak"/><radialGradient id="cd" cx="0.533" cy="0.379" r="0.664" xlink:href="#an"/><linearGradient id="cf" x1="1.079" y1="1.785" x2="1.414" y2="2.599" xlink:href="#ap"/><radialGradient id="cg" cx="0.534" cy="0.379" r="0.664" xlink:href="#ak"/><radialGradient id="ch" cx="0.533" cy="0.32" r="0.743" gradientTransform="translate(0.001)" xlink:href="#ak"/><radialGradient id="ci" cx="0.627" cy="0.873" r="0.426" xlink:href="#am"/><radialGradient id="cj" cx="0.533" cy="0.379" r="0.664" xlink:href="#an"/><linearGradient id="cl" x1="-1.837" y1="4.652" x2="-1.502" y2="5.466" xlink:href="#ap"/><radialGradient id="cm" cx="0.534" cy="0.379" r="0.664" xlink:href="#ak"/><radialGradient id="cn" cx="0.533" cy="0.32" r="0.743" gradientTransform="translate(0.001)" xlink:href="#ak"/><radialGradient id="co" cx="0.627" cy="0.873" r="0.426" xlink:href="#am"/><radialGradient id="cp" cx="0.533" cy="0.379" r="0.664" xlink:href="#an"/><linearGradient id="cr" x1="-1.391" y1="7.002" x2="-1.056" y2="7.816" xlink:href="#ap"/><radialGradient id="cs" cx="0.534" cy="0.379" r="0.664" gradientTransform="matrix(1, 0.012, -0.012, 1, 0.004, -0.006)" xlink:href="#ak"/><radialGradient id="ct" cx="0.533" cy="0.32" r="0.743" gradientTransform="translate(0.001)" xlink:href="#ak"/><radialGradient id="cu" cx="0.627" cy="0.873" r="0.426" xlink:href="#am"/><radialGradient id="cv" cx="0.533" cy="0.379" r="0.664" xlink:href="#an"/><linearGradient id="cx" x1="-0.701" y1="5.502" x2="-0.366" y2="6.316" xlink:href="#ap"/><radialGradient id="cy" cx="0.534" cy="0.379" r="0.664" gradientTransform="matrix(1, 0.012, -0.012, 1, 0.004, -0.006)" xlink:href="#ak"/><radialGradient id="cz" cx="0.533" cy="0.32" r="0.743" gradientTransform="translate(0.001)" xlink:href="#ak"/><radialGradient id="da" cx="0.627" cy="0.873" r="0.426" xlink:href="#am"/><linearGradient id="dd" x1="-0.088" y1="3.83" x2="0.248" y2="4.644" xlink:href="#ap"/><radialGradient id="de" cx="0.534" cy="0.379" r="0.664" gradientTransform="matrix(1, 0.012, -0.012, 1, 0.004, -0.006)" xlink:href="#ak"/><radialGradient id="df" cx="0.533" cy="0.32" r="0.743" gradientTransform="translate(0.001)" xlink:href="#ak"/><radialGradient id="dg" cx="0.627" cy="0.873" r="0.426" xlink:href="#am"/><radialGradient id="dh" cx="0.533" cy="0.379" r="0.664" xlink:href="#an"/><linearGradient id="dj" x1="-0.829" y1="4.829" x2="-0.493" y2="5.643" xlink:href="#ap"/><radialGradient id="dk" cx="0.534" cy="0.379" r="0.664" gradientTransform="matrix(1, 0.012, -0.012, 1, 0.004, -0.006)" xlink:href="#ak"/><radialGradient id="dl" cx="0.533" cy="0.32" r="0.743" gradientTransform="translate(0.001)" xlink:href="#ak"/><radialGradient id="dm" cx="0.627" cy="0.873" r="0.426" xlink:href="#am"/><radialGradient id="dn" cx="0.533" cy="0.379" r="0.664" xlink:href="#an"/><linearGradient id="dp" x1="-0.551" y1="1.678" x2="-0.216" y2="2.492" xlink:href="#ap"/><radialGradient id="dq" cx="0.534" cy="0.379" r="0.664" gradientTransform="matrix(1, 0.012, -0.012, 1, 0.004, -0.006)" xlink:href="#ak"/><radialGradient id="dr" cx="0.533" cy="0.32" r="0.743" gradientTransform="translate(0.001)" xlink:href="#ak"/><radialGradient id="ds" cx="0.627" cy="0.873" r="0.426" xlink:href="#am"/><radialGradient id="dt" cx="0.533" cy="0.379" r="0.664" xlink:href="#an"/><linearGradient id="dv" x1="-0.011" y1="1.133" x2="0.325" y2="1.947" xlink:href="#ap"/><radialGradient id="dw" cx="0.534" cy="0.379" r="0.664" gradientTransform="matrix(1, 0.012, -0.012, 1, 0.003, -0.007)" xlink:href="#ak"/><radialGradient id="dx" cx="0.533" cy="0.32" r="0.743" gradientTransform="translate(0.001)" xlink:href="#ak"/><radialGradient id="dz" cx="0.533" cy="0.379" r="0.664" xlink:href="#an"/><linearGradient id="eb" x1="-2.043" y1="8.516" x2="-1.707" y2="9.33" xlink:href="#ap"/><radialGradient id="ec" cx="0.534" cy="0.379" r="0.664" gradientTransform="matrix(1, 0.012, -0.012, 1, 0.004, -0.006)" xlink:href="#ak"/><radialGradient id="ed" cx="0.533" cy="0.32" r="0.743" gradientTransform="translate(0.001)" xlink:href="#ak"/><radialGradient id="ee" cx="0.627" cy="0.873" r="0.426" xlink:href="#am"/><radialGradient id="ef" cx="0.533" cy="0.379" r="0.664" xlink:href="#an"/><linearGradient id="eh" x1="-0.913" y1="3.6" x2="-0.577" y2="4.414" xlink:href="#ap"/><radialGradient id="ei" cx="0.534" cy="0.379" r="0.664" gradientTransform="matrix(1, 0.012, -0.012, 1, 0.004, -0.006)" xlink:href="#ak"/><radialGradient id="ek" cx="0.627" cy="0.873" r="0.426" xlink:href="#am"/><radialGradient id="el" cx="0.533" cy="0.379" r="0.664" xlink:href="#an"/><linearGradient id="en" x1="0.307" y1="2.669" x2="0.642" y2="3.483" xlink:href="#ap"/><radialGradient id="eo" cx="0.534" cy="0.379" r="0.664" xlink:href="#ak"/><radialGradient id="ep" cx="0.533" cy="0.32" r="0.743" gradientTransform="translate(0.001)" xlink:href="#ak"/><radialGradient id="eq" cx="0.627" cy="0.873" r="0.426" xlink:href="#am"/><radialGradient id="er" cx="0.533" cy="0.379" r="0.664" xlink:href="#an"/><linearGradient id="et" x1="-1.245" y1="2.854" x2="-0.91" y2="3.668" xlink:href="#ap"/><radialGradient id="eu" cx="0.534" cy="0.379" r="0.664" gradientTransform="matrix(1, 0.012, -0.012, 1, 0.004, -0.006)" xlink:href="#ak"/><radialGradient id="ev" cx="0.533" cy="0.32" r="0.743" gradientTransform="translate(0.001)" xlink:href="#ak"/><radialGradient id="ew" cx="0.627" cy="0.873" r="0.426" xlink:href="#am"/><radialGradient id="ex" cx="0.533" cy="0.379" r="0.664" xlink:href="#an"/><linearGradient id="ez" x1="-0.364" y1="1.642" x2="-0.028" y2="2.456" xlink:href="#ap"/></defs><g transform="translate(-780 -357.551)"><rect class="a" width="293" height="200" transform="translate(780 357.551)"/><g transform="translate(797.244 329.626)"><g transform="translate(69.308 32.196)"><g transform="translate(0)"><g transform="translate(8.084 6.056)"><path class="b" d="M585.8,700.974l-.011-.154h0l-.026-.363h0l-.04-.559h0l-.013-.182h0l0-.067-.034-.471h0l0-.035h0l0-.061h0l0-.061h0l-.009-.127-40.362,2.883.006.082h0l.006.082h0l.012.172h0l.041.577h0l.078,1.09h0l0,.038h0l0,.039Z" transform="translate(-508.209 -569.188)"/><path class="c" d="M596.54,424.976l.71-.005-.241-31.194h-.328l-.488,0-.735.006h-.534l.242,31.194h.454l.826-.006h.1Z" transform="translate(-544.906 -343.586)"/><path class="d" d="M541.225,399.912l-20.061-39.4-.034.017h0l-.034.018h0l-.035.018h0l-.1.052h0l-.678.345-.3.155-.5.255h0l-.168.085,20.061,39.4.073-.037h0l.219-.112h0l1.427-.727h0Z" transform="translate(-488.995 -318.993)"/><path class="e" d="M541.889,367h0l.069-.166-19.82-8.2-.031.076h0l-.017.042h0l-.093.225h0l-.494,1.193h0l-.162.391,19.82,8.2.015-.036h0l.015-.036h0l.015-.036h0l.191-.46h0l.1-.243.174-.42.1-.242h0l.031-.076Z" transform="translate(-490.499 -317.602)"/><path class="f" d="M619,360.549l-.028-.072h0l-.057-.144h0l-.035-.089h0l-.276-.7h0l-.2-.5-.082-.209h0l-.022-.057h0l-.009-.023h0l-.06-.153-20.779,8.2.047.119h0l.019.049h0l.025.065h0l.013.032h0l.265.672h0l.094.239.181.46h0l.035.089h0l.014.036h0l.071.18Z" transform="translate(-546.778 -317.584)"/><path class="g" d="M569.19,311.276l.11-.037.381-.129-9.667-28.7-.22.074h0l-.284.1-.078.026h0l-.258.087h0l-.093.031h0l-.2.068-.218.074-.2.068h0l-.184.062h0l-.055.018h0l-.023.008h0l-.078.026h0l-.078.026,9.667,28.7.236-.08h0l.075-.025h0l.078-.026h0l1.061-.357.034-.012Z" transform="translate(-517.634 -261.245)"/><path class="h" d="M607.887,283.018l-.036-.013h0l-.036-.014h0l-.072-.027h0l-.162-.061h0l-.447-.168h0l-.319-.12-.662-.248-.218-.082-10.758,28.7.077.029h0l.14.052h0l.016.006h0l.033.012h0l.024.009h0l.024.009h0l.021.008.118.044.489.183h0l.435.163h0l.575.216Z" transform="translate(-545.094 -261.15)"/><path class="i" d="M708.4,564.524l-.142-.373-.042-.111h0l-.1-.267-.065-.171h0l-.015-.039-.317-.833h0l-.013-.034h0l-.016-.042h0l-.029-.077L683.671,571.7l.064.168h0l0,.008h0l.093.244.053.139.047.124.033.086h0l.058.152.274.721h0l.116.306Z" transform="translate(-610.526 -468.395)"/><path class="j" d="M595.108,734.667l.055-.115-50.415-24.208-.036.074h0l-.065.135h0l-.006.013h0v0h0l-.034.071h0l-.018.038h0l-.26.542-.094.2h0l0,0-.038.078h0l-.2.424-.145.3,50.415,24.208.016-.035h0l.17-.354.431-.9.109-.226L595,734.9h0l.086-.18h0l.026-.055Z" transform="translate(-507.14 -577.654)"/><path class="k" d="M598.862,468.1l.179.385,32.734-15.256-.016-.035h0l-.016-.035h0l-.016-.035h0l-.016-.035h0l-.016-.035h0l-.127-.272-.479-1.029-.007-.014h0l-.088-.189h0l-.1-.21L598.16,466.593l.035.074h0l.035.074h0l.01.022h0l.018.039h0l0,.006,0,.007h0l.006.013.028.061h0l.047.1h0l0,.006.017.037.375.8h0l.033.071Z" transform="translate(-547.3 -386.146)"/><path class="l" d="M685.141,627.5l.54-.082.067-.01h0l.094-.014h0l.315-.048.05-.008h0l.031,0,.558-.084h0l.022,0h0l.077-.012h0l.226-.034h0l.081-.012-4-26.469-.081.012h0l-.105.016h0l-.043.006h0l-.06.009-.017,0h0l-.027,0-.1.015h0l-.019,0-.032,0h0l-.136.021-.282.042h0l-1.081.163h0l-.076.011Z" transform="translate(-608.653 -496.597)"/><path class="m" d="M501.682,478.7l.323-.976h0l.014-.043h0l.026-.078-34.26-11.315-.052.156h0l-.407,1.232,0,.008h0l-.168.51h0l-.012.037h0l-.012.037,34.261,11.315.073-.222Z" transform="translate(-450.417 -397.2)"/><path class="n" d="M498.409,570.488l-.037.012h0l-.184.059h0l-.182.058h0l-.451.144h0l-.426.136-.393.125h0l-.191.061h0l-.122.039,11.817,37.07.078-.025h0l.043-.014h0l.05-.016h0l.248-.079h0l.037-.012.491-.157.1-.031h0l.629-.2h0l.128-.041h0l.184-.059Z" transform="translate(-472.075 -474.245)"/><path class="o" d="M636,805.066l-.087-.215h0l-.333-.824-.19-.47-.026-.064h0l-.075-.185h0l-.009-.022h0l-.031-.076h0l-.031-.076L599.154,817.7l.031.076h0l.017.042h0l.023.056h0l.016.04h0l.075.185h0l.184.456.159.393.046.115h0l.071.177h0l.086.213h0l.015.036h0l.014.036h0l.015.036h0l.015.036h0l.014.036Z" transform="translate(-548.035 -646.261)"/><path class="p" d="M405.374,710.848l-.069.045h0l-.069.045h0l-.057.037h0l-.012.008h0l-.053.035h0l-.1.066h0l-.248.162,0,0h0l-.858.56h0l-.209.137h0l-.032.021h0l-.032.021,17.877,27.4.064-.042h0l.065-.042h0l1.131-.738.124-.081h0l.087-.057h0l.168-.11h0l.107-.07Z" transform="translate(-403.464 -578.026)"/><path class="q" d="M557.872,513l-.186-.051h0l-.13-.035h0l-.092-.025h0l-.369-.1h0l-.264-.072h0l-.7-.189h0l-.05-.014h0l-.065-.018h0l-.035-.01h0l-.123-.033L541.716,564.7l.123.033h0l.1.027h0l.068.018.311.085.1.028h0l.23.062.034.009h0l.264.072h0l.092.025h0l.5.136.146.039h0l.037.01Z" transform="translate(-505.565 -431.339)"/><path class="r" d="M466.557,468.889l-.172.054h0l-.3.094h0l-.225.07-.265.083h0l-.146.046-.117.037-.272.085h0l-.421.132h0l-.037.011h0l-.037.012,8.3,26.482.11-.035h0l.2-.063h0l.819-.257.466-.146h0l.157-.049h0l.157-.049h0l.078-.025Z" transform="translate(-448.522 -399.124)"/><path class="s" d="M408.511,578.713l-.077-.008h0l-.172-.017h0l-.163-.017-.585-.059h0l-.487-.049-.024,0h0l-.1-.01h0l-.1-.01h0l-.052-.005h0l-.1-.01h0l-.127-.013L403,613.465l.163.016h0l1.834.185h0l.039,0h0l.038,0,3.516-34.953-.077-.008Z" transform="translate(-402.998 -480.178)"/><path class="t" d="M620.607,533.683l.083-.081-22.215-22.884-.028.027h0l-.139.135h0l-.082.08-.055.054h0l-.731.71-.22.213h0l-.075.073h0l-.107.1h0l-.059.057,22.215,22.884.059-.057h0l.033-.032h0l.075-.073h0l.037-.036h0l.062-.06h0l.05-.048h0l.063-.062.171-.166.237-.23h0l.405-.393h0l.068-.067h0l.152-.147Z" transform="translate(-546.427 -430.051)"/><path class="u" d="M406.965,709.033v.188h0v.058h0v.038h0v.126l0,.26v.153h0l0,.365h0l-.005.78h0v.039h0v.039h0v.039l36.12.239v-.141l0-.282h0v-.1h0v-.1h0v-.1h0v-.1h0l0-.365h0v-.03l0-.336v-.056h0l0-.365h0v-.045h0v-.082Z" transform="translate(-405.921 -576.685)"/><path class="v" d="M420.112,569.636l0,.038h0l.01.116h0l.029.324h0l.05.557.008.091h0v.016l.006.067.054.6h0l.021.231,20.787-1.879-.007-.082h0l0-.045h0l-.006-.061h0l-.009-.1h0L441,568.83l-.036-.4h0l-.043-.476h0l-.021-.231L420.109,569.6l0,.039Z" transform="translate(-415.65 -472.198)"/><path class="w" d="M480.875,361.466l-.069-.035h0l-.034-.017h0l-.055-.028-.509-.258-.051-.026h0l-.135-.068-.19-.1h0l-.162-.082-.162-.082-.239-.121h0l-.253-.128-14.2,28.082.073.037h0l.134.068h0l.111.056.048.025h0l.145.073.79.4.182.092h0l.343.173h0l.034.018Z" transform="translate(-448.705 -319)"/><path class="x" d="M531.307,282.84l-.1-.052h0l-.035-.017h0l-.155-.077h0l-.7-.345-.222-.11h0l-.046-.023-.449-.222h0l-.161-.08-10.153,20.494.074.036h0l.321.159h0l.021.01,1.263.626.017.008h0l.138.069h0l.035.017Z" transform="translate(-488.98 -260.876)"/><path class="y" d="M570.2,202.118l-.07-.034h0l-.311-.149h0l-.328-.158-.781-.375h0l-.086-.041h0l-.133-.064h0l-.022-.01h0l-.074-.035h0l-.074-.036-10.1,21.042.115.055h0l.965.463.16.077h0l.249.119.356.171h0l.035.017Z" transform="translate(-517.77 -201.208)"/><path class="z" d="M609.15,222.244l.035-.017-10.327-21.042-.1.051h0l-.276.135h0l-.425.209h0l-.082.04h0l-.082.04h0l-.083.041-.264.13-.262.128h0l-.071.035h0l-.055.027h0l-.055.027h0l-.115.056,10.327,21.042.147-.072h0l.108-.053h0l.023-.011h0l.109-.054h0l1.157-.568.292-.143Z" transform="translate(-546.432 -201.184)"/><path class="aa" d="M648.468,302.444l.035-.017-10.021-20.494-.1.051-.219.107-.057.028h0l-.086.042h0l-.46.225-.614.3h0l-.164.08h0l-.1.047h0l-.074.036,10.021,20.494.115-.056h0l.033-.016h0l.074-.036h0l.174-.085h0l.007,0,.27-.132.149-.073h0l.082-.04h0l.082-.04h0l.082-.04h0l.277-.136.234-.114h0l.19-.093h0l.035-.017h0l.035-.017Z" transform="translate(-575.728 -260.889)"/><path class="ab" d="M689.074,384.7l.069-.035-12.2-24.14-.034.018h0l-.172.087h0l-.256.129h0l-1.121.566h0l-.116.059h0l-.087.044h0l-.073.037,12.2,24.14.114-.058h0l.106-.053h0l.415-.21.019-.01h0l.117-.059.713-.36h0l.24-.121h0l.069-.035Z" transform="translate(-604.178 -319.001)"/><path class="ac" d="M580.709,599.8l-.8-.994-.211-.262h0l-.117-.144h0l-.1-.128h0l-.052-.064-36.359,29.353.052.064h0l.052.064h0l.092.114h0l.263.326.466.578h0l.337.418h0l.024.03h0l.024.03,36.359-29.353-.024-.03Z" transform="translate(-506.562 -494.738)"/><path class="ad" d="M498.257,525.288l.023.039h0l.581.995h0l.241.413h0l.068.116h0l.1.167,25.961-15.167-.019-.033h0l-.1-.167h0l-.241-.413h0l-.094-.161h0l-.218-.372-.013-.021h0l-.028-.047-.124-.213h0l-.1-.173h0l-.117-.2-25.961,15.167.041.071Z" transform="translate(-473.401 -429.558)"/><path class="ae" d="M474.934,814.39l-.027.077h0l-.028.077h0l-.493,1.383-.1.273-.055.153,32.6,11.613.013-.036h0l.013-.036h0l.013-.036h0l.013-.036h0l.013-.036h0l.013-.036h0l.013-.036.019-.053h0l.065-.184.031-.086h0l.012-.034.174-.49h0l.061-.172.108-.3h0l.027-.077h0l.045-.127,0-.013h0l.06-.169Z" transform="translate(-455.67 -654.585)"/><path class="af" d="M431.168,469.3l-.035-.016h0l-.229-.1h0l-.175-.077-.088-.039h0l-.436-.192-.429-.189-.078-.034h0l-.027-.012h0l-.02-.009h0l-.016-.007h0l-.032-.014h0l-.048-.021h0l-.032-.014h0l-.228-.1-12.487,28.361.075.033h0l.042.018h0l.033.015h0l.133.059h0l.306.135.162.071.253.112h0l.266.117.251.111h0l.246.108h0l.141.062L431.2,469.314l-.035-.015Z" transform="translate(-413.209 -398.816)"/><path class="ag" d="M737.335,723.867l15.155-28.932-.034-.018h0l-.068-.036h0l-.069-.036h0l-.115-.06-.089-.047h0l-.005,0-.079-.042h0l-.122-.064-1.047-.548h0l-.218-.114L735.488,722.9l.072.038h0l.073.038h0l.183.1h0l.347.182.071.037.144.076h0l.793.415Z" transform="translate(-648.839 -565.545)"/><path class="ah" d="M543.781,712.56l-.072.027h0l-.414.153h0l-.269.1h0L542.6,713h0l-.408.151h0l-.016.006h0l-.014.005-.026.009h0l-.049.018-.028.01h0l-.077.028h0l-.077.029h0l-.077.029,14.353,38.771.12-.044h0l0,0,.045-.017h0l.049-.018h0l.049-.018h0l.049-.018h0l.087-.032.542-.2h0l.171-.063h0l.056-.021.478-.177h0l.126-.047h0l.145-.054h0l.036-.013Z" transform="translate(-505.647 -579.293)"/><path class="ai" d="M700.317,695.754l25.208-1.84,0-.038h0l0-.039h0l0-.038h0l0-.039h0l0-.039h0l0-.038h0l-.007-.1h0l-.037-.514,0-.053h0l-.006-.083v-.008h0l-.007-.091h0l-.007-.091h0l-.02-.278-.01-.143h0l-.012-.164h0l-.01-.139h0l0-.024h0l-.012-.164-25.208,1.84.006.082h0l0,.046h0l.012.172.01.132h0l0,.036.011.154.021.291h0l.042.579.012.167h0l.023.313Z" transform="translate(-622.721 -563.969)"/><path class="aj" d="M780.37,599.472h0l.115-.018L775.265,565.7l-.115.018h0l-.209.032h0l-1.227.19-.023,0h0l-.06.009h0l-.06.009h0l-.137.021h0l-.148.023h0l-.081.013,5.219,33.751.081-.013h0l.324-.05h0l.642-.1.217-.034h0l.284-.044Z" transform="translate(-676.727 -470.707)"/><path class="ak" d="M737.123,482.329l.07-.033-13.474-29.019-.035.016h0l-.943.438h0l-.179.083-.473.22-.09.042h0l-.1.045h0l-.074.035L735.3,483.175l.116-.054h0l1.045-.485h0l.66-.307Z" transform="translate(-638.739 -387.581)"/></g><g transform="translate(46.544 165.398)"><path class="al" d="M563.457,838.672a13.031,13.031,0,1,1,13.18-12.879A13.03,13.03,0,0,1,563.457,838.672Z" transform="translate(-550.578 -812.612)"/><path class="am" d="M570.143,819.157a9.349,9.349,0,1,1-13.168,12.869,11.467,11.467,0,1,0,13.168-12.869Z" transform="translate(-555.308 -817.451)"/><path class="an" d="M573.605,827.461a11.148,11.148,0,1,1-20.265,6.287,11.224,11.224,0,0,1,.186-1.911,12.51,12.51,0,1,0,20.079-4.375Z" transform="translate(-552.056 -823.591)"/><path class="ao" d="M589.72,834.2a12.667,12.667,0,0,1-17.55,17.554A12.562,12.562,0,0,0,589.72,834.2Z" transform="translate(-566.543 -828.572)"/><path class="ap" d="M568.137,829.676c-7.183-.083-11.231-2.976-11.231-5.027,0-7.185,6.737-11.233,11.53-11.233s11.232,4.347,11.232,11.532C579.668,826.808,575.321,829.758,568.137,829.676Z" transform="translate(-555.257 -813.206)"/><path class="aq" d="M573.379,824.814c-5.086,1.115-8.318.185-8.582-.938-.924-3.934,3.316-7.238,6.7-8.013s8.495.566,9.419,4.5C581.157,821.381,578.466,823.7,573.379,824.814Z" transform="translate(-560.996 -814.861)"/><path class="ar" d="M572.292,827.8c-.674.841-1.513,1.288-1.876,1s-.11-1.207.563-2.048,1.513-1.288,1.876-1S572.965,826.958,572.292,827.8Z" transform="translate(-565.124 -822.261)"/><path class="ar" d="M568.473,842.488a.75.75,0,1,1-.75-.75A.75.75,0,0,1,568.473,842.488Z" transform="translate(-562.7 -834.147)"/></g><g transform="translate(82.61 150.902)"><path class="as" d="M701.848,783.049a13.031,13.031,0,1,1,13.18-12.879A13.03,13.03,0,0,1,701.848,783.049Z" transform="translate(-688.968 -756.989)"/><path class="at" d="M708.533,763.534A9.35,9.35,0,1,1,695.365,776.4a11.467,11.467,0,1,0,13.168-12.869Z" transform="translate(-693.698 -761.828)"/><path class="au" d="M712,771.838a11.148,11.148,0,1,1-20.265,6.287,11.276,11.276,0,0,1,.186-1.912A12.511,12.511,0,1,0,712,771.838Z" transform="translate(-690.446 -767.968)"/><path class="av" d="M728.11,778.574a12.667,12.667,0,0,1-17.55,17.554,12.562,12.562,0,0,0,17.55-17.554Z" transform="translate(-704.933 -772.949)"/><path class="ap" d="M706.528,774.053c-7.184-.083-11.231-2.976-11.231-5.027,0-7.185,6.737-11.233,11.53-11.233s11.232,4.347,11.232,11.532C718.059,771.185,713.712,774.136,706.528,774.053Z" transform="translate(-693.647 -757.583)"/><path class="aw" d="M711.77,769.191c-5.086,1.115-8.318.185-8.582-.938-.924-3.934,3.316-7.238,6.7-8.013s8.5.566,9.419,4.5C719.549,765.758,716.857,768.076,711.77,769.191Z" transform="translate(-699.387 -759.238)"/><path class="ar" d="M710.682,772.176c-.673.841-1.513,1.288-1.876,1s-.11-1.207.563-2.048,1.513-1.288,1.876-1S711.355,771.335,710.682,772.176Z" transform="translate(-703.514 -766.638)"/><path class="ar" d="M706.863,786.865a.75.75,0,1,1-.75-.75A.75.75,0,0,1,706.863,786.865Z" transform="translate(-701.09 -778.524)"/></g><g transform="translate(46.349 74.418)"><path class="ax" d="M562.709,489.563a13.031,13.031,0,1,1,13.18-12.879A13.03,13.03,0,0,1,562.709,489.563Z" transform="translate(-549.829 -463.503)"/><path class="ay" d="M569.395,470.048a9.349,9.349,0,1,1-13.168,12.869,11.467,11.467,0,1,0,13.168-12.869Z" transform="translate(-554.559 -468.342)"/><path class="az" d="M572.856,478.352a11.148,11.148,0,1,1-20.265,6.287,11.213,11.213,0,0,1,.186-1.912,12.511,12.511,0,1,0,20.079-4.375Z" transform="translate(-551.307 -474.482)"/><path class="ba" d="M588.972,485.088a12.667,12.667,0,0,1-17.55,17.554,12.562,12.562,0,0,0,17.55-17.554Z" transform="translate(-565.795 -479.463)"/><path class="ap" d="M567.389,480.567c-7.184-.083-11.231-2.976-11.231-5.027,0-7.185,6.737-11.233,11.53-11.233s11.232,4.347,11.232,11.532C578.92,477.7,574.573,480.65,567.389,480.567Z" transform="translate(-554.509 -464.097)"/><path class="bb" d="M572.631,475.706c-5.086,1.115-8.318.185-8.582-.938-.924-3.934,3.316-7.238,6.7-8.013s8.495.566,9.419,4.5C580.41,472.272,577.718,474.59,572.631,475.706Z" transform="translate(-560.248 -465.752)"/><path class="ar" d="M571.543,478.69c-.673.841-1.513,1.288-1.875,1s-.11-1.207.563-2.048,1.513-1.288,1.876-1S572.216,477.849,571.543,478.69Z" transform="translate(-564.375 -473.152)"/><path class="ar" d="M567.725,493.379a.75.75,0,1,1-.75-.75A.75.75,0,0,1,567.725,493.379Z" transform="translate(-561.952 -485.039)"/></g><g transform="translate(53.059)"><path class="bc" d="M582.017,190.976a6.515,6.515,0,1,1,6.59-6.44A6.515,6.515,0,0,1,582.017,190.976Z" transform="translate(-575.577 -177.945)"/><path class="bd" d="M585.36,181.218a4.675,4.675,0,1,1-6.584,6.434,5.733,5.733,0,1,0,6.584-6.434Z" transform="translate(-577.942 -180.365)"/><path class="be" d="M587.091,185.37a5.574,5.574,0,1,1-10.132,3.143,5.625,5.625,0,0,1,.093-.956,6.255,6.255,0,1,0,10.039-2.188Z" transform="translate(-576.317 -183.435)"/><path class="bf" d="M595.149,188.738a6.333,6.333,0,0,1-8.775,8.777,6.281,6.281,0,0,0,8.775-8.777Z" transform="translate(-583.56 -185.925)"/><path class="ap" d="M584.357,186.478c-3.592-.041-5.616-1.488-5.616-2.514,0-3.592,3.369-5.616,5.765-5.616a5.879,5.879,0,0,1,5.616,5.766C590.123,185.044,587.949,186.519,584.357,186.478Z" transform="translate(-577.917 -178.243)"/><path class="bg" d="M586.978,184.047c-2.543.558-4.159.092-4.291-.469-.462-1.967,1.658-3.619,3.351-4.007s4.248.283,4.71,2.25C590.868,182.33,589.522,183.489,586.978,184.047Z" transform="translate(-580.787 -179.07)"/><path class="ar" d="M586.434,185.539c-.337.421-.757.644-.938.5s-.055-.6.282-1.024.757-.644.938-.5S586.771,185.119,586.434,185.539Z" transform="translate(-582.85 -182.77)"/><path class="ar" d="M584.525,192.884a.375.375,0,1,1-.375-.375A.375.375,0,0,1,584.525,192.884Z" transform="translate(-581.639 -188.714)"/></g><g transform="translate(42.962 21.042)"><path class="bh" d="M543.269,271.72a6.515,6.515,0,1,1,6.59-6.44A6.515,6.515,0,0,1,543.269,271.72Z" transform="translate(-536.829 -258.689)"/><path class="bi" d="M546.612,261.962a4.675,4.675,0,1,1-6.584,6.434,5.733,5.733,0,1,0,6.584-6.434Z" transform="translate(-539.194 -261.109)"/><path class="bj" d="M548.343,266.114a5.574,5.574,0,1,1-10.132,3.143,5.643,5.643,0,0,1,.093-.956,6.255,6.255,0,1,0,10.039-2.188Z" transform="translate(-537.569 -264.179)"/><path class="bk" d="M556.4,269.482a6.333,6.333,0,0,1-8.775,8.777,6.281,6.281,0,0,0,8.775-8.777Z" transform="translate(-544.812 -266.669)"/><path class="ap" d="M545.609,267.222c-3.592-.042-5.615-1.488-5.615-2.514,0-3.592,3.369-5.617,5.765-5.617a5.879,5.879,0,0,1,5.616,5.766C551.375,265.788,549.2,267.263,545.609,267.222Z" transform="translate(-539.169 -258.987)"/><path class="bl" d="M548.23,264.791c-2.543.558-4.159.093-4.291-.469-.462-1.967,1.658-3.619,3.351-4.007s4.248.283,4.71,2.25C552.12,263.074,550.774,264.233,548.23,264.791Z" transform="translate(-542.039 -259.814)"/><path class="ar" d="M547.686,266.284c-.337.42-.757.644-.938.5s-.055-.6.282-1.024.757-.644.938-.5S548.023,265.863,547.686,266.284Z" transform="translate(-544.102 -263.514)"/><path class="ar" d="M545.777,273.628a.375.375,0,1,1-.375-.375A.375.375,0,0,1,545.777,273.628Z" transform="translate(-542.891 -269.458)"/></g><g transform="translate(32.809 41.537)"><path class="bm" d="M504.31,350.36a6.515,6.515,0,1,1,6.59-6.44A6.515,6.515,0,0,1,504.31,350.36Z" transform="translate(-497.87 -337.33)"/><path class="bn" d="M507.653,340.6a4.675,4.675,0,1,1-6.584,6.434,5.733,5.733,0,1,0,6.584-6.434Z" transform="translate(-500.235 -339.749)"/><path class="be" d="M509.384,344.754a5.574,5.574,0,1,1-10.133,3.143,5.646,5.646,0,0,1,.093-.956,6.255,6.255,0,1,0,10.039-2.188Z" transform="translate(-498.61 -342.819)"/><path class="bo" d="M517.441,348.123a6.334,6.334,0,0,1-8.775,8.777,6.281,6.281,0,0,0,8.775-8.777Z" transform="translate(-505.853 -345.31)"/><path class="ap" d="M506.65,345.862c-3.592-.041-5.616-1.488-5.616-2.514,0-3.592,3.368-5.617,5.765-5.617a5.879,5.879,0,0,1,5.616,5.766C512.416,344.428,510.242,345.9,506.65,345.862Z" transform="translate(-500.21 -337.627)"/><path class="bp" d="M509.271,343.431c-2.543.558-4.159.093-4.291-.469-.462-1.967,1.658-3.619,3.351-4.007s4.248.283,4.71,2.25C513.16,341.714,511.814,342.873,509.271,343.431Z" transform="translate(-503.079 -338.454)"/><path class="ar" d="M508.727,344.923c-.337.42-.756.644-.938.5s-.055-.6.282-1.024.756-.644.938-.5S509.064,344.5,508.727,344.923Z" transform="translate(-505.143 -342.155)"/><path class="ar" d="M506.818,352.268a.375.375,0,1,1-.375-.375A.375.375,0,0,1,506.818,352.268Z" transform="translate(-503.932 -348.098)"/></g><g transform="translate(73.407 41.537)"><path class="bq" d="M660.1,350.36a6.515,6.515,0,1,1,6.59-6.44A6.515,6.515,0,0,1,660.1,350.36Z" transform="translate(-653.655 -337.33)"/><path class="br" d="M663.438,340.6a4.675,4.675,0,1,1-6.584,6.434,5.734,5.734,0,1,0,6.584-6.434Z" transform="translate(-656.02 -339.749)"/><path class="be" d="M665.169,344.754a5.574,5.574,0,1,1-10.132,3.143,5.63,5.63,0,0,1,.093-.956,6.255,6.255,0,1,0,10.039-2.188Z" transform="translate(-654.395 -342.819)"/><path class="bs" d="M673.227,348.123a6.333,6.333,0,0,1-8.775,8.777,6.281,6.281,0,0,0,8.775-8.777Z" transform="translate(-661.638 -345.31)"/><path class="ap" d="M662.436,345.862c-3.591-.041-5.615-1.488-5.615-2.514,0-3.592,3.368-5.617,5.765-5.617A5.879,5.879,0,0,1,668.2,343.5C668.2,344.428,666.028,345.9,662.436,345.862Z" transform="translate(-655.996 -337.627)"/><path class="bt" d="M665.056,343.431c-2.543.558-4.159.093-4.291-.469-.462-1.967,1.658-3.619,3.351-4.007s4.247.283,4.71,2.25C668.946,341.714,667.6,342.873,665.056,343.431Z" transform="translate(-658.865 -338.454)"/><path class="ar" d="M664.513,344.923c-.337.42-.757.644-.938.5s-.055-.6.282-1.024.756-.644.937-.5S664.849,344.5,664.513,344.923Z" transform="translate(-660.929 -342.155)"/><path class="ar" d="M662.6,352.268a.375.375,0,1,1-.375-.375A.375.375,0,0,1,662.6,352.268Z" transform="translate(-659.717 -348.098)"/></g><g transform="translate(63.386 21.042)"><path class="bu" d="M621.642,271.72a6.515,6.515,0,1,1,6.59-6.44A6.515,6.515,0,0,1,621.642,271.72Z" transform="translate(-615.202 -258.689)"/><path class="bi" d="M624.985,261.962A4.675,4.675,0,1,1,618.4,268.4a5.733,5.733,0,1,0,6.584-6.434Z" transform="translate(-617.567 -261.109)"/><path class="bj" d="M626.716,266.114a5.574,5.574,0,1,1-10.133,3.143,5.674,5.674,0,0,1,.093-.956,6.255,6.255,0,1,0,10.04-2.188Z" transform="translate(-615.942 -264.179)"/><path class="bv" d="M634.774,269.482A6.333,6.333,0,0,1,626,278.259a6.281,6.281,0,0,0,8.775-8.777Z" transform="translate(-623.185 -266.669)"/><path class="ap" d="M623.983,267.222c-3.592-.042-5.616-1.488-5.616-2.514,0-3.592,3.368-5.617,5.765-5.617a5.879,5.879,0,0,1,5.616,5.766C629.748,265.788,627.574,267.263,623.983,267.222Z" transform="translate(-617.542 -258.987)"/><path class="bw" d="M626.6,264.791c-2.543.558-4.159.093-4.291-.469-.462-1.967,1.658-3.619,3.351-4.007s4.248.283,4.71,2.25C630.493,263.074,629.147,264.233,626.6,264.791Z" transform="translate(-620.412 -259.814)"/><path class="ar" d="M626.059,266.284c-.337.42-.757.644-.938.5s-.055-.6.282-1.024.757-.644.938-.5S626.4,265.863,626.059,266.284Z" transform="translate(-622.475 -263.514)"/><path class="ar" d="M624.15,273.628a.375.375,0,1,1-.375-.375A.375.375,0,0,1,624.15,273.628Z" transform="translate(-621.264 -269.458)"/></g><g transform="translate(17.878 157.721)"><path class="bx" d="M449.593,801.4a9.122,9.122,0,1,1,9.226-9.016A9.121,9.121,0,0,1,449.593,801.4Z" transform="translate(-440.578 -783.156)"/><path class="by" d="M454.274,787.738a6.545,6.545,0,1,1-9.218,9.008,8.027,8.027,0,1,0,9.218-9.008Z" transform="translate(-443.889 -786.544)"/><path class="bz" d="M456.7,793.551a7.8,7.8,0,1,1-14.186,4.4,7.879,7.879,0,0,1,.131-1.338,8.757,8.757,0,1,0,14.055-3.063Z" transform="translate(-441.612 -790.842)"/><path class="ca" d="M467.978,798.266a8.867,8.867,0,0,1-12.286,12.288,8.794,8.794,0,0,0,12.286-12.288Z" transform="translate(-451.753 -794.328)"/><path class="ap" d="M452.87,795.1c-5.029-.058-7.862-2.084-7.862-3.519,0-5.029,4.716-7.863,8.071-7.863a8.231,8.231,0,0,1,7.862,8.072C460.941,793.094,457.9,795.158,452.87,795.1Z" transform="translate(-443.853 -783.572)"/><path class="cb" d="M456.538,791.7c-3.56.781-5.823.13-6.008-.657-.647-2.753,2.321-5.066,4.692-5.609s5.947.4,6.594,3.149C461.983,789.295,460.1,790.917,456.538,791.7Z" transform="translate(-447.87 -784.731)"/><path class="ar" d="M455.777,793.787c-.471.589-1.059.9-1.313.7s-.077-.845.394-1.434,1.059-.9,1.313-.7S456.249,793.2,455.777,793.787Z" transform="translate(-450.76 -789.911)"/><path class="ar" d="M453.1,804.07a.525.525,0,1,1-.525-.525A.525.525,0,0,1,453.1,804.07Z" transform="translate(-449.064 -798.231)"/></g><g transform="translate(101.654 125.841)"><path class="cc" d="M771.06,679.065a9.122,9.122,0,1,1,9.226-9.016A9.121,9.121,0,0,1,771.06,679.065Z" transform="translate(-762.045 -660.823)"/><path class="cd" d="M775.74,665.4a6.545,6.545,0,1,1-9.218,9.008,8.027,8.027,0,1,0,9.218-9.008Z" transform="translate(-765.355 -664.211)"/><path class="ce" d="M778.163,671.218a7.8,7.8,0,1,1-14.186,4.4,7.919,7.919,0,0,1,.13-1.338,8.757,8.757,0,1,0,14.055-3.063Z" transform="translate(-763.079 -668.509)"/><path class="cf" d="M789.444,675.933a8.867,8.867,0,0,1-12.286,12.288,8.794,8.794,0,0,0,12.286-12.288Z" transform="translate(-773.219 -671.995)"/><path class="ap" d="M774.337,672.768c-5.029-.058-7.862-2.084-7.862-3.519,0-5.029,4.716-7.863,8.071-7.863a8.231,8.231,0,0,1,7.862,8.072C782.408,670.76,779.365,672.826,774.337,672.768Z" transform="translate(-765.32 -661.239)"/><path class="cg" d="M778,669.365c-3.56.781-5.823.13-6.007-.657-.647-2.753,2.321-5.066,4.692-5.609s5.947.4,6.594,3.15C783.45,666.961,781.566,668.584,778,669.365Z" transform="translate(-769.337 -662.397)"/><path class="ar" d="M777.244,671.454c-.471.589-1.059.9-1.313.7s-.077-.845.394-1.434,1.059-.9,1.313-.7S777.715,670.866,777.244,671.454Z" transform="translate(-772.226 -667.577)"/><path class="ar" d="M774.571,681.737a.525.525,0,1,1-.525-.525A.525.525,0,0,1,774.571,681.737Z" transform="translate(-770.53 -675.898)"/></g><g transform="translate(96.472 92.09)"><path class="ch" d="M751.174,549.555a9.122,9.122,0,1,1,9.226-9.015A9.122,9.122,0,0,1,751.174,549.555Z" transform="translate(-742.159 -531.313)"/><path class="ci" d="M755.854,535.895a6.545,6.545,0,1,1-9.218,9.008,8.027,8.027,0,1,0,9.218-9.008Z" transform="translate(-745.47 -534.701)"/><path class="cj" d="M758.277,541.708a7.8,7.8,0,1,1-14.186,4.4,7.9,7.9,0,0,1,.13-1.338,8.757,8.757,0,1,0,14.055-3.063Z" transform="translate(-743.193 -538.999)"/><path class="ck" d="M769.558,546.423a8.867,8.867,0,0,1-12.286,12.288,8.794,8.794,0,0,0,12.286-12.288Z" transform="translate(-753.333 -542.485)"/><path class="ap" d="M754.451,543.258c-5.029-.058-7.862-2.084-7.862-3.519,0-5.029,4.716-7.863,8.071-7.863a8.23,8.23,0,0,1,7.862,8.073C762.522,541.251,759.48,543.316,754.451,543.258Z" transform="translate(-745.434 -531.729)"/><path class="cl" d="M758.119,539.855c-3.56.781-5.823.13-6.008-.657-.646-2.753,2.321-5.066,4.692-5.609s5.947.4,6.594,3.149C763.564,537.452,761.68,539.074,758.119,539.855Z" transform="translate(-749.451 -532.888)"/><path class="ar" d="M757.358,541.944c-.471.588-1.059.9-1.313.7s-.077-.845.395-1.434,1.059-.9,1.313-.7S757.829,541.356,757.358,541.944Z" transform="translate(-752.34 -538.067)"/><path class="ar" d="M754.686,552.227a.525.525,0,1,1-.525-.525A.525.525,0,0,1,754.686,552.227Z" transform="translate(-750.645 -546.388)"/></g><g transform="translate(82.998 63.093)"><path class="cm" d="M699.472,438.289a9.122,9.122,0,1,1,9.226-9.015A9.121,9.121,0,0,1,699.472,438.289Z" transform="translate(-690.457 -420.047)"/><path class="cn" d="M704.153,424.629a6.545,6.545,0,1,1-9.218,9.008,8.027,8.027,0,1,0,9.218-9.008Z" transform="translate(-693.768 -423.435)"/><path class="co" d="M706.575,430.442a7.8,7.8,0,1,1-14.186,4.4,7.9,7.9,0,0,1,.13-1.338,8.757,8.757,0,1,0,14.056-3.063Z" transform="translate(-691.491 -427.733)"/><path class="cf" d="M717.856,435.157a8.867,8.867,0,0,1-12.286,12.288,8.794,8.794,0,0,0,12.286-12.288Z" transform="translate(-701.631 -431.219)"/><path class="ap" d="M702.749,431.992c-5.029-.058-7.862-2.084-7.862-3.519,0-5.029,4.716-7.863,8.071-7.863a8.231,8.231,0,0,1,7.862,8.072C710.82,429.985,707.778,432.049,702.749,431.992Z" transform="translate(-693.732 -420.463)"/><path class="cp" d="M706.417,428.589c-3.56.781-5.823.13-6.008-.657-.646-2.753,2.321-5.066,4.692-5.609s5.947.4,6.594,3.149C711.862,426.186,709.978,427.808,706.417,428.589Z" transform="translate(-697.749 -421.622)"/><path class="ar" d="M705.656,430.678c-.471.589-1.059.9-1.313.7s-.077-.845.394-1.434,1.059-.9,1.313-.7S706.127,430.09,705.656,430.678Z" transform="translate(-700.638 -426.802)"/><path class="ar" d="M702.984,440.961a.525.525,0,1,1-.525-.525A.525.525,0,0,1,702.984,440.961Z" transform="translate(-698.943 -435.122)"/></g><g transform="translate(72.479 101.211)"><path class="cq" d="M659.109,584.557a9.122,9.122,0,1,1,9.226-9.015A9.121,9.121,0,0,1,659.109,584.557Z" transform="translate(-650.094 -566.315)"/><path class="cr" d="M663.789,570.9a6.545,6.545,0,1,1-9.218,9.008,8.027,8.027,0,1,0,9.218-9.008Z" transform="translate(-653.404 -569.703)"/><path class="cs" d="M666.212,576.709a7.8,7.8,0,1,1-14.186,4.4,7.859,7.859,0,0,1,.13-1.338,8.757,8.757,0,1,0,14.055-3.063Z" transform="translate(-651.128 -574)"/><path class="ct" d="M677.493,581.424a8.867,8.867,0,0,1-12.286,12.288,8.794,8.794,0,0,0,12.286-12.288Z" transform="translate(-661.268 -577.486)"/><path class="ap" d="M662.385,578.26c-5.029-.058-7.862-2.084-7.862-3.519,0-5.029,4.716-7.863,8.071-7.863a8.231,8.231,0,0,1,7.862,8.073C670.456,576.252,667.414,578.316,662.385,578.26Z" transform="translate(-653.369 -566.73)"/><path class="cu" d="M666.054,574.856c-3.56.781-5.822.13-6.007-.656-.647-2.753,2.321-5.067,4.692-5.609s5.947.4,6.593,3.149C671.5,572.453,669.615,574.075,666.054,574.856Z" transform="translate(-657.386 -567.889)"/><path class="ar" d="M665.293,576.946c-.471.589-1.059.9-1.313.7s-.077-.845.394-1.434,1.059-.9,1.313-.7S665.764,576.357,665.293,576.946Z" transform="translate(-660.275 -573.069)"/><path class="ar" d="M662.62,587.228a.525.525,0,1,1-.525-.524A.525.525,0,0,1,662.62,587.228Z" transform="translate(-658.579 -581.39)"/></g><g transform="translate(3.516 95.373)"><path class="cv" d="M394.485,562.153a9.122,9.122,0,1,1,9.226-9.016A9.121,9.121,0,0,1,394.485,562.153Z" transform="translate(-385.47 -543.911)"/><path class="cw" d="M399.165,548.493a6.545,6.545,0,1,1-9.218,9.008,8.027,8.027,0,1,0,9.218-9.008Z" transform="translate(-388.78 -547.299)"/><path class="cx" d="M401.588,554.306a7.8,7.8,0,1,1-14.186,4.4,7.857,7.857,0,0,1,.13-1.338,8.757,8.757,0,1,0,14.055-3.063Z" transform="translate(-386.504 -551.597)"/><path class="cy" d="M412.869,559.02a8.867,8.867,0,0,1-12.286,12.288,8.794,8.794,0,0,0,12.286-12.288Z" transform="translate(-396.644 -555.082)"/><path class="ap" d="M397.761,555.856c-5.029-.058-7.862-2.083-7.862-3.519,0-5.029,4.716-7.863,8.071-7.863a8.23,8.23,0,0,1,7.862,8.072C405.832,553.848,402.79,555.914,397.761,555.856Z" transform="translate(-388.745 -544.327)"/><path class="cz" d="M401.43,552.453c-3.56.781-5.822.13-6.007-.656-.647-2.754,2.321-5.066,4.692-5.609s5.947.4,6.593,3.149C406.875,550.049,404.991,551.672,401.43,552.453Z" transform="translate(-392.762 -545.485)"/><path class="ar" d="M400.669,554.542c-.471.589-1.059.9-1.313.7s-.077-.845.394-1.434,1.059-.9,1.313-.7S401.14,553.953,400.669,554.542Z" transform="translate(-395.651 -550.665)"/><path class="ar" d="M398,564.825a.525.525,0,1,1-.525-.525A.525.525,0,0,1,398,564.825Z" transform="translate(-393.955 -558.986)"/></g><g transform="translate(16.004 67.012)"><path class="da" d="M442.4,453.326a9.122,9.122,0,1,1,9.226-9.015A9.121,9.121,0,0,1,442.4,453.326Z" transform="translate(-433.386 -435.084)"/><path class="db" d="M447.081,439.667a6.545,6.545,0,1,1-9.218,9.008,8.027,8.027,0,1,0,9.218-9.008Z" transform="translate(-436.696 -438.472)"/><path class="dc" d="M449.5,445.479a7.8,7.8,0,1,1-14.186,4.4,7.853,7.853,0,0,1,.13-1.338,8.757,8.757,0,1,0,14.056-3.063Z" transform="translate(-434.42 -442.77)"/><path class="dd" d="M460.785,450.194A8.867,8.867,0,0,1,448.5,462.482a8.794,8.794,0,0,0,12.286-12.288Z" transform="translate(-444.56 -446.256)"/><path class="ap" d="M445.677,447.03c-5.029-.058-7.862-2.084-7.862-3.519,0-5.029,4.716-7.863,8.071-7.863a8.231,8.231,0,0,1,7.862,8.073C453.748,445.022,450.706,447.087,445.677,447.03Z" transform="translate(-436.661 -435.5)"/><path class="de" d="M449.346,443.626c-3.56.781-5.822.13-6.007-.657-.647-2.753,2.321-5.066,4.692-5.609s5.947.4,6.593,3.149C454.791,441.223,452.907,442.845,449.346,443.626Z" transform="translate(-440.678 -436.659)"/><path class="ar" d="M448.585,445.715c-.471.589-1.059.9-1.313.7s-.077-.845.394-1.434,1.059-.9,1.313-.7S449.056,445.127,448.585,445.715Z" transform="translate(-443.567 -441.839)"/><path class="ar" d="M445.912,456a.525.525,0,1,1-.525-.525A.525.525,0,0,1,445.912,456Z" transform="translate(-441.871 -450.159)"/></g><g transform="translate(79.089 130.252)"><path class="df" d="M681.9,690.778a6.515,6.515,0,1,1,6.59-6.44A6.515,6.515,0,0,1,681.9,690.778Z" transform="translate(-675.456 -677.748)"/><path class="dg" d="M685.239,681.022a4.675,4.675,0,1,1-6.584,6.434,5.733,5.733,0,1,0,6.584-6.434Z" transform="translate(-677.821 -680.169)"/><path class="bj" d="M686.97,685.173a5.574,5.574,0,1,1-10.133,3.143,5.663,5.663,0,0,1,.093-.956,6.255,6.255,0,1,0,10.04-2.187Z" transform="translate(-676.196 -683.238)"/><path class="dh" d="M695.027,688.541a6.334,6.334,0,0,1-8.775,8.777,6.281,6.281,0,0,0,8.775-8.777Z" transform="translate(-683.439 -685.728)"/><path class="ap" d="M684.236,686.28c-3.592-.041-5.615-1.488-5.615-2.514,0-3.592,3.368-5.617,5.765-5.617A5.879,5.879,0,0,1,690,683.916C690,684.846,687.828,686.321,684.236,686.28Z" transform="translate(-677.796 -678.045)"/><path class="di" d="M686.857,683.85c-2.543.557-4.159.092-4.291-.469-.462-1.967,1.658-3.619,3.351-4.006s4.248.283,4.71,2.25C690.746,682.133,689.4,683.292,686.857,683.85Z" transform="translate(-680.665 -678.873)"/><path class="ar" d="M686.313,685.342c-.337.42-.757.644-.938.5s-.055-.6.282-1.024.757-.644.938-.5S686.65,684.921,686.313,685.342Z" transform="translate(-682.729 -682.573)"/><path class="ar" d="M684.4,692.686a.375.375,0,1,1-.375-.375A.375.375,0,0,1,684.4,692.686Z" transform="translate(-681.518 -688.516)"/></g><g transform="translate(26.909 96.1)"><path class="dj" d="M481.673,559.732a6.515,6.515,0,1,1,6.59-6.44A6.515,6.515,0,0,1,481.673,559.732Z" transform="translate(-475.233 -546.701)"/><path class="dk" d="M485.017,549.975a4.675,4.675,0,1,1-6.584,6.434,5.733,5.733,0,1,0,6.584-6.434Z" transform="translate(-477.599 -549.122)"/><path class="dl" d="M486.747,554.127a5.574,5.574,0,1,1-10.133,3.143,5.63,5.63,0,0,1,.093-.956,6.255,6.255,0,1,0,10.039-2.188Z" transform="translate(-475.973 -552.192)"/><path class="dm" d="M494.8,557.495a6.333,6.333,0,0,1-8.775,8.777,6.281,6.281,0,0,0,8.775-8.777Z" transform="translate(-483.216 -554.682)"/><path class="ap" d="M484.013,555.234c-3.592-.042-5.616-1.488-5.616-2.514,0-3.592,3.368-5.617,5.765-5.617a5.879,5.879,0,0,1,5.616,5.766C489.779,553.8,487.605,555.275,484.013,555.234Z" transform="translate(-477.573 -546.999)"/><path class="dn" d="M486.634,552.8c-2.543.558-4.159.093-4.291-.469-.462-1.966,1.658-3.619,3.351-4.006s4.248.283,4.71,2.25C490.523,551.086,489.177,552.245,486.634,552.8Z" transform="translate(-480.442 -547.826)"/><path class="ar" d="M486.09,554.3c-.337.42-.757.644-.938.5s-.055-.6.282-1.024.757-.644.937-.5S486.427,553.875,486.09,554.3Z" transform="translate(-482.506 -551.526)"/><path class="ar" d="M484.182,561.64a.375.375,0,1,1-.375-.375A.375.375,0,0,1,484.182,561.64Z" transform="translate(-481.295 -557.47)"/></g><g transform="translate(52.628 49.74)"><path class="do" d="M580.363,381.837a6.515,6.515,0,1,1,6.59-6.44A6.515,6.515,0,0,1,580.363,381.837Z" transform="translate(-573.923 -368.807)"/><path class="bi" d="M583.706,372.08a4.675,4.675,0,1,1-6.584,6.434,5.733,5.733,0,1,0,6.584-6.434Z" transform="translate(-576.288 -371.227)"/><path class="dp" d="M585.437,376.232a5.574,5.574,0,1,1-10.133,3.143,5.607,5.607,0,0,1,.093-.955,6.255,6.255,0,1,0,10.04-2.188Z" transform="translate(-574.663 -374.297)"/><path class="dq" d="M593.494,379.6a6.333,6.333,0,0,1-8.775,8.777,6.281,6.281,0,0,0,8.775-8.777Z" transform="translate(-581.906 -376.787)"/><path class="ap" d="M582.7,377.339c-3.592-.041-5.616-1.488-5.616-2.514,0-3.592,3.368-5.617,5.765-5.617a5.879,5.879,0,0,1,5.616,5.766C588.469,375.905,586.3,377.38,582.7,377.339Z" transform="translate(-576.263 -369.104)"/><path class="dr" d="M585.323,374.908c-2.543.557-4.159.092-4.291-.469-.462-1.967,1.658-3.619,3.351-4.007s4.248.283,4.71,2.25C589.213,373.192,587.867,374.35,585.323,374.908Z" transform="translate(-579.132 -369.932)"/><path class="ar" d="M584.78,376.4c-.337.42-.757.644-.938.5s-.055-.6.282-1.024.757-.644.938-.5S585.117,375.98,584.78,376.4Z" transform="translate(-581.196 -373.632)"/><path class="ar" d="M582.871,383.746a.375.375,0,1,1-.375-.375A.375.375,0,0,1,582.871,383.746Z" transform="translate(-579.985 -379.576)"/></g><g transform="translate(0 130.325)"><path class="ds" d="M380.992,696.274a9.122,9.122,0,1,1,9.226-9.015A9.122,9.122,0,0,1,380.992,696.274Z" transform="translate(-371.977 -678.032)"/><path class="dt" d="M385.673,682.614a6.545,6.545,0,1,1-9.217,9.008,8.027,8.027,0,1,0,9.217-9.008Z" transform="translate(-375.289 -681.42)"/><path class="du" d="M388.1,688.427a7.8,7.8,0,1,1-14.185,4.4,7.855,7.855,0,0,1,.13-1.338,8.757,8.757,0,1,0,14.055-3.063Z" transform="translate(-373.013 -685.718)"/><path class="dv" d="M399.377,693.142a8.867,8.867,0,0,1-12.285,12.288,8.794,8.794,0,0,0,12.285-12.288Z" transform="translate(-383.153 -689.204)"/><path class="ap" d="M384.27,689.977c-5.028-.058-7.862-2.084-7.862-3.519,0-5.029,4.716-7.863,8.071-7.863a8.23,8.23,0,0,1,7.862,8.072C392.341,687.969,389.3,690.034,384.27,689.977Z" transform="translate(-375.253 -678.448)"/><path class="dw" d="M387.938,686.574c-3.56.781-5.823.13-6.008-.657-.647-2.753,2.321-5.066,4.692-5.609s5.947.4,6.594,3.149C393.383,684.171,391.5,685.793,387.938,686.574Z" transform="translate(-379.27 -679.607)"/><path class="ar" d="M387.177,688.663c-.471.589-1.059.9-1.313.7s-.077-.845.395-1.433,1.059-.9,1.313-.7S387.649,688.074,387.177,688.663Z" transform="translate(-382.159 -684.786)"/><path class="ar" d="M384.5,698.946a.525.525,0,1,1-.525-.525A.525.525,0,0,1,384.5,698.946Z" transform="translate(-380.464 -693.107)"/></g><g transform="translate(23.09 117.534)"><path class="dx" d="M482.473,673.25a22.152,22.152,0,1,1,22.406-21.894A22.152,22.152,0,0,1,482.473,673.25Z" transform="translate(-460.577 -628.947)"/><path class="dy" d="M493.838,640.074a15.894,15.894,0,1,1-22.385,21.877,19.494,19.494,0,1,0,22.385-21.877Z" transform="translate(-468.619 -637.174)"/><path class="dz" d="M499.724,654.191a18.951,18.951,0,1,1-34.45,10.688,19.088,19.088,0,0,1,.316-3.25,21.268,21.268,0,1,0,34.133-7.438Z" transform="translate(-463.091 -647.612)"/><path class="ea" d="M527.119,665.643a21.534,21.534,0,0,1-29.835,29.842,21.356,21.356,0,0,0,29.835-29.842Z" transform="translate(-487.718 -656.08)"/><path class="ap" d="M490.43,657.957c-12.212-.141-19.093-5.06-19.093-8.546,0-12.214,11.453-19.1,19.6-19.1s19.094,7.391,19.094,19.6C510.032,653.081,502.643,658.1,490.43,657.957Z" transform="translate(-468.533 -629.959)"/><path class="eb" d="M499.34,649.691c-8.646,1.9-14.141.314-14.589-1.594-1.57-6.688,5.637-12.305,11.394-13.622s14.442.962,16.012,7.649C512.564,643.855,507.988,647.795,499.34,649.691Z" transform="translate(-478.289 -632.771)"/><path class="ar" d="M497.491,654.766c-1.145,1.43-2.573,2.189-3.189,1.7s-.187-2.053.958-3.482,2.572-2.189,3.189-1.7S498.636,653.336,497.491,654.766Z" transform="translate(-485.306 -645.352)"/><path class="ar" d="M491,679.737a1.275,1.275,0,1,1-1.275-1.275A1.275,1.275,0,0,1,491,679.737Z" transform="translate(-481.186 -665.558)"/></g></g></g></g></g></svg>