<svg xmlns="http://www.w3.org/2000/svg" xmlns:xlink="http://www.w3.org/1999/xlink" width="293" height="200" viewBox="0 0 293 200"><defs><style>.a{fill:none;}.b,.c,.d,.e,.f,.g,.h,.i,.j,.k,.l,.m,.n,.o{fill-rule:evenodd;}.b{fill:url(#a);}.c{fill:url(#b);}.d{fill:url(#c);}.e{fill:url(#f);}.f{fill:url(#g);}.g{fill:#fff;}.h{fill:url(#h);}.i{fill:#9e0e0e;}.j{fill:#420606;}.k{fill:url(#i);}.l{fill:#3b241f;}.m{fill:url(#l);}.n{fill:url(#m);}.o{fill:#e3d394;}</style><linearGradient id="a" y1="0.5" x2="1" y2="0.5" gradientUnits="objectBoundingBox"><stop offset="0" stop-color="#fc0"/><stop offset="1" stop-color="#ff7b00"/></linearGradient><linearGradient id="b" y1="0.5" x2="1" y2="0.5" gradientUnits="objectBoundingBox"><stop offset="0" stop-color="#c18557"/><stop offset="1" stop-color="#a85840"/></linearGradient><linearGradient id="c" y1="0.5" x2="1" y2="0.5" gradientUnits="objectBoundingBox"><stop offset="0" stop-color="#24211d"/><stop offset="1" stop-color="#36322f"/></linearGradient><radialGradient id="f" cx="0.5" cy="0.5" r="0.41" gradientTransform="translate(-0.349) scale(1.698 1)" gradientUnits="objectBoundingBox"><stop offset="0.566" stop-color="#fff"/><stop offset="1" stop-color="#dddddc"/></radialGradient><linearGradient id="g" y1="0.5" x2="1" y2="0.5" gradientUnits="objectBoundingBox"><stop offset="0" stop-color="#c41d1d"/><stop offset="1" stop-color="#b00f0f"/></linearGradient><radialGradient id="h" cx="0.222" cy="-0.129" r="1.183" gradientTransform="translate(0.202) scale(0.596 1)" gradientUnits="objectBoundingBox"><stop offset="0" stop-color="#eb493d"/><stop offset="1" stop-color="#b00f0f"/></radialGradient><linearGradient id="i" y1="0.5" x2="1" y2="0.5" gradientUnits="objectBoundingBox"><stop offset="0" stop-color="#6e3929"/><stop offset="1" stop-color="#874733"/></linearGradient><linearGradient id="l" x1="0" y1="0.5" x2="1" y2="0.5" xlink:href="#i"/><linearGradient id="m" x1="0" y1="0.5" x2="1" y2="0.5" xlink:href="#i"/></defs><g transform="translate(-780 -357.551)"><rect class="a" width="293" height="200" transform="translate(780 357.551)"/><g transform="translate(505.258 132.59)"><path class="b" d="M392.605,336.682l-15.6.624-2.408,7.044.179-6.419-4.1-11.234,4.458,6.064.178-9.094,2.229,11.412,16.671-.98Z" transform="translate(8.996 21.311)"/><path class="c" d="M387.069,233.893l-5.706,47.251,1.338,48.5,4.368,29.775-.535,56.613c-19.434-4.635-34.858-11.411-52.956-22.288l-.8-143.178c10.074-.536,17.74-4.369,26.567-8.915S377.441,235.14,387.069,233.893Z" transform="translate(0 0)"/><path class="d" d="M417.277,344.415l14,16.405c6.063,7.131,10.253,12.657-1.872,7.31,4.9,16.225-1.693,7.934-9.9-1.159-4.368,13.283-6.6-9.451-8.559-17.3Z" transform="translate(18.557 26.237)"/><path class="b" d="M398.237,344.555l-23.09.892-2.5,7.042.178-6.418-4.1-11.233,4.458,6.061.178-9.093,2.229,11.411,24.338-1.248Z" transform="translate(8.535 23.244)"/><path class="d" d="M397.163,308.021c-40.831,19.436,12.927,68.737,34.324,56.255,3.655-16.85,11.055-27.548-4.012-60.712Z" transform="translate(11.748 16.539)"/><path class="e" d="M403.058,312.344a52.917,52.917,0,0,0-3.477,18.634l-1.428-1.873c.714,13.194,8.559,27.9,14.532,33.7-16.046-4.191-24.249-12.661-29.241-25.5l-.8,2.23c-1.872-6.062-3.388-11.412-1.249-17.652l-.891-.088c4.9-7.134,8.915-10.966,14-13.91Z" transform="translate(11.293 17.565)"/><path class="f" d="M423.179,298.16a48.246,48.246,0,0,1,11.858,15.246l-7.4-5.8a16.892,16.892,0,0,1-.444,10.164c-6.865-3.655-11.631-4.953-15.513-5.438-.417,3.561-2.615,9.829-5.577,14.888-6.462-2.61-11.775-7.544-14.661-10.431l-10.609,4.993a40.124,40.124,0,0,1,7.043-13.372Z" transform="translate(11.408 15.256)"/><path class="g" d="M352.373,308.772l.357-16.048,2.318,7.043,6.062-10.253-2.5,14.533,3.922-3.478-.624,5.707,11.322,5.26h-9.361l.446.535,9.717,14-14-8.47-3.209,6.418L353,311.713Z" transform="translate(4.652 13.204)"/><path class="h" d="M490.1,268.077c-12.456,2.116-19.979,12.991-24.688,19.9-20.8,30.505-46.164,51.25-92.036,19.116,10.075-59.375,61.481-58.519,103.606-59.317a103.085,103.085,0,0,0-16.579,6.739,73.34,73.34,0,0,1,39.669-.677c-16,2.835-33.444,14.919-33.444,14.919S480.226,263.847,490.1,268.077Z" transform="translate(9.637 3.295)"/><path class="i" d="M383.946,288.229c2.665-5.833,9.459-9.32,13.981-11.923C379.087,276.306,379.97,284.8,383.946,288.229Z" transform="translate(11.594 10.068)"/><path class="j" d="M387.858,295.336c-11.219-11.219,11.029-18.891,19.624-10.3C398.048,283.5,385.592,286.314,387.858,295.336Z" transform="translate(12.341 11.266)"/><path class="i" d="M424.083,310.118c-9.492,0-13.729-1.138-16.562-3.1,23.148,0,44.649-14.818,54.517-25.573-18.633,26.924-41.1,45.468-78.72,25.319C393.864,310.408,413.107,312.865,424.083,310.118Z" transform="translate(11.998 11.288)"/><path class="k" d="M333.578,391.177,332.776,248a45.029,45.029,0,0,0,14.621-3.3c-1.694,41.544-1.427,86.477,3.209,127.754l2.141-31.56c2.941,12.482,5.884,24.874,9.181,37.266l4.815-7.934c1.07,8.647,1.961,26.121,2.407,38.156A196.342,196.342,0,0,1,333.578,391.177Z" transform="translate(0 2.565)"/><path class="k" d="M354.217,258.028c2.585,0,4.724,4.014,4.724,9.006s-2.139,9-4.724,9-4.726-4.013-4.726-9S351.63,258.028,354.217,258.028Z" transform="translate(3.968 5.729)"/><path class="l" d="M352.79,275.629c-1.872-1.159-3.3-4.635-3.3-8.647,0-4.28,1.516-7.757,3.566-8.737,1.961,1.069,3.388,4.546,3.388,8.559C356.445,271.083,354.84,274.649,352.79,275.629Z" transform="translate(3.968 5.781)"/><path class="k" d="M361.048,278.059c1.338,0,2.408,2.139,2.408,4.635,0,2.586-1.07,4.635-2.408,4.635s-2.407-2.049-2.407-4.635C358.641,280.2,359.71,278.059,361.048,278.059Z" transform="translate(6.14 10.484)"/><path class="l" d="M360.336,287.117c-.981-.533-1.7-2.318-1.7-4.457s.8-4.012,1.872-4.457c.981.535,1.694,2.318,1.694,4.457S361.405,286.584,360.336,287.117Z" transform="translate(6.14 10.519)"/><path class="m" d="M367.749,249.96c1.338,0,2.407,2.05,2.407,4.635,0,2.5-1.069,4.635-2.407,4.635s-2.408-2.139-2.408-4.635C365.341,252.01,366.411,249.96,367.749,249.96Z" transform="translate(7.731 3.814)"/><path class="l" d="M367.036,258.946c-.981-.535-1.7-2.318-1.7-4.368,0-2.229.714-4.012,1.784-4.547.981.625,1.693,2.319,1.693,4.458S368.107,258.5,367.036,258.946Z" transform="translate(7.731 3.831)"/><path class="n" d="M360.008,326.475c2.05,0,3.743,3.209,3.743,7.132,0,4.012-1.693,7.22-3.743,7.22s-3.744-3.209-3.744-7.22C356.264,329.684,357.958,326.475,360.008,326.475Z" transform="translate(5.576 21.978)"/><path class="l" d="M358.848,340.421c-1.515-.892-2.584-3.566-2.584-6.865s1.159-6.151,2.852-6.865c1.516.892,2.586,3.566,2.586,6.776C361.7,336.855,360.543,339.619,358.848,340.421Z" transform="translate(5.576 22.029)"/><path class="b" d="M385.818,303.007c-4.406-.672-14.543-.233-26.808,2.137,8.323-8.074,14.5-14.283,19.406-15.7C378.948,293.885,382.509,299.7,385.818,303.007Z" transform="translate(6.228 13.187)"/><path class="o" d="M357.719,304.953a70.415,70.415,0,0,1,8.06-1.36c-3.063.781-6.74,1.788-10.913,3.142,4.322-5.087,5.9-6.775,8.333-9.2C361.7,299.735,359.765,302.237,357.719,304.953Z" transform="translate(5.244 15.107)"/></g></g></svg>