<svg xmlns="http://www.w3.org/2000/svg" width="293" height="200" viewBox="0 0 293 200"><defs><style>.a{fill:none;}.b{fill:#38a9bd;}.c{fill:#3fa9f5;}.d{fill:#68c5d5;}.e{fill:#74c251;}.f{fill:#8bc251;}.g{fill:#9dcc60;}.h,.i{fill:#00b4d5;}.h{opacity:0.21;}.h,.i,.j,.n{mix-blend-mode:multiply;isolation:isolate;}.i{opacity:0.35;}.j{fill:#667a85;opacity:0.48;}.k{fill:#f09c26;}.l,.n{fill:#f7be29;}.m{fill:#fcee21;}.n{opacity:0.2;}</style></defs><g transform="translate(-780 -357.551)"><rect class="a" width="293" height="200" transform="translate(780 357.551)"/><g transform="translate(807.389 308.371)"><g transform="translate(179.198 163.875)"><g transform="translate(0 0)"><path class="b" d="M815.664,682.24a34.993,34.993,0,0,1-4.752,17.619,34.632,34.632,0,0,1-2.551,3.818,37.475,37.475,0,0,1-12.948,10.7,38.821,38.821,0,0,1-17.527,4.136c-.314,0-.628,0-.938-.012a1.174,1.174,0,0,1-.121,0c-.3,0-.591-.016-.885-.032-.265-.012-.527-.028-.789-.048-.129,0-.257-.016-.386-.028-.25-.016-.5-.04-.745-.065-.229-.02-.463-.044-.692-.072-.153-.016-.306-.036-.459-.056-.245-.032-.495-.064-.74-.1-.29-.04-.575-.089-.865-.137-.072-.012-.145-.024-.213-.04-.173-.028-.35-.06-.523-.093-.189-.036-.382-.072-.571-.113l-.113-.024c-.209-.044-.418-.089-.628-.137-.531-.117-1.054-.245-1.573-.39-.25-.064-.5-.137-.749-.209s-.495-.145-.74-.225c-.221-.068-.443-.141-.66-.213-.056-.016-.113-.036-.169-.056-.213-.072-.427-.145-.636-.221-.487-.169-.966-.354-1.436-.543q-.374-.151-.748-.314l-.447-.193c-.342-.153-.684-.31-1.018-.471-.193-.089-.378-.181-.567-.278-.229-.113-.451-.226-.676-.346q-1.2-.628-2.35-1.34c-.169-.1-.334-.205-.5-.314-.137-.084-.27-.053-.4-.142a11.54,11.54,0,0,0-1.839-1.172h0c-8.884-7.111-14.6-17.12-14.6-28.764a35.216,35.216,0,0,1,4.487-17.221,36.606,36.606,0,0,1,6.277-8.222c.765-.753,1.561-1.488,2.39-2.168.5-.418,1.018-.828,1.541-1.215a38.236,38.236,0,0,1,15.25-6.78l.612-.122a39.53,39.53,0,0,1,18.328.928c.338.1.672.2,1,.31s.66.221.99.338.644.233.966.358c.008,0,.02,0,.028.008.318.125.632.254.946.382s.636.27.95.411q.941.422,1.859.9.459.235.905.483c.6.326,1.187.668,1.766,1.034.861.535,1.7,1.1,2.515,1.706a.073.073,0,0,0,.028.02c.266.2.531.4.789.6s.531.422.789.636.519.435.773.656.5.447.752.676.491.459.732.692.479.471.712.712.463.483.692.732.447.491.664.74c.008,0,.012.012.024.024.213.245.427.495.632.749.2.237.394.479.584.724.036.044.072.092.109.141.185.237.366.479.547.72a.236.236,0,0,1,.024.032c.189.257.374.519.559.784s.378.551.563.833c.2.31.4.624.591.942.157.253.31.511.458.768.185.314.362.636.535.958.109.205.217.41.322.616.068.129.133.261.2.39.1.205.2.41.3.62.157.334.31.672.459,1.01a34.9,34.9,0,0,1,2.909,13.974Z" transform="translate(-740.108 -645.968)"/><path class="c" d="M819.381,687.323a33.527,33.527,0,0,1-4.554,16.885,33.252,33.252,0,0,1-2.444,3.659,35.914,35.914,0,0,1-12.408,10.253,37.2,37.2,0,0,1-16.8,3.964c-.3,0-.6,0-.9-.012-.038,0-.077,0-.116,0-.285,0-.566-.016-.848-.031-.255-.012-.505-.027-.756-.046-.123,0-.247-.015-.37-.027-.239-.016-.478-.039-.713-.062-.22-.019-.443-.042-.663-.07-.147-.015-.293-.035-.439-.054-.235-.031-.474-.062-.71-.1-.278-.039-.551-.085-.829-.131-.069-.012-.139-.023-.2-.039-.166-.027-.335-.058-.5-.089-.181-.035-.366-.069-.548-.108l-.108-.023c-.2-.043-.4-.085-.6-.131-.509-.112-1.01-.235-1.508-.374-.239-.062-.478-.131-.717-.2s-.474-.139-.709-.216c-.212-.066-.424-.135-.632-.2-.054-.015-.108-.035-.162-.054-.2-.07-.409-.139-.609-.212-.467-.162-.926-.339-1.377-.52q-.358-.144-.717-.3l-.428-.185c-.328-.147-.655-.3-.975-.451-.185-.085-.363-.174-.544-.266-.22-.108-.432-.216-.648-.332q-1.151-.6-2.252-1.284c-.162-.1-.32-.2-.478-.3-.131-.081-.259-.022-.386-.107a11.476,11.476,0,0,0-1.762-1.094h0c-8.513-6.652-13.989-16.434-13.989-27.593a33.8,33.8,0,0,1,4.3-16.517,35.12,35.12,0,0,1,6.015-7.886c.733-.721,1.5-1.429,2.29-2.081.482-.4.976-.8,1.477-1.166a36.641,36.641,0,0,1,14.614-6.5l.586-.118a37.883,37.883,0,0,1,17.563.889c.324.1.644.193.96.3s.632.212.949.324.617.223.925.343c.008,0,.019,0,.027.008.3.119.605.243.906.366s.609.258.91.393q.9.4,1.781.86.439.226.868.463c.574.312,1.137.64,1.693.991.825.513,1.631,1.056,2.41,1.635a.069.069,0,0,0,.027.019c.254.193.509.382.756.578s.509.4.756.609.5.416.74.628.482.428.721.648.47.44.7.663.459.451.682.682.443.463.663.7.428.47.636.709c.008,0,.011.012.023.023.2.235.409.474.605.717.189.227.378.459.559.694.035.042.069.089.1.135.178.227.351.459.524.69a.194.194,0,0,1,.023.031c.181.247.359.5.536.752s.362.528.54.8c.193.3.385.6.567.9.15.243.3.49.439.736.177.3.347.609.513.918.1.2.208.393.309.59.066.123.127.251.189.374.1.2.193.393.289.594.15.32.3.644.44.968a33.445,33.445,0,0,1,2.788,13.391Z" transform="translate(-745.4 -651.051)"/><path class="d" d="M819.381,687.323a33.527,33.527,0,0,1-4.554,16.885,33.252,33.252,0,0,1-2.444,3.659,35.914,35.914,0,0,1-12.408,10.253,37.2,37.2,0,0,1-16.8,3.964c-.3,0-.6,0-.9-.012-.038,0-.077,0-.116,0-.285,0-.566-.016-.848-.031-.255-.012-.505-.027-.756-.046-.123,0-.247-.015-.37-.027-.239-.016-.478-.039-.713-.062-.22-.019-.443-.042-.663-.07-.147-.015-.293-.035-.439-.054-.235-.031-.474-.062-.71-.1-.278-.039-.551-.085-.829-.131-.069-.012-.139-.023-.2-.039-.166-.027-.335-.058-.5-.089-.181-.035-.366-.069-.548-.108l-.108-.023c-.2-.043-.4-.085-.6-.131-.509-.112-1.01-.235-1.508-.374-.239-.062-.478-.131-.717-.2s-.474-.139-.709-.216c-.212-.066-.424-.135-.632-.2-.054-.015-.108-.035-.162-.054-.2-.07-.409-.139-.609-.212-.467-.162-.926-.339-1.377-.52q-.358-.144-.717-.3l-.428-.185c-.328-.147-.655-.3-.975-.451-.185-.085-.363-.174-.544-.266-.22-.108-.432-.216-.648-.332q-1.151-.6-2.252-1.284c-.162-.1-.32-.2-.478-.3-.131-.081-.259-.022-.386-.107a11.476,11.476,0,0,0-1.762-1.094h0c-8.513-6.652-13.989-16.434-13.989-27.593a33.8,33.8,0,0,1,4.3-16.517,35.12,35.12,0,0,1,6.015-7.886c.733-.721,1.5-1.429,2.29-2.081.482-.4.976-.8,1.477-1.166a36.641,36.641,0,0,1,14.614-6.5l.586-.118a37.883,37.883,0,0,1,17.563.889c.324.1.644.193.96.3s.632.212.949.324.617.223.925.343c.008,0,.019,0,.027.008.3.119.605.243.906.366s.609.258.91.393q.9.4,1.781.86.439.226.868.463c.574.312,1.137.64,1.693.991.825.513,1.631,1.056,2.41,1.635a.069.069,0,0,0,.027.019c.254.193.509.382.756.578s.509.4.756.609.5.416.74.628.482.428.721.648.47.44.7.663.459.451.682.682.443.463.663.7.428.47.636.709c.008,0,.011.012.023.023.2.235.409.474.605.717.189.227.378.459.559.694.035.042.069.089.1.135.178.227.351.459.524.69a.194.194,0,0,1,.023.031c.181.247.359.5.536.752s.362.528.54.8c.193.3.385.6.567.9.15.243.3.49.439.736.177.3.347.609.513.918.1.2.208.393.309.59.066.123.127.251.189.374.1.2.193.393.289.594.15.32.3.644.44.968a33.445,33.445,0,0,1,2.788,13.391Z" transform="translate(-745.4 -651.051)"/><g transform="translate(3.171 2.148)"><path class="e" d="M798.733,815.135a.92.92,0,0,0-.478-.112.75.75,0,0,0-.4.3L795.7,817.86c.245.495.988.341,1.474.08a11.544,11.544,0,0,0,3.31-2.673.582.582,0,0,0-.224-.175A2.021,2.021,0,0,1,798.733,815.135Z" transform="translate(-786.121 -778.385)"/><path class="e" d="M798.733,815.135a.92.92,0,0,0-.478-.112.75.75,0,0,0-.4.3L795.7,817.86c.245.495.988.341,1.474.08a11.544,11.544,0,0,0,3.31-2.673.582.582,0,0,0-.224-.175A2.021,2.021,0,0,1,798.733,815.135Z" transform="translate(-786.121 -778.385)"/><path class="e" d="M814.418,814.833a.575.575,0,0,1,.267.051,1.886,1.886,0,0,0,.264-.139Z" transform="translate(-800.543 -778.176)"/><path class="e" d="M814.418,814.833a.575.575,0,0,1,.267.051,1.886,1.886,0,0,0,.264-.139Z" transform="translate(-800.543 -778.176)"/><path class="e" d="M824.351,684.343a16.515,16.515,0,0,1-3.235,1.492,3.436,3.436,0,0,0-1.458,1.149,1.713,1.713,0,0,0-.119.2c-.189.359-.278.763-.478,1.114-.794,1.423-2.213,3.042-3.837,2.9-1.65-.139.324-3.25,1.4-4.507a22.2,22.2,0,0,1,2.017-2.41v0a8.788,8.788,0,0,0,.694-1.77,5.02,5.02,0,0,1-.833.046h-.008s-.011.035-.015.035a40.239,40.239,0,0,1-4.033.79c-1.735.3-3.64.744-4.7,2.159.667.4,1.338.829,2,1.234a.979.979,0,0,1,.328.287.944.944,0,0,1-.077.837c-.42.98-.84,1.963-1.261,2.943a1.232,1.232,0,0,1-.806-.933.723.723,0,0,1-.019-.127c-.046.092-.1.185-.15.274a3.343,3.343,0,0,1-2.545,1.577c-.59.046-1.184-.069-1.77.008-.008,0-.019,0-.027,0a1.71,1.71,0,0,0-1.079.57.977.977,0,0,0-.2.432c-.131.7.3,1.808-.412,1.893-.474-.027-.675-.64-.609-1.111a9.159,9.159,0,0,0,.162-.991l-2.7.343a25.749,25.749,0,0,1-.694,2.526c-.031.058-.062.12-.1.173l0-.132a1.718,1.718,0,0,1-1.311.971h-.008a2.994,2.994,0,0,1-3.258-.35,4.252,4.252,0,0,0-.644-.541c-.012-.008-.023.007-.039,0a.749.749,0,0,0-.208-.051c-.023,0-.042.026-.066.026h0c-.046,0-.093-.042-.143-.042a.943.943,0,0,0-.837.579.337.337,0,0,0-.019.043l-.073,0v0c0,.243-.082.524-.082.779,0,.632.133,1.361-.307,1.816-.725.744-2.369.193-2.735,1.164a3.351,3.351,0,0,1-.483-1.785c-.682.046-1.045.844-1.068,1.527a6.3,6.3,0,0,1-.089,2.036,7.834,7.834,0,0,1-1.084,1.488c-.351.509-.49,1.292-.008,1.677a.7.7,0,0,1-.98-.123,1.964,1.964,0,0,1-.362-1.03,8.382,8.382,0,0,1,.008-3.864,18.441,18.441,0,0,1,1.855-3.181,7.621,7.621,0,0,0,.937-4.45.953.953,0,0,0-.073-.308c-.181-.4-.725-.386-1.161-.34a7.9,7.9,0,0,0-3.412,1.26h0l0-.092a.388.388,0,0,1-.07-.04c-.023-.012,0-.024-.007-.028a.245.245,0,0,0-.049,0v.165h.075c-.042,0-.085.058-.135.139-.012.016-.019-.005-.031.01,0,0-.008,0-.011,0s0,0-.008,0c-.467.741-1.172,1.839-1.885,1.847-1.353.012-1.014-3.008-.6-4.3s1.477-2.217,1.353-3.567a4.46,4.46,0,0,0-.32-1.276,11.975,11.975,0,0,0-1.889-2.8,8.512,8.512,0,0,1-2-3.451,3.192,3.192,0,0,0-.185.756,3.452,3.452,0,0,0,.378,2.09,5.522,5.522,0,0,1,.463,1.014c.139.455.135.875-.266,1.072a1.2,1.2,0,0,1-.813,0q-1.671-.382-3.343-.771c-.382-.089-.941-.077-1.357-.208a.724.724,0,0,1-.5-.386c-.231-.544.3-1.322.613-1.966a3,3,0,0,0,.166-.409c.335-1.118-.089-2.437-.011-3.563-.081.012-.158.031-.239.039a1.9,1.9,0,0,1-.628-.011,6.173,6.173,0,0,0,0,.756c.039.736.162,1.492.131,2.221a3.514,3.514,0,0,1-.2,1.11,4.464,4.464,0,0,0-.466,1.38c-.023,1.342,1.862,1.824,2.468,3.023-2.017,1.693-4.855,1.893-7.484,2.017a5.7,5.7,0,0,1-1.731,3.058,2.594,2.594,0,0,1-3.273.093c-.166.96-1.284,1.373-2.229,1.6l-1.6.393a6.767,6.767,0,0,1-2.46.3,2.313,2.313,0,0,1-1.94-1.357c-.7-1.909,2.067-3.37,2.36-5.379a9.816,9.816,0,0,1,.143-1.758c.517-1.523,3.061-1.781,3.227-3.382.046-.459-.135-.922-.069-1.377.093-.609.6-1.064.86-1.62s.066-1.45-.551-1.442c.1-.339.2-.679.3-1.014a7.067,7.067,0,0,1-3.451-2.194,3.8,3.8,0,0,1-.227-.316c.52-.929,1.083-1.835,1.689-2.711a35.281,35.281,0,0,1,4.326-5.14c1.97-.046,3.848.91,5.61,1.836a2.36,2.36,0,0,1,.74.52,2.894,2.894,0,0,1,.393,1.716,6.213,6.213,0,0,0,1.211,3.277c.262-.289.528-.574.791-.86,1.2.555,1.858,2.626,2.433,3.817a3.3,3.3,0,0,0,.436-.011c.563-.586,1.531-.879,1.693-1.677a4.716,4.716,0,0,1-1.631-4.388c-.517.517-.922,1.916-1.546,1.546-1.666-.991,1.82-4.658-.116-4.515-1.454.108.216,2.437-1.1,3.081-.575.281-.709-1.037-.605-1.662a7.332,7.332,0,0,0,.32-1.87,1.913,1.913,0,0,0-2.583-1.481,6.874,6.874,0,0,1-1.091.582,1.806,1.806,0,0,1-.837-.011,2.231,2.231,0,0,1-1.832-1.658,1.019,1.019,0,0,1,0-.3l1.477-1.157a.676.676,0,0,1,.139.05c.679.336,1.068,1.427,1.789,1.207,1.026-.312,0-2.387.983-2.8a1.584,1.584,0,0,0,2.429.455c.088-.089.173-.193.266-.281a.651.651,0,0,1,.471-.247.848.848,0,0,1,.517.27l.914.787c.3.258.613.524.941.756a3.833,3.833,0,0,0,1.639.741,2.2,2.2,0,0,0,1.369-.251,1.519,1.519,0,0,0,.868-1.23,3.158,3.158,0,0,1,1.65,1.311.84.84,0,0,0,.732-.567c-.717-.05-1.08-.995-.825-1.666s1.515-.8,1.488-1.519c-.035-1-1.932.208-2.595.956s-1.365,1.666-2.364,1.7c-.887-.436.355-1.566-.12-2.429-.178-.324-.775.081-1.107.239a1.631,1.631,0,0,1-.69-.975.981.981,0,0,1,.609-1.145,1.768,1.768,0,0,1,.833.089,4.518,4.518,0,0,0,4.677-1.936l.586-.116a2.49,2.49,0,0,0,1.943.74c.37-.031.787-.135,1.091.081.339.239.343.725.474,1.122a3.817,3.817,0,0,0,1.322,1.523,2.3,2.3,0,0,1,1,1.7c-.027.679-.956,1.245-1.415.744-.362-.4-.289-1.23-.821-1.3a1.626,1.626,0,0,0-.339,2.441c.671.675,1.581.081,2.448-.316,1.346-.613,3.2,1.955,4.33,1,.4-.339,0-1.45.524-1.423.91.046.76,2.121,1.67,2.159,1.157.05,1.076-2.711,2.229-2.664.613.023.27,1.176.285,1.789s.266,1.346.867,1.465c.76.151,1.257-.756,1.492-1.5.386.466,1.153.123,1.562-.324s.837-1.03,1.442-.983c.386.027.71.32,1.1.362.629.07,1.1-.532,1.55-.979s1.3-.744,1.643-.212a1.617,1.617,0,0,1,.154.748,2.777,2.777,0,0,0,1.7,2.286,26.967,26.967,0,0,0-1.839,2.352c.089.44.748.181,1.2.189.617.015.949.7,1.346,1.172s1.384.609,1.45,0c1.673.227.59,3.7,2.225,4.122.435-.351.871-.706,1.307-1.056a3.74,3.74,0,0,1,1.145.779c.274-.347.378-1.018.818-1.041.7-.035.971,1.006,1.457,1.511a3.811,3.811,0,0,0,2.055.837c1.153.285,1.38,1.936,2.074,2.9a1.2,1.2,0,0,0,.517.486.642.642,0,0,0,.339.027A33.208,33.208,0,0,1,824.351,684.343Z" transform="translate(-753.932 -655.332)"/><path class="f" d="M790.813,706.32a4.594,4.594,0,0,1,.167-1.651,3.932,3.932,0,0,1,.259-.6c0,.007,0,.015,0,.022-.008.272.007.521.021.76a2.609,2.609,0,0,1-.037.91A2.375,2.375,0,0,1,790.813,706.32Zm3.822-4.959-1.251.085a2.056,2.056,0,0,0-.568.119,8.819,8.819,0,0,0,1.007-5,2.1,2.1,0,0,0-.167-.663,1.862,1.862,0,0,0-1.857-1.054,4.626,4.626,0,0,0-.484.028,7.733,7.733,0,0,0-3.348,1.3c-.065,0-.12.2-.161.2h-1.289v.711c0,.228-.288.52-.473.743a7.2,7.2,0,0,1,.328-2.49,6.257,6.257,0,0,1,.562-1.126,4.76,4.76,0,0,0,.864-2.9,5.645,5.645,0,0,0-.4-1.609,12.148,12.148,0,0,0-1.937-2.942l-.12-.15a7.539,7.539,0,0,1-1.769-2.966l-.817-3.836-1.4,3.665a4.339,4.339,0,0,0-.252,1.03,4.61,4.61,0,0,0,.508,2.776c.041.075.1.179.158.295-.952-.219-1.9-.437-2.838-.656a5.626,5.626,0,0,0-.711-.1l-.171-.018c.069-.143.149-.3.21-.41.071-.135.141-.266.2-.394a4.2,4.2,0,0,0,.235-.583,6.639,6.639,0,0,0,.1-2.615,7.659,7.659,0,0,1-.062-1.2l.031-.46.223-.232a3.6,3.6,0,0,1,.509-.39,3.018,3.018,0,0,0,1.484-1.859l.139-.685-.542-.442a3.557,3.557,0,0,1-1.222-3.289l.64-3.617-1.885,1.885a2.057,2.057,0,0,0-.058-1.917,1.593,1.593,0,0,0-1.394-.683c-.059,0-.123,0-.19.007a2.3,2.3,0,0,0-.259.034,3.129,3.129,0,0,0-2.492-2.079,3.163,3.163,0,0,0,.173-.928,2.909,2.909,0,0,0,.749.1,2.577,2.577,0,0,0,1.784-.684l.636.548c.351.3.671.571,1.029.824a4.916,4.916,0,0,0,2.129.938,3.208,3.208,0,0,0,.482.036,3.35,3.35,0,0,0,1.625-.419,2.9,2.9,0,0,0,.77-.589,1.912,1.912,0,0,1,.2.269l.363.586.688-.041a1.991,1.991,0,0,0,1.765-1.368l.451-1.4-1.3-.091a.335.335,0,0,1-.006-.047c.074-.052.19-.121.274-.171a2.107,2.107,0,0,0,1.294-1.868,1.5,1.5,0,0,0-1.533-1.494,2.532,2.532,0,0,0-.906.194,5.651,5.651,0,0,0,1.013-.895,3.625,3.625,0,0,0,1.863.521c.091,0,.183,0,.274-.011s.164-.016.246-.026h.011c.034.149.07.3.117.439a3.31,3.31,0,0,0,.756,1.217l-.138.079a2.779,2.779,0,0,0-.592,4.26,2.145,2.145,0,0,0,1.551.65,4.365,4.365,0,0,0,1.879-.574c.108-.052.216-.1.323-.154a4.431,4.431,0,0,1,1.1.529,4.418,4.418,0,0,0,2.154.79,2.046,2.046,0,0,0,1.261-.426,1.76,1.76,0,0,0,1.477.946l.08,0a1.847,1.847,0,0,0,1.551-.849,2.159,2.159,0,0,0,1.574,1.417,2.044,2.044,0,0,0,.391.039,2.32,2.32,0,0,0,1.981-1.3,2.824,2.824,0,0,0,1.762-.917l.16-.178a4.354,4.354,0,0,1,.391-.4l.114.052a2.783,2.783,0,0,0,.892.28,2.061,2.061,0,0,0,.226.013,2.976,2.976,0,0,0,2.092-1.144l.044-.046a3.963,3.963,0,0,0,1.109,2.1q-.582.729-1.09,1.462l-.281.4.1.483a1.488,1.488,0,0,0,1.546,1.185,4.005,4.005,0,0,0,.53-.044l.128-.017a4.413,4.413,0,0,1,.284.36c.1.135.2.268.3.391a2.386,2.386,0,0,0,1.79.821,1.956,1.956,0,0,0,.421-.045c.047.222.085.477.113.666.159,1.055.4,2.651,1.947,3.052l.563.147,1.141-.921a2.553,2.553,0,0,1,.221.2l.92.919.806-1.021c.02-.026.04-.051.058-.077a3.793,3.793,0,0,0,.475.633,4.111,4.111,0,0,0,2.259,1.077c.117.026.235.052.354.081.218.054.5.675.7,1.129a7.435,7.435,0,0,0,.708,1.323,2.312,2.312,0,0,0,.975.864,32.094,32.094,0,0,1,1.953,6.688,12.309,12.309,0,0,1-1.184.488c-.423.158-.859.322-1.283.524a4.6,4.6,0,0,0-1.925,1.557,2.632,2.632,0,0,0-.187.314,5.42,5.42,0,0,0-.273.643,3.134,3.134,0,0,1-.176.417,5.046,5.046,0,0,1-2.16,2.238,10.815,10.815,0,0,1,1.592-2.518c.259-.307.5-.606.744-.907.384-.475.673-.966,1.134-1.481l.188-.329v-.095a3.735,3.735,0,0,0,.792-1.868l.377-1.647-1.627.372a4.817,4.817,0,0,1-.6.149h-.183l-.156-.041a24.346,24.346,0,0,1-2.813.52c-.369.059-.738.1-1.107.162-1.937.34-4.116.839-5.421,2.587l-.765,1.019,1.1.656q.424.255.849.518l-1.118,2.205c-.032.065-.067.128-.1.19a2.189,2.189,0,0,1-1.647,1.024c-.075.006-.15.008-.224.008-.147,0-.294-.007-.441-.014-.182-.008-.365-.081-.548-.081s-.369-.037-.536-.037h-.043l-.091.081a3,3,0,0,0-1.553.751l-3.962.519-.241.67a8.6,8.6,0,0,0-.329,1.277,6.429,6.429,0,0,1-.25.983l-.123.238c-.177.3-.328.3-.4.527h-.121l-.2.038a2.965,2.965,0,0,1-1,.166,1.518,1.518,0,0,1-1.059-.365l-.124-.128a4.23,4.23,0,0,0-.7-.605c-.038-.025-.074-.047-.112-.069a1.943,1.943,0,0,0-.472-.2,1.252,1.252,0,0,0-.309-.053,1.728,1.728,0,0,0-.2-.013,2.023,2.023,0,0,0-1.486.676l-.589.032v1.1c0,.04-.025.147-.035.217a3.779,3.779,0,0,0-.056.565c0,.134,0,.272.008.411a3.315,3.315,0,0,1-.011.612,3.77,3.77,0,0,1-.658.124c-.163.022-.351.047-.55.088C794.619,702.63,794.635,701.361,794.635,701.361Zm-34.289-4.995a2.592,2.592,0,0,1-.322-.019,1.216,1.216,0,0,1-1-.606c-.161-.44.169-.941.906-1.9a6.437,6.437,0,0,0,1.511-2.913,5.919,5.919,0,0,0,.045-.888,2.443,2.443,0,0,1,.049-.668c.112-.329.637-.658,1.144-.977a3.743,3.743,0,0,0,2.138-2.656,3.862,3.862,0,0,0-.042-.938,2.01,2.01,0,0,1-.033-.392,2.091,2.091,0,0,1,.307-.536,5.445,5.445,0,0,0,.454-.755,2.444,2.444,0,0,0-.117-2.269,1.918,1.918,0,0,0-.124-.173l.378-1.266-1.082-.345a6.22,6.22,0,0,1-2.635-1.513c.4-.67.813-1.323,1.245-1.948a34.222,34.222,0,0,1,3.842-4.631,12.335,12.335,0,0,1,4.6,1.693,2.1,2.1,0,0,1,.39.237,2.251,2.251,0,0,1,.112.776c0,.092.009.183.015.274a7.413,7.413,0,0,0,1.437,3.893l.84,1.129.959-1.059a12.338,12.338,0,0,1,.935,1.862c.081.187.159.366.235.535l-.89-.21-.088,1.358a7.286,7.286,0,0,0,0,.9c.015.273.04.552.065.83a9.889,9.889,0,0,1,.065,1.279,2.391,2.391,0,0,1-.131.762c-.04.108-.091.218-.14.327a3.569,3.569,0,0,0-.4,1.423,3.413,3.413,0,0,0,1.7,2.708l.164.129a14.3,14.3,0,0,1-5.778,1.075l-.841.04-.221.813a4.52,4.52,0,0,1-1.336,2.457,1.8,1.8,0,0,1-1.084.381.993.993,0,0,1-.68-.229l-1.565-1.461-.364,2.11c-.007.037-.1.368-1.364.677l-1.6.393A7.558,7.558,0,0,1,760.345,696.366Zm54.387-4.146.035.021-.026.061Zm-43.913-23.667a1.525,1.525,0,0,1-.666-.372l.163-.128A4.629,4.629,0,0,0,770.819,668.552Zm11.051-4.364a2.051,2.051,0,0,0-.25-.921,5.7,5.7,0,0,0,1.7-.424,6.55,6.55,0,0,0-1.1.943Z" transform="translate(-757.826 -659.977)"/><path class="g" d="M799.256,721.851a1.869,1.869,0,0,0,.131-.493v.484Zm6.325-1.124a.65.65,0,0,1-.266-.041l-.1-.1a5.267,5.267,0,0,0-.879-.753c-.068-.044-.128-.08-.193-.116a3.032,3.032,0,0,0-.71-.3,2.4,2.4,0,0,0-.531-.094,2.784,2.784,0,0,0-.294-.016,3.178,3.178,0,0,0-1.97.7l-1.06.057a9.78,9.78,0,0,0,.008-1.961,3.258,3.258,0,0,0-.26-1.018,3.031,3.031,0,0,0-2.915-1.743,5.689,5.689,0,0,0-.607.035,8.041,8.041,0,0,0-3.2.99,5.767,5.767,0,0,0,.964-3.512,6.813,6.813,0,0,0-.483-1.942,13.221,13.221,0,0,0-2.106-3.226l-.125-.155a6.8,6.8,0,0,1-1.538-2.479l-1.635-7.671-.676,1.777-1.082-.881a2.4,2.4,0,0,1-.814-2.19l.819-4.626a4.487,4.487,0,0,0,1.481-.472l.248.4,1.377-.082a3.161,3.161,0,0,0,2.4-1.358,3.569,3.569,0,0,0,.3.35,3.281,3.281,0,0,0,2.373.994,5.1,5.1,0,0,0,2.246-.623c.176.094.377.21.478.269a5.462,5.462,0,0,0,2.734.946,3.256,3.256,0,0,0,.969-.146,2.8,2.8,0,0,0,1.719.665l.1,0a3,3,0,0,0,1.333-.3,3.135,3.135,0,0,0,1.592.845,3.216,3.216,0,0,0,.617.061,3.309,3.309,0,0,0,2.667-1.4,4.1,4.1,0,0,0,1.929-1.184,3.352,3.352,0,0,0,.578.117,3.138,3.138,0,0,0,.352.02,3.292,3.292,0,0,0,1.638-.44c.042.071.087.141.133.211q-.3.4-.567.787l-.561.809.195.966a2.638,2.638,0,0,0,2.68,2.113c.046,0,.091,0,.136,0,.073.1.146.19.219.278a3.509,3.509,0,0,0,2.117,1.19c.193,1.18.664,3.141,2.751,3.682l1.127.293.8-.646,1.311,1.31.811-1.027a5.609,5.609,0,0,0,2.423,1.029c.091.175.2.417.263.556a8.452,8.452,0,0,0,.825,1.526,3.659,3.659,0,0,0,1,1.005q.395.989.721,2.005l-2.009.438c-.211.037-.351.138-.43.138h-.357l-.322.005a23.685,23.685,0,0,1-2.657.482c-.377.06-.751.1-1.125.163-1.556.273-4.456.77-6.146,3.034l-1.53,2.043,2.122,1.273-.635,1.251c-.021.042-.039.076-.06.11a1.041,1.041,0,0,1-.749.473c-.046,0-.09,0-.134,0-.12,0-.24-.006-.359-.011-.021,0-.043-.01-.064-.016a2.281,2.281,0,0,0-.565-.081,1.07,1.07,0,0,1-.128,0,3.1,3.1,0,0,0-.408-.017h-.534l-.187.176a4.165,4.165,0,0,0-1.447.7l-4.331.567-.48,1.333a9.5,9.5,0,0,0-.37,1.422,7.462,7.462,0,0,1-.172.737l-.087.145-.078.027A1.874,1.874,0,0,1,805.58,720.727Zm-40.61-3.869c.168-.245.383-.526.491-.666a7.46,7.46,0,0,0,1.738-3.45,6.978,6.978,0,0,0,.057-1.057c0-.067,0-.152,0-.225.16-.129.458-.316.651-.437a4.817,4.817,0,0,0,2.673-3.517,4.954,4.954,0,0,0-.046-1.21c.029-.044.059-.088.083-.123a6.551,6.551,0,0,0,.545-.913,3.626,3.626,0,0,0-.029-3.105l.553-1.854-2.164-.69a6.279,6.279,0,0,1-1.474-.666q.335-.529.685-1.035a33.094,33.094,0,0,1,3.319-4.071,13.294,13.294,0,0,1,3.518,1.436c0,.043.015.3.021.4a8.585,8.585,0,0,0,1.663,4.51l1.68,2.258.133-.146-.048.739a8.371,8.371,0,0,0,0,1.037c.015.286.042.579.069.873a9.16,9.16,0,0,1,.061,1.125,1.338,1.338,0,0,1-.062.413c-.026.07-.06.142-.093.214a4.744,4.744,0,0,0-.514,1.906,3.685,3.685,0,0,0,.824,2.4,22.62,22.62,0,0,1-3.636.379l-1.682.079-.442,1.625a3.566,3.566,0,0,1-.941,1.856.654.654,0,0,1-.341.128l-3.041-2.84-.656,3.8a4.514,4.514,0,0,1-.572.174l-1.6.394A6.966,6.966,0,0,1,764.97,716.858Zm65.126-7.579.077-.394q.055.244.106.49l-.22.083C830.072,709.4,830.084,709.339,830.1,709.278Zm-45.731-1.707c.02-.058.039-.115.056-.171.042-.14.077-.28.106-.418a5.768,5.768,0,0,0,.062.641Zm.285-2.03c-.009-.433-.049-.84-.086-1.209a7.053,7.053,0,0,1-.059-1.009l0-.024c.072-.054.181-.129.261-.183a6.237,6.237,0,0,0,1.062-.865l-.937,2.463A5.494,5.494,0,0,0,784.649,705.541Zm-1.02-13.947a2.614,2.614,0,0,0-.836-.795,5.848,5.848,0,0,0,1.157.494l-.313.313Zm-.944-.856a2.915,2.915,0,0,0-1.133-.33,4.2,4.2,0,0,0-.72-.9q.061-.027.121-.057c.364.312.7.593,1.084.865Q782.362,690.551,782.686,690.739Z" transform="translate(-762.438 -681.626)"/><path class="e" d="M994.151,815.432a2.8,2.8,0,0,1-.514.212c-.359.044-.586-.3-.861-.568l.08-.057c-.021-.16-.176-.183-.339-.135a.731.731,0,0,0-.082-.044l-.073.108a.687.687,0,0,0-.171.131,7.073,7.073,0,0,0-1,1.4l1.764.1c.086.005.187.019.227.1.052.1-.039.209-.081.314-.116.291.214.6.527.59a1.437,1.437,0,0,0,.819-.418l1.09-.9C995.206,815.786,994.7,815.249,994.151,815.432Z" transform="translate(-936.766 -778.249)"/><path class="e" d="M994.151,815.432a2.8,2.8,0,0,1-.514.212c-.359.044-.586-.3-.861-.568l.08-.057c-.021-.16-.176-.183-.339-.135a.731.731,0,0,0-.082-.044l-.073.108a.687.687,0,0,0-.171.131,7.073,7.073,0,0,0-1,1.4l1.764.1c.086.005.187.019.227.1.052.1-.039.209-.081.314-.116.291.214.6.527.59a1.437,1.437,0,0,0,.819-.418l1.09-.9C995.206,815.786,994.7,815.249,994.151,815.432Z" transform="translate(-936.766 -778.249)"/><path class="e" d="M970.139,826.067l.527-.287a1.687,1.687,0,0,1-2.629-.08,2.349,2.349,0,0,1-1.376.926c-.211.022-.423-.015-.635-.006a1.5,1.5,0,0,0-1.2.714.681.681,0,0,0-.016.788c.309.336.843.016,1.232-.223a2.975,2.975,0,0,1,1.859-.419,6.135,6.135,0,0,0,1.255.138c.92-.092,1.529-.968,2.009-1.759l-.464-.414Z" transform="translate(-916.343 -786.422)"/><path class="e" d="M970.139,826.067l.527-.287a1.687,1.687,0,0,1-2.629-.08,2.349,2.349,0,0,1-1.376.926c-.211.022-.423-.015-.635-.006a1.5,1.5,0,0,0-1.2.714.681.681,0,0,0-.016.788c.309.336.843.016,1.232-.223a2.975,2.975,0,0,1,1.859-.419,6.135,6.135,0,0,0,1.255.138c.92-.092,1.529-.968,2.009-1.759l-.464-.414Z" transform="translate(-916.343 -786.422)"/><path class="e" d="M911.43,859.561a2.391,2.391,0,0,0-1.724.309,1.563,1.563,0,0,1-1.69-.05c-.154-.155-.278-.388-.5-.4-.19-.01-.338.16-.43.327a2.161,2.161,0,0,0,1.073,2.936c.716-.555,1.391-1.16,2.066-1.765l.62-.556C911.19,860.057,911.8,859.833,911.43,859.561Z" transform="translate(-871.778 -812.603)"/><path class="e" d="M912.441,867.069l.036.008-.021.018Z" transform="translate(-876.079 -818.497)"/><path class="e" d="M934.42,848.179q-1.086,1.117-2.061,2.334c.551.159,1.408.4,1.232.948-.075.232-.293.383-.452.568a1.316,1.316,0,0,0-.022,1.63,17.147,17.147,0,0,0,1-2.294.814.814,0,0,0,.066-.441,2.452,2.452,0,0,0-.194-.392C933.661,849.757,934.955,848.831,934.42,848.179Z" transform="translate(-891.428 -803.941)"/><path class="e" d="M934.42,848.179q-1.086,1.117-2.061,2.334c.551.159,1.408.4,1.232.948-.075.232-.293.383-.452.568a1.316,1.316,0,0,0-.022,1.63,17.147,17.147,0,0,0,1-2.294.814.814,0,0,0,.066-.441,2.452,2.452,0,0,0-.194-.392C933.661,849.757,934.955,848.831,934.42,848.179Z" transform="translate(-891.428 -803.941)"/></g><g transform="translate(30.129 55.18)"><path class="e" d="M886.258,896.691c-.335-.25-.818.023-1.067.358s-.427.76-.8.944c-.315-.4-.716-.449-.808-.948s-.6-.76-.11-.9a2.154,2.154,0,0,0,.95-1.309c.076-.548-.411-1.179-.947-1.04-.308.08-.51.365-.76.562s-.679.274-.842,0c-.175-.294.09-.793-.209-.959s-.58.3-.911.281c-.284-.012-.425-.346-.655-.513-.529-.385-1.2.2-1.836.366a3.656,3.656,0,0,1-1.976-.338,1.8,1.8,0,0,0-1.9.245c-.354.409-.323,1.02-.535,1.518-.486,1.146-2.159,1.547-2.4,2.768a1.049,1.049,0,0,0,1.057.712,12.016,12.016,0,0,1,1.377-.035,3.159,3.159,0,0,1,1.094.469c1.011.6,2.135,1.491,1.995,2.659-.114.951-1.06,1.92-.524,2.714.137.2.356.347.458.57.363.8-1.032,1.6-.693,2.408a1.764,1.764,0,0,0,1.692-.811l4.145-.683a3.121,3.121,0,0,0,3.355-3l1.03-5.023C886.506,897.35,886.549,896.909,886.258,896.691Z" transform="translate(-871.448 -891.54)"/><path class="f" d="M884.185,909.105a1.8,1.8,0,0,0-.164-.868,2.318,2.318,0,0,0-.476-.658l-.032-.033a4.285,4.285,0,0,1,.23-.595,4.826,4.826,0,0,0,.44-1.381c.169-1.41-.69-2.685-2.553-3.791a4.14,4.14,0,0,0-1.507-.618,3.184,3.184,0,0,0-.486-.035c-.11,0-.217,0-.319.012l.123-.1a4.465,4.465,0,0,0,1.535-1.732,4.417,4.417,0,0,0,.237-.809,2.949,2.949,0,0,1,.1-.387.6.6,0,0,1,.142-.014,1.889,1.889,0,0,1,.544.1c.1.031.2.064.3.1a4.964,4.964,0,0,0,1.622.344,2.75,2.75,0,0,0,.7-.089,4.769,4.769,0,0,0,.773-.3c.064-.029.144-.066.217-.1a1.652,1.652,0,0,0,1.155.578h.115c.019.038.039.075.061.113a1.54,1.54,0,0,0,1.343.742h.048a1.286,1.286,0,0,0-.076.161,1.45,1.45,0,0,0,.193,1.323.99.99,0,0,1,.062.105,2.064,2.064,0,0,0,.865,1.287,1.119,1.119,0,0,1,.171.146l.579.729.836-.41c.032-.016.063-.032.093-.049l-.721,3.515a3.37,3.37,0,0,1-.481,1.38,3.335,3.335,0,0,1-1.929.708Z" transform="translate(-877.513 -895.444)"/><path class="g" d="M892.928,912.353a3.052,3.052,0,0,0-.236-.424,5.627,5.627,0,0,0,.494-1.627c.157-1.31-.255-3.228-3.111-4.923-.181-.107-.367-.215-.565-.315a4.126,4.126,0,0,0,.385-.707c.042-.1.079-.2.111-.293a5.494,5.494,0,0,0,1.766.329,3.934,3.934,0,0,0,1-.127,4.545,4.545,0,0,0,.515-.171,3.429,3.429,0,0,1,1.594.951,2.918,2.918,0,0,0,.4,1.165,3.217,3.217,0,0,0,1.244,1.769l.03.023.849,1.068-.347,1.692a4.5,4.5,0,0,1-.232.862,4.75,4.75,0,0,1-1.233.317l-2.651.437Z" transform="translate(-885.367 -900.039)"/><path class="e" d="M939.312,891.384a4.218,4.218,0,0,0-.405-1.207,13.676,13.676,0,0,1-.749-2.243,2.144,2.144,0,0,0-.564-1.22c-.638-.525-.157.145-.983.16a.705.705,0,0,0-.95,1.008,2.893,2.893,0,0,1,.284.351,1.021,1.021,0,0,1,0,.674,1.979,1.979,0,0,0,.47,2.085c.5.347,1.286.283,1.606.8.185.3.239.8.591.806a.459.459,0,0,0,.257-.086A1.193,1.193,0,0,0,939.312,891.384Z" transform="translate(-920.832 -886.514)"/><path class="f" d="M942.643,897.469c-.086-.027-.168-.052-.243-.073a2.182,2.182,0,0,1-.368-.127,1.465,1.465,0,0,1,0-.886,3.436,3.436,0,0,0,.08-.49A14.833,14.833,0,0,0,942.643,897.469Z" transform="translate(-925.794 -893.741)"/></g><path class="h" d="M970.706,823.923a33.536,33.536,0,0,0,4.272-12.535,11.551,11.551,0,0,0-1.1-2.46,2.1,2.1,0,0,0-.86-.906,1.779,1.779,0,0,0-1.353.073c-2.082.837-2.9,4.037-5.051,4.677a8.067,8.067,0,0,0-3.089,1.28c-.871.74-1.619,1.627-2.556,2.282a6.988,6.988,0,0,1-1.188.656,7.889,7.889,0,0,1-2.263.578c-1.022.108-2.059.031-3.089.089a5.352,5.352,0,0,0-2.915.891,2.63,2.63,0,0,0-1.076,2.7,8.056,8.056,0,0,0,.744,1.423,6.365,6.365,0,0,1,.3,4.241,4.119,4.119,0,0,0-.077.436,1.077,1.077,0,0,0,.054.544,2.494,2.494,0,0,0,.605.686,2.747,2.747,0,0,1,.42,2.88,6.258,6.258,0,0,1-1.9,2.383c-.679.578-1.477,1.307-1.3,2.182.193.941,1.357,1.261,2.31,1.392.679.1,1.357.189,2.036.285a9.413,9.413,0,0,0,2.225.131,35.912,35.912,0,0,0,12.408-10.253Z" transform="translate(-901.279 -770.766)"/><path class="i" d="M981.712,836.462c.247-.864.42-1.766.667-2.622.212-.733.486-1.446.663-2.186a9.082,9.082,0,0,0-1.018-6.7,1.563,1.563,0,0,0-.648-.683,1.328,1.328,0,0,0-1.014.058c-1.565.625-2.175,3.031-3.79,3.509a6.075,6.075,0,0,0-2.321.96c-.656.555-1.215,1.222-1.92,1.712a5.546,5.546,0,0,1-2.587.929c-.016,0-.035,0-.05,0-.756.073-1.515.019-2.271.062a4.038,4.038,0,0,0-2.19.671,1.965,1.965,0,0,0-.806,2.028,6.225,6.225,0,0,0,.555,1.068,3.779,3.779,0,0,1,.393,1.816,6.8,6.8,0,0,1-.166,1.369,1.249,1.249,0,0,0-.015.732,1.858,1.858,0,0,0,.455.517,2.06,2.06,0,0,1,.316,2.163,4.727,4.727,0,0,1-1.431,1.789c-.509.436-1.107.983-.975,1.639.146.706,1.022.945,1.735,1.045.509.073,1.022.143,1.531.212a5.367,5.367,0,0,0,2.244,0c.725-.212,1.338-.725,2.071-.9.5-.12,1.03-.073,1.539-.158a4.834,4.834,0,0,0,2.664-1.712,23.726,23.726,0,0,1,2.156-2.406c.551-.467,1.18-.833,1.77-1.249Z" transform="translate(-912.286 -783.305)"/><path class="h" d="M797.892,806.482a2.785,2.785,0,0,1-3.552.068,4.821,4.821,0,0,1-1.849-3.527c-.087-.953,0-2.024-.634-2.742a2.333,2.333,0,0,0-2.976-.126,6.8,6.8,0,0,0-1.956,2.562l-1.587,2.963c-.421.787-.964,1.663-1.846,1.8-.69.1-1.458-.285-2.061.066-.556.323-.642,1.088-1.04,1.594-.68.863-2.008.737-3.072.464s-2.3-.58-3.172.093a2.586,2.586,0,0,0-.775,2.319c.325,3.358,3.729,5.428,5.569,8.256a18.444,18.444,0,0,0,2.337,3.568c1.357,1.292,3.34,1.66,4.917,2.672a29.2,29.2,0,0,1,2.874,2.447,5.388,5.388,0,0,0,3.383,1.5,2.537,2.537,0,0,0,2.587-2.224,3.505,3.505,0,0,0-.437-1.526,20.27,20.27,0,0,1-1.39-3.124,4.01,4.01,0,0,1,.327-3.3c.851-1.268,2.642-1.739,3.295-3.12.5-1.047.173-2.283.3-3.434.258-2.25,2.255-4.215,1.849-6.443-.1-.54-.679-1.15-1.1-.795Z" transform="translate(-765.729 -764.421)"/><path class="i" d="M806.146,822.293a2.054,2.054,0,0,1-2.62.05,3.556,3.556,0,0,1-1.364-2.6,3.408,3.408,0,0,0-.467-2.023,1.721,1.721,0,0,0-2.2-.093,5.018,5.018,0,0,0-1.443,1.89l-1.171,2.186c-.311.58-.711,1.226-1.361,1.325-.509.077-1.075-.21-1.52.049-.41.239-.474.8-.767,1.175-.5.637-1.481.544-2.266.342a2.728,2.728,0,0,0-2.34.069,1.909,1.909,0,0,0-.572,1.711c.24,2.477,2.751,4,4.107,6.09a13.6,13.6,0,0,0,1.724,2.632c1,.953,2.464,1.224,3.627,1.971a21.5,21.5,0,0,1,2.12,1.805,3.977,3.977,0,0,0,2.5,1.1,1.871,1.871,0,0,0,1.908-1.641,2.589,2.589,0,0,0-.322-1.126,14.933,14.933,0,0,1-1.026-2.3,2.958,2.958,0,0,1,.242-2.435c.628-.935,1.949-1.283,2.43-2.3a7.926,7.926,0,0,0,.225-2.533c.19-1.659,1.663-3.109,1.364-4.752-.073-.4-.5-.848-.81-.586Z" transform="translate(-777.05 -777.979)"/><path class="j" d="M863.6,683.152a33.207,33.207,0,0,0-2.4-8.278c-.142-.324-.289-.648-.44-.968-.1-.2-.189-.4-.289-.594-.062-.123-.123-.251-.189-.374-.1-.2-.2-.393-.309-.59-.166-.308-.335-.617-.513-.918-.143-.247-.289-.493-.44-.736-.181-.3-.374-.605-.567-.9-.177-.27-.358-.536-.54-.8s-.355-.5-.536-.752a.192.192,0,0,0-.023-.031c-.173-.231-.347-.463-.524-.69-.035-.046-.069-.093-.1-.135-.181-.235-.37-.466-.559-.694-.2-.243-.4-.482-.605-.717-.011-.011-.015-.019-.023-.023-.208-.239-.42-.478-.636-.71s-.439-.471-.663-.7-.451-.459-.682-.683-.467-.447-.7-.663-.478-.436-.721-.648-.49-.42-.74-.629-.5-.409-.756-.609-.5-.386-.756-.578a.069.069,0,0,1-.027-.019c-.779-.579-1.585-1.122-2.41-1.635-.555-.351-1.118-.679-1.693-.991q-.428-.237-.867-.463c-.586-.3-1.18-.59-1.782-.86-.3-.135-.605-.266-.91-.393s-.6-.247-.906-.366c-.008,0-.019,0-.027-.008-.309-.12-.617-.231-.925-.343s-.628-.22-.949-.324-.636-.2-.96-.3a37.433,37.433,0,0,0-6.067-1.246c.062.048.126.094.187.143.255.2.509.4.756.609s.5.416.74.629.482.428.721.648.471.44.7.663.459.451.682.682.443.463.663.7.428.47.636.709c.008,0,.012.011.023.023.2.235.409.474.605.717.189.228.378.459.559.694.035.042.069.089.1.135.177.228.351.459.524.69a.225.225,0,0,1,.023.031c.181.247.359.5.536.752s.363.528.54.8c.193.3.386.6.567.9.151.243.3.49.439.737.177.3.347.609.513.918.1.2.208.393.308.59.066.123.127.251.189.374.1.2.193.393.289.594.15.32.3.644.44.968a33.435,33.435,0,0,1,2.788,13.391,33.529,33.529,0,0,1-4.554,16.885,33.247,33.247,0,0,1-2.445,3.659A35.906,35.906,0,0,1,826.5,711.683a37.2,37.2,0,0,1-16.8,3.964c-.3,0-.6,0-.9-.011a1.127,1.127,0,0,1-.116,0c-.285,0-.567-.015-.848-.031-.254-.011-.505-.027-.756-.046-.123,0-.247-.016-.37-.027-.239-.015-.478-.039-.713-.062-.22-.019-.443-.043-.663-.07-.146-.015-.293-.035-.439-.054-.009,0-.018.045-.026.044.234.191.469.387.708.616h0a11.477,11.477,0,0,1,1.762,1.094c.127.085.254.05.385.131.158.1.316.193.478.289.732.455,1.484.877,2.252,1.278.216.116.428.221.648.329.181.092.359.18.544.264.32.154.648.3.975.45l.428.185q.359.156.717.3c.451.181.91.358,1.377.521.2.073.4.142.609.212.054.019.108.039.162.054.208.07.42.139.632.2.235.077.471.146.709.216s.478.139.717.2c.5.139,1,.262,1.508.374.2.046.4.089.6.131l.108.023c.181.039.366.073.548.108.166.031.335.061.5.089.066.015.135.027.2.039.278.046.551.093.829.131.235.035.474.065.71.1.146.019.293.039.44.054.22.027.443.05.663.069.235.023.474.046.713.062.123.011.247.023.37.027.251.019.5.035.756.046.281.015.563.027.848.031.039,0,.077,0,.116,0,.3.008.6.012.9.012a37.2,37.2,0,0,0,16.8-3.964A35.913,35.913,0,0,0,857,708.809a34.037,34.037,0,0,0,6.717-16.194,33.733,33.733,0,0,0,.281-4.349A33.38,33.38,0,0,0,863.6,683.152Z" transform="translate(-790.015 -651.993)"/></g></g><g transform="translate(-16.531 61.941)"><g transform="translate(0 0)"><circle class="k" cx="52.6" cy="52.6" r="52.6"/><circle class="l" cx="46.198" cy="46.198" r="46.198" transform="translate(6.402 6.402)"/><path class="m" d="M85,383.249v0a7.691,7.691,0,0,0,.038.968,40.772,40.772,0,0,0,40.432,36.2c3.467,0,6.826-.872,10.039-1.155h0c.024,0,.047-.091.071-.1.376-.108.748-.259,1.121-.371a48.882,48.882,0,0,0,6.152-2.339c.914-.423,1.808-.89,2.685-1.385.007,0,.017-.015.024-.018a40.766,40.766,0,0,0-20.1-76.228q-1.387,0-2.746.094a33.453,33.453,0,0,0-9,1.64s0,.012-.007.012h0c-13.313,4.246-23.9,14.607-27.292,28.025v0a28.758,28.758,0,0,0-1.405,7.324Z" transform="translate(-72.862 -326.979)"/><path class="n" d="M84.915,383.243v0a7.688,7.688,0,0,0,.038.968,40.772,40.772,0,0,0,40.432,36.2c3.467,0,6.826-.872,10.04-1.155h0c.024,0,.047-.091.071-.1l-.071-.049c.4-.1.8-.229,1.192-.341a40.674,40.674,0,0,0,6.152-2.346,22.271,22.271,0,0,0,2.685-1.412h.024a40.748,40.748,0,0,0-20.1-76.2q-1.387,0-2.746.1a6.488,6.488,0,0,0-.2,1.385c-.088,2.4.819,4.7,1.459,7.013a32.131,32.131,0,0,1,1.083,6.281,3.633,3.633,0,0,1-.152,1.666,4.923,4.923,0,0,1-1.392,1.585,9.039,9.039,0,0,0-2.55,8.7c.521,2.032,1.744,3.8,2.692,5.675a22.778,22.778,0,0,1,2.347,8.035,10.409,10.409,0,0,1-.535,5.069,5.055,5.055,0,0,1-3.769,3.162c-2.367.315-4.486-1.54-5.776-3.552s-2.167-4.337-3.911-5.97-4.852-2.2-6.382-.369c-.884,1.063-.955,2.56-1.371,3.877a6.8,6.8,0,0,1-5.807,4.744,5.742,5.742,0,0,1-5.882-4.327c-.433-2.16.5-4.615-.633-6.5-1.2-1.987-4.331-2.109-6.071-.572a4.715,4.715,0,0,0-.9,1.11Z" transform="translate(-72.777 -326.974)"/><path class="n" d="M185.72,396.731a40.764,40.764,0,0,1-20.647,35.474l-.024.014q-1.315.741-2.685,1.375a48.812,48.812,0,0,1-6.152,2.319c-.372.112-.745.3-1.121.41-.024.007-.047.1-.071.1h0c-.014,0-.027-.1-.04-.1-6.877-1.009-13.754-2.047-20.627-3.049-2.577-.373-5.4-.9-7.053-2.908-.775-.938-1.215-2.139-2.062-3.013a9.953,9.953,0,0,0-3.244-1.9,32.688,32.688,0,0,1-7.195-4.431c-1.544-1.253-3.108-3.157-2.418-5.022.694-1.886,3.169-2.3,5.17-2.12s4.229.589,5.84-.606c1.172-.867,1.69-2.377,2.777-3.346,1.666-1.48,4.253-1.321,6.328-.515s3.921,2.153,6.03,2.875c5.773,1.974,12.826-1.93,14.218-7.869,1.771-7.561-4.612-15.5-2.157-22.865.555-1.666,1.551-3.213,1.7-4.964.149-1.781-.609-3.5-.823-5.282-.416-3.457,1.615-7.209,4.93-8.282s7.446,1.175,7.91,4.625l-.295-.027c3.826.66,5.465,5.807,9.23,6.758,1.8.457,3.637-.166,5.485-.494a40.724,40.724,0,0,1,7,22.845Z" transform="translate(-92.369 -344.132)"/><path class="n" d="M122.787,382.164c-.395,1.028-2.137-.173-2.908-.958-1.466-1.486-2.55-3.335-4.128-4.7s-3.955-2.174-5.756-1.121c-2.3,1.341-2.567,4.964-4.994,6.054-1.7.762-3.718-.115-5.058-1.4s-2.235-2.946-3.559-4.249A10.079,10.079,0,0,0,90,373v0c3.4-13.418,13.978-23.779,27.292-28.025h0s0-.008.007-.012a4.327,4.327,0,0,1,1.93,1.584c1.351,2.1,1.141,4.806.884,7.291q-.513,4.992-1.029,9.987a4.811,4.811,0,0,0,.176,2.475,8.79,8.79,0,0,0,1.615,1.926C124.023,371.834,124.5,377.691,122.787,382.164Z" transform="translate(-76.447 -331.373)"/><path class="m" d="M294.3,458.922a40.417,40.417,0,0,1,.562,6.755,40.972,40.972,0,0,1-20.647,35.6l-.024.124h-.02a12.393,12.393,0,0,1-6.044-1.574,7,7,0,0,1-3.684-5.712c-.034-3.244,2.756-5.808,5.529-7.488s5.929-3.148,7.567-5.945c1.432-2.448,1.412-5.463,1.216-8.29s-.511-5.757.433-8.428,3.616-4.989,6.4-4.464c1.185.227,2.242.923,3.433,1.1C290.867,460.884,292.591,459.894,294.3,458.922Z" transform="translate(-201.509 -413.078)"/></g><g transform="translate(106.441 65.45)"><g transform="translate(13.847 0)"><rect class="k" width="1.295" height="68.609" transform="matrix(0.418, -0.909, 0.909, 0.418, 0, 1.177)"/><g transform="translate(57.304 23.357)"><path class="k" d="M669.5,619.421l3.855-3.508.151-5.21,8.33,9.107Z" transform="translate(-669.504 -610.703)"/></g></g><g transform="translate(9.059 16.487)"><rect class="k" width="1.295" height="68.609" transform="translate(0 1.177) rotate(-65.321)"/><g transform="translate(57.304 23.357)"><path class="k" d="M652.591,677.664l3.855-3.508.151-5.21,8.33,9.107Z" transform="translate(-652.591 -668.946)"/></g></g><g transform="translate(0 30.133)"><rect class="k" width="1.295" height="68.609" transform="translate(0 1.177) rotate(-65.321)"/><g transform="translate(57.304 23.357)"><path class="k" d="M620.588,725.874l3.855-3.508.151-5.21,8.33,9.107Z" transform="translate(-620.588 -717.156)"/></g></g></g></g></g></g></svg>