<svg xmlns="http://www.w3.org/2000/svg" width="293" height="200" viewBox="0 0 293 200"><defs><style>.a{fill:none;}.b{fill:#95cb6e;}.b,.c,.d,.e,.f{mix-blend-mode:multiply;isolation:isolate;}.c{fill:#00aaad;}.d{fill:#da1f3d;}.e{fill:#f37032;}.f{fill:#fdb913;}</style></defs><g transform="translate(-780 -357.551)"><rect class="a" width="293" height="200" transform="translate(780 357.551)"/><g transform="translate(836.604 360.616)"><g transform="translate(9.869 7.288)"><path class="b" d="M107.929,197.937c.606,2.691,1.668,3.487,2.388,3.676a1.426,1.426,0,0,0,1.895-1.175c.227-1.175,1.023-5.116,1.743-6.367a9.493,9.493,0,0,1,2.312-2.729,7.964,7.964,0,0,0,1.895-1.857c.682-.948.986-1.289,1.782-1.289a1.443,1.443,0,0,0,1.516-.8c.341-.606.265-.682,1.061-.379s1.326-.72,1.326-.72-1.44.038-1.4-.682.038-.758.72-1.251,2.5-1.971,4.017-3.222a35.315,35.315,0,0,1,8.945-5.344c3.979-1.554,9.058-3.335,12.961-5.609s6.557-3.525,8.565-3.79a39.33,39.33,0,0,0,7.239-1.516c1.554-.644,2.691-2.88,3.449-3.335s3.9-4.169,5.306-5.5a83.917,83.917,0,0,0,10.12-11.181c4.169-5.647,6.178-8.565,6.178-8.565s4.055,1.023,6.253,1.667,5.95,2.729,10.574,4.169a51.389,51.389,0,0,0,9.058,2.274c1.667.152,5.874,2.236,5.874,2.236a39.584,39.584,0,0,1-.682,5.534c-.644,3.6-1.364,6.784-.417,9.551a28.169,28.169,0,0,1,1.137,8.793c.038,3.032.227,10.612-.948,13.872a.959.959,0,0,0-1.137.606c-.379.834-1.137,1.743-1.592,2.539s-1.061,1.175-1.251,2.009a2.54,2.54,0,0,1-.682,1.27c-.455.171-1.307,1.478-1.535,1.648s-.967.341-.341,1.251a14.269,14.269,0,0,0,4.832,3.468,10.07,10.07,0,0,0,3.581,1.08c1.194.228,3.013,2.047,4.15,2.558s8.414,3.184,11.711,3.7,3.752-.739,3.923-1.194.284-1.535-1.251-2.274a26.513,26.513,0,0,1-4.776-2.786,30.978,30.978,0,0,1-1.478-3.07,8.368,8.368,0,0,1-1.194-2.842c-.171-1.251-.171-2.16-.909-2.5s-.057-1.307-.114-1.876-.91-.852-1.478-.739a1.714,1.714,0,0,1-.91-.025,5.021,5.021,0,0,1-.852-2.818,14.057,14.057,0,0,0-.171-2.274s.568-12.336,1.819-16.088,1.819-10.517,2.331-14.326a21.971,21.971,0,0,1,1.762-6.879,8.394,8.394,0,0,0,.512-4.15,3.108,3.108,0,0,0-1.364-2.331c-.682-.455-2.5-3.411-4.32-4.832s-6.14-4.662-8.414-6.083-11.768-6.765-15.8-8.072l-4.036-1.308a12.368,12.368,0,0,1,0-2.615c.17-.967,1.194-2.16.852-3.468s.512-5.06.568-6.481,1.478-4.946,1.876-6.879a31.688,31.688,0,0,0,.455-4.662s2.16,3.923,3.3,4.946,3.7,1.308,4.264,1.308,1.876-1.762,2.615-3.24,3.638-6.537,4.6-9.152,2.16-9.835,2.956-11.313a15.793,15.793,0,0,0,1.194-3.524,18.685,18.685,0,0,1,.739-2.956,5.214,5.214,0,0,0,.682-2.5c.076-1.1.3-3.184-.038-3.373a1.151,1.151,0,0,0-.834,0s-.038-.871-.379-.947-.531.076-.8,0-.531-.606-1.023-.758-.834.076-1.175,0-.379-.531-.872-.606a6.335,6.335,0,0,0-.871,0c-.228-.038-.531-.644-1.024-.493s-.947,1.137-.947,1.137-.606-.228-1.137.644a15.067,15.067,0,0,0-.871,2.615c-.3.72.909,2.842,1.327,3.676s1.175,1.554,1.061,2.918-1.251,5.988-2.085,7.2a64.488,64.488,0,0,0-3.828,5.685,14.314,14.314,0,0,0-.8-3.3,6.664,6.664,0,0,1-.569-1.44,2.338,2.338,0,0,0-.606-1.478,8.526,8.526,0,0,1-1.63-3.487c-.19-1.061-.872-3.146-.91-4.093s-.606-1.554-.682-2.5-1.971-3.3-3.221-4.358a6.131,6.131,0,0,0-2.122-1.289s.075-.682.644-.8,2.691.152,3.487-.076a1.047,1.047,0,0,0,.493-1.63c-.341-.493.266-1.44.644-1.819S207,57.9,207,57.9a3.567,3.567,0,0,1,1.213-1.4c.72-.379.076-1.327.227-1.933,0,0,.758-.455,1.289-.8s1.024-.8.379-1.971-2.577-3.032-2.539-3.638a3.409,3.409,0,0,0-.19-2.236,23.091,23.091,0,0,1-1.364-2.956,5.106,5.106,0,0,0-.606-1.364,2.76,2.76,0,0,0,.3-2.122,4.08,4.08,0,0,0-1.175-1.82s0-1.705-1.364-2.084a23.617,23.617,0,0,1-3.563-1.554,10.868,10.868,0,0,0-2.615-.531s.152.455-1.327,0c0,0,.3,1.327-.909,1.061,0,0-.152.91-1.554.758a1.112,1.112,0,0,1-1.1.455,6.069,6.069,0,0,1-1.4-.3s-.53,1.478-1.326,1.667-1.061.038-1.061.038a5.285,5.285,0,0,1-1.9,1.137,6.725,6.725,0,0,1-1.213.19s-.227,1.175-.8,1.44c0,0,.265.455-.682,1.213,0,0,.531.152,0,.8a2.234,2.234,0,0,1-.417,1.327.982.982,0,0,1,.19,1.175s.531.758.417,1.175a3.049,3.049,0,0,1-.606.948.813.813,0,0,1,0,1.023,2.233,2.233,0,0,1,.341,1.592l-.228.72a12.121,12.121,0,0,0,1.061,1.478,3.707,3.707,0,0,1,1.024,1.516,6.479,6.479,0,0,1,.985-.038,1.6,1.6,0,0,1,.986,1.061,7.852,7.852,0,0,0,1.9,2.843c.947.834,1.175,1.4,1.175,2.047a9.291,9.291,0,0,1-.228,1.63,2.868,2.868,0,0,0-1.023.531c-.265.3-1.1,2.009-1.667,3.032a3.454,3.454,0,0,1-2.426,1.781,6.724,6.724,0,0,0-2.956,1.781,3.833,3.833,0,0,1-2.388,1.137,17.169,17.169,0,0,0-6.822,1.668,93.8,93.8,0,0,0-8.224,4.586,30.513,30.513,0,0,0-4.7,3.373c-.455.569-1.289.682-.985,2.009s.947,2.843,1.554,4.927a62.687,62.687,0,0,0,5.5,11.862c2.653,4.4,4.965,8.565,5.23,9.21a22.454,22.454,0,0,0,.947,2.312,7.527,7.527,0,0,0,1.175,2.463c.909,1.024.909,1.592,1.516,2.2a3.864,3.864,0,0,0,2.009.872,1.174,1.174,0,0,0,.455-.114,4.321,4.321,0,0,1-.682,1.516,15.828,15.828,0,0,0-3.221,4.283c-.606,1.629-.72,2.425-1.023,3.3s0,5.381.076,6.405-.568,1.478-.417,1.781-.3.606-.3.948-.493.8-1.023,1.516-5.041,5.988-6.708,9.286-4.283,7.883-5.5,9.02a13.607,13.607,0,0,1-5.685,3.221c-2.539.682-10.119,2.918-12.545,4.624s-3.221,3.752-5.685,5.571-9.058,6.481-9.816,6.936-2.463,1.44-3.032,1.251a1.14,1.14,0,0,0-.947-.341c-.644.038-1.478-.948-2.539-1.1s-1.63-.19-2.2-.872a4.648,4.648,0,0,0-2.994-1.023,19.672,19.672,0,0,0-2.767,5.8,12.76,12.76,0,0,0-.531,5.192c.152,1.175-.8,3.487-1.554,5.079S107.322,195.246,107.929,197.937Zm72.161-92.551a15.681,15.681,0,0,0-2.8-.985c-.72-.265-1.44-2.123-2.919-5.344a40.33,40.33,0,0,1-2.653-6.784c-.3-1.364-.834-3.752-1.061-4.813a35.78,35.78,0,0,1,0-5,13.858,13.858,0,0,1,2.843-.568,59.391,59.391,0,0,0,6.215-1.478s.758,2.2.947,3.108.607,4.965.872,6.822a43.647,43.647,0,0,0,1.175,6.026,27.112,27.112,0,0,1,.568,5.988c-.038.834-.379,1.023-.568,1.668s-.114,1.288-.493,1.667a2.384,2.384,0,0,0-.417,1.289A7,7,0,0,0,180.09,105.386Z" transform="translate(-82.495 -33.49)"/><path class="c" d="M241.973,84.6a3.02,3.02,0,0,0-1.18.058c-.271.039-.832.174-.658-.251s.735-1.162.852-1.49a1.241,1.241,0,0,0-.329-1.2,1.3,1.3,0,0,0-1.006-.232,2.232,2.232,0,0,0-.232-.91.736.736,0,0,0-.832-.445,1.305,1.305,0,0,0,0-1.142c-.155-.252-.581-.329-1.065-.368a1.739,1.739,0,0,0-1.2.658,15.79,15.79,0,0,1-1.529,1.045s-.716-.019-1.1,0a1.243,1.243,0,0,0-.91.755c-.136.329-.581,1.123-.89,1.955s-1.18,3.639-1.355,4.413a16.073,16.073,0,0,1-1.064,2.4,47.1,47.1,0,0,1-3.426,4.548,8.033,8.033,0,0,1-2.787,2.38c-1.006.5-1.877,1.22-2.555,1.548a3.254,3.254,0,0,0-1.065.832,10.079,10.079,0,0,1-.735-2.032,13.8,13.8,0,0,0-.677-2.071A17.335,17.335,0,0,1,218.206,93a5.81,5.81,0,0,0-.29-2.206,26.049,26.049,0,0,0-.852-3.639,20.157,20.157,0,0,0-2.206-4.3c-.174-.329-.368-1.123-.484-1.393a2.076,2.076,0,0,0-.619-.6,3.446,3.446,0,0,1-.116-1.122c.019-.735-.542-1.355-.29-2.361a1.959,1.959,0,0,1,1.335-1.548,27.205,27.205,0,0,1,3.29-.542,1.868,1.868,0,0,0,1.413-1.355c.1-.542-.407-.774-.29-1.18s.542-.426.677-.639-.077-.678-.271-.813-.406-.232-.271-.445.561-.155.774-.271.232-.755.213-1.026-.116-.271.329-.581.716-.039,1.18-.174a1.027,1.027,0,0,0,.6-1.219,19.243,19.243,0,0,0-1.081-2.187,3.246,3.246,0,0,1-.428-1.607c.058-.426.464-.813.426-1.142a28.134,28.134,0,0,0-.619-2.826,21.265,21.265,0,0,1-.658-2.709c.019-.251.251-.484.5-.251s.1,1.006.1,1.006a.583.583,0,0,0,.2-.5,2.1,2.1,0,0,0-.242-1.161.749.749,0,0,1-.1-.832c.136-.368-.232-.813-.329-1.355a1.3,1.3,0,0,0-1.1-.929c-.348,0-.813-.581-.968-.987a.944.944,0,0,0-.6-.522,1.346,1.346,0,0,1,.232.426,1.5,1.5,0,0,1-.794-.542c-.194-.368-.987-.426-.987-.426a.658.658,0,0,1-.677.251,18.773,18.773,0,0,1-2.032-.735c-.522-.213-1.732.2-1.945.024s0-.387,0-.387a.391.391,0,0,1-.329.019c-.155-.077.155-.463.155-.463a9.684,9.684,0,0,1-1.1.038,3.487,3.487,0,0,0-1.78.174,14,14,0,0,0-2.5.832,6.04,6.04,0,0,0-.581.522,2.264,2.264,0,0,1,.368-.948,1.4,1.4,0,0,0-.619.561,3.5,3.5,0,0,1-1.3.948c-.232.1-.7-.136-.7-.136a2.483,2.483,0,0,1,.213.89,6.936,6.936,0,0,1-1.413,1.122c-.6.29-.6,1.065-1.239,2.071a2.019,2.019,0,0,0-.309,1.936,11.864,11.864,0,0,1,.019,1.838s.077-.794.116-1.045a1.38,1.38,0,0,1,.251-.522,3.361,3.361,0,0,1,.077.464c.039.329-.348,2.284-.29,3.019s.368,1.3.445,2.052a1.182,1.182,0,0,0,.484.967,7.178,7.178,0,0,0,.523,1.548,5.335,5.335,0,0,1,.677,1.877,5.07,5.07,0,0,0,.658,1.587,6.012,6.012,0,0,1,.019,2.555,4.873,4.873,0,0,1-1.384,2.8s-.077.077-.368.077a1.772,1.772,0,0,0-1.161.716c-.406.484-1.8,2.206-2.439,2.923a11.266,11.266,0,0,0-1.335,2.69,17.1,17.1,0,0,1-3.116,1.548c-1.336.639-4.355.677-6.077,1.838s-4.8,2.69-6.232,3.6a42.32,42.32,0,0,0-4.374,4.026,2.034,2.034,0,0,0-.852,1.471c-.019.561,1.239,2.129,1.258,2.419a43.81,43.81,0,0,0,1.432,5.013c.987,3.058,4.045,7.432,6.039,11.206S188.439,121,188.439,121c-.755,1.161-2.923,2.9-3.987,4.548a39.11,39.11,0,0,0-2.342,4.8c-.174.349-.1,1.18-.291,1.587s-.013.581-.013.581a2.546,2.546,0,0,1-.122,1.123,1.012,1.012,0,0,0,.013.987,2.782,2.782,0,0,1,0,1.548c-.142.174-.148.368-.148.91a12.328,12.328,0,0,1,.116,2.168,2.818,2.818,0,0,1-.658,1.413,1.6,1.6,0,0,0-.116.929s-.91,1.277-2.148,2.864-3.948,5.342-4.258,5.787a6.3,6.3,0,0,0-.562,1.084,49.037,49.037,0,0,0-3.174,6.329,28.181,28.181,0,0,1-3.174,4.858,10.848,10.848,0,0,1-4.239,3c-1.355.561-6.367,2.225-8.516,3.445a15.767,15.767,0,0,0-4.684,4.219,11.534,11.534,0,0,1-2.265,2.671,69.126,69.126,0,0,0-5.129,5.032,22.455,22.455,0,0,1-4.838,3.832,13.984,13.984,0,0,0-1.432.89c-.039-.232-.658-.5-1.258-.407a11.673,11.673,0,0,1-2.5-.136,11.037,11.037,0,0,0-3.406.31c-.406.213-.735,1.007-.987,2.052s-.542,3.735-.832,5.768-1.374,4.026-1.761,5.536a17.852,17.852,0,0,0-.407,3.058.359.359,0,0,1-.251.29,1.8,1.8,0,0,1,.29,1.045.521.521,0,0,1-.174.368.736.736,0,0,1,.29.484.526.526,0,0,1-.136.426c.155.1.232.445.407,1.219s.658,1.587.677,1.858a4.722,4.722,0,0,1,0,.561c.213.019.368.232.5.484a.4.4,0,0,1,0,.426,1.274,1.274,0,0,1,.484.716,1.528,1.528,0,0,1,.1.561.321.321,0,0,1,.271.155,5.94,5.94,0,0,0,1.471,1.355,2.811,2.811,0,0,0,1.8-.1c.813-.29.755-1.316,1.026-2.206s.349-3.136.465-3.658a3.289,3.289,0,0,0-.252-1.374,1.252,1.252,0,0,1,.464-.91,2.648,2.648,0,0,0,.6-1.239,7.381,7.381,0,0,1,.89-1.742c.232-.329.426-.077.813-.445s.755-.542,1.142-.949.213-.948.213-1.3a.542.542,0,0,1,.522-.561,3.236,3.236,0,0,0,1.045-.5,5.709,5.709,0,0,1,1.742-.794c.406,0,.581-.29.445-.581s-.522-.368-.794-.426-.677-.542-.677-.542a.784.784,0,0,1,.329-.387c.29-.213,0-.31,0-.31a62.667,62.667,0,0,1,5.98-5.419c2.032-1.761,8.148-4.587,10.393-5.651a76.238,76.238,0,0,0,7.78-4.471,22.76,22.76,0,0,1,5.516-2.284c1.761-.5,3.987-.813,4.993-1.064a7.821,7.821,0,0,0,2.69-1.355,6.644,6.644,0,0,0,1.49-1.974c.387-.619,1.665-1.1,2.3-1.9s2.709-3.019,4.393-4.8,3.464-4.006,3.464-4.006c.232-.058.464-.542.639-.755s.445-.29.561-.542a5,5,0,0,1,1.2-1.781,42.563,42.563,0,0,0,3.271-4.49,18.889,18.889,0,0,1,2.981-4.374,23.067,23.067,0,0,1,4.006-2.845,9.467,9.467,0,0,1,1.413.832c.948.639,5.226,3.194,7.239,4.529a57.782,57.782,0,0,0,5.226,2.71,2.025,2.025,0,0,0,.774.329,74.51,74.51,0,0,1,6.91,3.522,24.438,24.438,0,0,1,3.406,2.439,30.263,30.263,0,0,1-1.684,2.671,44.735,44.735,0,0,0-3.987,7.51c-.987,2.458-.581,6.445-.89,7.935s-1.935,7.219-2.806,9.638a59.213,59.213,0,0,1-2.613,5.768,3.521,3.521,0,0,0-.6.058,2.714,2.714,0,0,0-1.064.948c-.329.426-.89.7-1.316,1.316s-1.684,2.052-1.994,2.419-.232.755-.367.832-.213.039-.136.542a6.044,6.044,0,0,0,1.529,2.284c.871.967,3.542,2.477,4.819,3.348a14.045,14.045,0,0,1,3.136,3.309,12.309,12.309,0,0,0,2.187,1.936.658.658,0,0,1,.116.464s.232-.174.309-.116.794.465,1.007.658a.819.819,0,0,1,.155.62,1.068,1.068,0,0,1,.368-.232s.6.309.774.387.174.407.174.407a.75.75,0,0,1,.251-.31s.426.077.658.116.251.31.251.31a.5.5,0,0,1,.6-.116,2.272,2.272,0,0,1,.62.368.873.873,0,0,1,.116.407,2.208,2.208,0,0,1,.523-.213,3.693,3.693,0,0,1,1.18.058,1.669,1.669,0,0,1,.929.406,1.123,1.123,0,0,0,.871.155c.116-.058.445-.29.639-.271s.232.116.271.251.194.174.349,0,.348-.174.484-.348.116-.387.329-.542.29-.348.077-1.064-1.2-1.161-1.665-1.432a18.507,18.507,0,0,1-2.148-1.993c-.89-.871-1.8-1.607-1.858-1.936a2.171,2.171,0,0,0-.426-1.064,13.636,13.636,0,0,1-1.026-1.394c-.116-.329-.1-.813-.193-.948a1.684,1.684,0,0,1-.31-1.026,4.409,4.409,0,0,0-.155-1.18.775.775,0,0,0,.29-.348,1.287,1.287,0,0,0-.1-.948c-.116-.349-.561-.349-.561-.349a11.255,11.255,0,0,1-.019-1.587c.058-.7.232-1.645.561-1.858s.174-.406-.174-.561a3.4,3.4,0,0,0-1.277,0,23.956,23.956,0,0,1,1.18-4.684,55.086,55.086,0,0,1,3.774-8.09,89.386,89.386,0,0,0,5.11-9.232,49.114,49.114,0,0,1,3.7-7.026c.832-1.3,1.529-3,2.071-3.929a26.738,26.738,0,0,0,1.8-3.271,5.744,5.744,0,0,0,0-3.426,14.842,14.842,0,0,0-1.548-1.761A51.393,51.393,0,0,0,234,147.79a36.263,36.263,0,0,0-6.387-7.355s-.039-.116-.077-.251-.348-.29-.406-.5-.349-.252-.522-.426a40.416,40.416,0,0,0-5.864-5.168,25.392,25.392,0,0,0-7.065-3.619c-.445.019-.774-.445-1.026-.407s-.426.213-.5-.019-.5-.077-.62-.155-.077-.232-.309-.213-.349-.116-.522-.445-.735-.29-.735-.29a.577.577,0,0,1-.174-.368c-.058-.29-.639-.581-.658-.813s-.1-.755.136-.968.116-.89.213-1.258a3.916,3.916,0,0,0,.31-1.336c-.077-.329.794-1.471,1.471-3.058s2.71-4.935,2.864-5.632a17.946,17.946,0,0,1,1.219-2.458,19.635,19.635,0,0,0,.832-2.768,5.353,5.353,0,0,0,1.007.522c.658.271,2.923,1.51,3.658,1.393a3.288,3.288,0,0,0,1.9-1.1c.213-.387,1.8-1.974,2.748-2.981a45.631,45.631,0,0,0,3.5-4.7c.794-1.219,2.826-5.98,3.368-7.161a15.013,15.013,0,0,1,2.477-3.116c.29-.309.29-.658.7-1.2a13.821,13.821,0,0,1,1.974-1.471,12.432,12.432,0,0,0,1.606-1.7c.29-.387,1.568-1.22,1.742-1.529a3.457,3.457,0,0,1,.987-.91,1.291,1.291,0,0,0,.561-.852A.818.818,0,0,0,241.973,84.6Zm-47.966,19.69a21.309,21.309,0,0,0-.671,4.8,10.925,10.925,0,0,1-1.291,4.749s-.439-.8-.98-1.909a46.572,46.572,0,0,1-2.219-5.11c-.077-.594-1.16-4.233-1.329-5.7s-.246-3.458-.246-4.232-.181-1.264,0-1.393a37.2,37.2,0,0,0,5.7-1.084s.155,1.5.207,1.987.8,2.529.954,3.819A10.06,10.06,0,0,1,194.007,104.288Z" transform="translate(-92.908 -43.188)"/><path class="d" d="M203.889,206.694c-.265-.64-1.765-.816-2.317-.816s-.971.485-1.92.728-2.471,1.169-4.391.993a13.694,13.694,0,0,1-5.119-1.832,2.07,2.07,0,0,0-1.478-.355s.728-.263,1.015-.064.6-.11.618-.287-.419-.353-1.17-.731-1.191-.351-1.5-.108-1.037,0-1.037,0a1.75,1.75,0,0,1-.882-.86c-.265-.618-.706-.574-1.081-.817a1.666,1.666,0,0,1-.574-1.456c.022-.64-.64-.4-.574-.948s-.375-.309-.552-.927-.529-.463-.529-.463a8.4,8.4,0,0,1-.9-2.162,83.29,83.29,0,0,1-2.4-10.68c-.508-3.553-3.111-14.122-3.111-15.137s-.243-3.928-.309-4.678a7.03,7.03,0,0,1,.243-2.317,8.863,8.863,0,0,0,.155-3.221,6.053,6.053,0,0,0-1.9-2.6c-.662-.4-1.9-2.361-3.928-5.561s-6.024-8.1-6.024-8.1c.464-.794-.464-1.523-1.17-2.405s-1.853-2.295-2.559-3.178a18.545,18.545,0,0,1-2.273-3.84c-.419-1.1-1.39-1.235-2.14-1.986s-.75-.838-1.17-.927-1.258-.9-1.853-.971-.662-.816-.993-1.633-1.633-1.147-1.633-1.147a1.772,1.772,0,0,0,.154-1.015,6.4,6.4,0,0,1-.2-2.4,6.4,6.4,0,0,0,.662-2.869,4.741,4.741,0,0,1,.176-2.471c.287-.75.133-3.134.309-4.016a8.939,8.939,0,0,1,1.1-3.464,3.848,3.848,0,0,0,.861-2.14c.11-.662.2-1.523.2-1.523a38.564,38.564,0,0,0,5.649-2.471c2.67-1.479,6.311-5.671,7.656-6.8s2.6-1.655,2.847-2.008.464-.927,1.037-1.17A3.845,3.845,0,0,0,172.71,94.2a6.538,6.538,0,0,1,1.037-1.633,1.416,1.416,0,0,0,.2-1.434,9.114,9.114,0,0,1-.2-1.523,2.919,2.919,0,0,0-.64-1.17c-.133-.243.066-.728-.243-1.192s-1.324-.508-1.324-.508-.242-.948-.64-1.147a4.749,4.749,0,0,0-2.736-.132,1.891,1.891,0,0,0-.772.993,1.737,1.737,0,0,0-2.118-.176c-.375.287-.64,1.28-.816,1.545s-.132.794-.044,1.986a13.313,13.313,0,0,0,.6,2.692l-.243.552a5.573,5.573,0,0,1-2.229,2.162c-1.236.728-2.736,1.853-2.736,1.853a25.754,25.754,0,0,0,.684-3.95,22.644,22.644,0,0,0-.2-4.9,20.01,20.01,0,0,0,.419-3.442,20.433,20.433,0,0,0-.53-4.435,17.342,17.342,0,0,0,.309-3.045,8.193,8.193,0,0,0-1.3-4.855c-.662-.75-3.553-1.853-3.553-1.853a2.042,2.042,0,0,1,1.324-.684c.949-.155,2.472.044,3.288-.088s1.1-.993,1.059-1.854.177-.9.42-1.17.684-.4.618-.794a2.9,2.9,0,0,0-.662-1.015s.9-.111,1.17-.508-.176-.993.111-1.368,1.214-.265,1.721-.287.927-.9.838-1.456a16.609,16.609,0,0,0-1.3-3.023,1.463,1.463,0,0,1,.155-1.721,1.3,1.3,0,0,0,.353-1.081c0-.618-.331-2.185-.353-2.847a16.132,16.132,0,0,0-.794-2.736.7.7,0,0,1,.706-.2c.375.155.132,1.324.132,1.324a1.641,1.641,0,0,0,.378-.662c.223-.552-.466-1.7-.466-1.7.331-.088.6-.861.4-1.236s-.464-.948-.64-1.39a3.267,3.267,0,0,0-.883-.971l-.066.287c-.066.287-.574-.287-.574-.618s-.6-.574-.838-.838-.927-.9-.927-.9a1.152,1.152,0,0,1,.287.64,3.932,3.932,0,0,0-1.015-.662l.331.464c.331.464-.265.574-.684.088s-2.03-.794-2.449-.949-1.545-.022-1.788-.221-.265-1.015-.265-1.015a5.24,5.24,0,0,1-2.1-.309c-.485-.353-.772.265-1.412.221a2.059,2.059,0,0,0-1.3.662,5.071,5.071,0,0,0-1.126-.088c-.618.022-.861,1.059-.861,1.059a6.35,6.35,0,0,1,.331-1.346,7.7,7.7,0,0,0-1.236,1.743c-.111.353-.75.2-.75.2a1.655,1.655,0,0,1-.861,1.236c-.441.221-1.037.706-1.853,1.258s-1.037,1.633-1.523,2.273a1.591,1.591,0,0,0-.265,1.346.794.794,0,0,1,.353-.287,5.881,5.881,0,0,0,0,1.324,5.477,5.477,0,0,1,.441-.574s-.265,2.582-.221,3.884a4.688,4.688,0,0,0,.684,2.251,7.548,7.548,0,0,0,.706,2.538c.441.463.6,2.361.728,2.78s.441.75,0,3.288a7.566,7.566,0,0,1-2.118,4.038,8.009,8.009,0,0,0-3.089,1.037,18.742,18.742,0,0,1-2.185,1.456,20.209,20.209,0,0,0-2.229,1.787,10.038,10.038,0,0,0-3.553,1.1c-1.5.838-2.979,3.178-3.8,3.8s-4.325,2.03-6,3.244-7.613,4.634-8.981,5.516a12.906,12.906,0,0,0-3.773,4.325,2.807,2.807,0,0,0,.375,2.361c.353.618,1.126,2.449,2.781,5.163a77.244,77.244,0,0,0,7.26,8.914c1.544,1.677,4.722,4.5,5.428,5.561a11.083,11.083,0,0,1,1.187,2.118c.215.53.645,1.435.976,2.1a4.113,4.113,0,0,0,1.081,1.214s-.75,1.346-.882,1.7a12.664,12.664,0,0,0-.574,1.523,6.657,6.657,0,0,1-.927,1.743,1.738,1.738,0,0,0-.419.949c-.044.353-.551.706-.656,1.059a4.62,4.62,0,0,1-.535,1.368c-.221.221-.088.463,0,.883s1.191,1.3,1.191,1.3c-.176.464.2,1.192.088,2.162a5.59,5.59,0,0,0,.508,2.516,5.247,5.247,0,0,1,.132,1.655c0,.42-.221.464-.375.839s-.044.618-.11,1.147a7.078,7.078,0,0,1-.772,1.853c-.309.618-.75,2.56-1.545,3.222a3.068,3.068,0,0,0-1.147,1.721,32.786,32.786,0,0,1-1.787,3.31c-.375.662-1.17,2.493-1.5,2.979a2.928,2.928,0,0,0-.375,1.258,48.968,48.968,0,0,1-4.5,6.84,3.685,3.685,0,0,1-3.4,1.7c-2.03.066-5.892-.949-10.327-1.456a19.8,19.8,0,0,0-8.473,1.081c-1.479.287-11.54,1.809-12.578,2.074a12.852,12.852,0,0,1-3.4.463.465.465,0,0,0-.551-.022c-.111.088-.64-.155-.971-.111s-.706.066-.706.066a2.857,2.857,0,0,0-.441-.6c-.265-.265-1.081-.53-1.434-.993a17.241,17.241,0,0,0-2.471-2.4,10.335,10.335,0,0,0-1.92-1.126c-.441-.176-1.3.331-2.25,1.17a43.966,43.966,0,0,0-4.126,5.494,35.683,35.683,0,0,1-3.8,4.06A23.574,23.574,0,0,0,54,171.72a18.2,18.2,0,0,0-1.743,5.208,19.816,19.816,0,0,0-.529,3.729c.022.485-.132,1.236,1.147,1.324s1.5-.6,2.052-1.236a30.875,30.875,0,0,1,2.8-2.825c.662-.507.927-1.655,1.611-2.251s1.456-.4,2.295-.4,3.531-1.192,4.325-1.214a5.076,5.076,0,0,0,2.14-.882c.662-.353.221-.618.552-.485s.794.6,1.412.618.728-.088.618-.243.286-.375.154-.508a3.316,3.316,0,0,0-.772-.331,4.509,4.509,0,0,1,1.17-.464c.463-.066,1.39-.242,2.008-.287a2.144,2.144,0,0,0,.9-.221,2.686,2.686,0,0,1,.221.353c.088.177.221.155.574-.132a1.638,1.638,0,0,1,1.126-.287c.375,0,.375-.463.375-.463a56.087,56.087,0,0,1,14.762-.044c5.384.9,12.908.331,14.144.618s4.943.838,6.068,1.125,4.59,1.17,6.355.684,3.332-3.4,4.082-4.524.971-.816,3.641-3.4,7.127-8.164,7.127-8.164c.2-.088,1.346-1.633,3.2-3.729s4.016-4.921,4.5-5.164a5.479,5.479,0,0,0,1.059-.794,37.516,37.516,0,0,1,4.369,3.8c.684.772,3.045,3.486,3.266,3.531s.6-.309.6-.309,4.567,3.6,7.348,5.6a38.336,38.336,0,0,1,6.4,6.178c.375.6.552,3.509,2.427,12.225s3.509,9.2,4.3,11.342,4.126,11.452,4.126,11.452-.221.111-.265.243.309.574.309,1.037.176.551.419,1.258.794,4.038.794,4.038-.132.2-.243.375-.044.331.132,1.236a11.165,11.165,0,0,1,.177,2.714,10.185,10.185,0,0,0,.861,3.221,3.973,3.973,0,0,0,.508,1.765c.155.176.927.309,2.6.11s4.92-.861,5.825-1.081.706-.574,1.478-.823,3.332.051,4.259-.015a16.042,16.042,0,0,0,3.354-.155,15.245,15.245,0,0,0,2.052-.75l.155-.375h.618a20.387,20.387,0,0,0,2.317-1.147l.044-.353h.4c.486-.331,1.942-1.346,2.03-1.434s.088-.464.088-.464h.508a13.619,13.619,0,0,0,1.633-2.206C204.617,207.754,204.154,207.334,203.889,206.694ZM132.5,107.377c-.029.853.412,1.707.118,2.118a5.09,5.09,0,0,0-.471,1.53s-1.206.117-1.707-.589-1.646-2.059-2.382-2.942-4.09-4.56-5.032-6.59a51.388,51.388,0,0,1-2.383-6,16.613,16.613,0,0,1-.559-2.53A8.777,8.777,0,0,1,122,91.989a33.575,33.575,0,0,0,6.8-2.677,11.2,11.2,0,0,0,.236,1.854,26.97,26.97,0,0,0,.412,3.736c.353,1.824.588,4.354,1.618,6.237s1.565,2.118,1.842,3.119S132.528,106.523,132.5,107.377Z" transform="translate(-49.15 -37.959)"/><path class="e" d="M76.94,196.549c.532.426,2.235,1.011,2.607,0s.639-4.523,2.129-5.64a66.489,66.489,0,0,0,5.427-4.576c1.224-1.224,1.543-1.809,2.288-1.7s1.6.638,2.022.159a2.652,2.652,0,0,0,.372-1.543s-.319-.585.053-.9a42.583,42.583,0,0,1,5.108-2.022c.745-.213.692-.8.692-.8s9.312-1.33,13.675-1.33,10.27-.213,12.824-.532a25.561,25.561,0,0,1,5.587.266c1.011,0,3.778.053,5.215-.053s2.554-1.65,3.565-2.661,8.726-8.035,10.855-11.334a1.061,1.061,0,0,0,.8-.585c.373-.585,5.8-7.4,7.5-11.068a14.834,14.834,0,0,1,3.246,2.182,89.9,89.9,0,0,0,10.376,8.726c3.565,2.341,5.906,3.033,7.982,4.416s3.033,2.5,3.246,3.831-.16,9.046.639,12.771,3.459,7.5,4.416,10.535,2.607,9.205,2.82,10.483.479,2.341.479,2.341-.16.107,0,1.17-.372,3.459,0,5.481A12.576,12.576,0,0,0,193.1,218.9c.426.479,2.661.532,4.2,0a35.4,35.4,0,0,1,7.5-.958c2.448-.106,6.6-.266,9.685-2.022s4.15-2.767,4.257-3.565,0-1.916-1.118-2.022a8.658,8.658,0,0,0-3.352.426c-1.383.372-4.576-.213-6.119-.692s-2.82-1.331-2.927-1.863-.745-1.649-1.543-1.489-1.383.532-1.916.213-1.171-.745-1.171-.745-2.554-4.1-3.033-6.013a61.93,61.93,0,0,1-1.437-12.132c.053-4.151-1.33-10.323-1.383-12.026s.213-3.459.107-4.416a6.4,6.4,0,0,1,.426-3.192,6.639,6.639,0,0,0,.16-4.1c-.426-1.117-2.182-3.139-2.927-4.523a16.67,16.67,0,0,0-2.82-3.246,55.047,55.047,0,0,0-4.682-6.385,102.838,102.838,0,0,0-10.376-9.578,17.539,17.539,0,0,1-2.66-2.352c-.639-.628-1.331-.841-1.49-1.16s-.213-.585-.585-.639-1.011-.266-1.064-.638a1.258,1.258,0,0,0-.319-.639s.585-.745.266-1.277.585-2.98.532-3.725.692-4.1,1.064-6.864,1.862-5.587,1.916-6.917a10.256,10.256,0,0,1,.532-2.661s7.4.426,11.227-.213,8.407-1.862,9.737-2.181,2.661.426,4.044.372,5.108.16,5.427-.053a1.145,1.145,0,0,0,.426-.532s1.383-.426,1.437-.851a2.043,2.043,0,0,0-.213-.958s.639-1.224.107-2.022c0,0,.319-1.543-.426-2.022a2.481,2.481,0,0,0-1.118-1.6s0-1.118-.639-1.383c0,0,.107-1.384-.532-1.543s-1.064.053-1.118.532-.16.958-.8,1.011-1.064.532-1.968.638-1.064,1.011-1.756,1.49a7.137,7.137,0,0,1-3.512.958c-1.649.106-6.279.106-7.237-.266s-4.523-2.129-6.651-2.129c-.31,0,0-1.277-.266-3.192a22.257,22.257,0,0,0-1.383-6.066c-.851-1.862-1.17-2.5-1.064-3.565a25.132,25.132,0,0,0-.02-5.534c-.3-1.756-.991-3.831-1.789-4.576a5.317,5.317,0,0,0-2.98-1.49,6.135,6.135,0,0,1,1.33-1.65c.639-.426,3.459-.479,4.31-.8a1.412,1.412,0,0,0,.8-1.969c-.319-.851-.851-1.277-.479-1.862s.532-.8.213-1.224l-.319-.426a3.179,3.179,0,0,0,.692-.9,2.42,2.42,0,0,0,.053-1.224s.8-.266,1.49-.532.851-.745.372-1.543-1.383-1.969-1.7-2.554.106-1.064,0-2.022-.426-1.756-.479-2.927a7.885,7.885,0,0,0-3.618-5.693,14.757,14.757,0,0,0-9.791-1.49,7.506,7.506,0,0,0-6.013,7.5c.16,3.884.426,5.268,1.171,7.183s1.543,6.545,1.224,7.928A8.924,8.924,0,0,1,158.885,78a5.843,5.843,0,0,0-3.193,1.437,18.331,18.331,0,0,0-1.543,2.022s-3.512.692-4.9,2.5-1.809,2.98-3.246,3.086a18.955,18.955,0,0,0-7.237,2.927,47.338,47.338,0,0,0-7.609,6.066c-1.383,1.543-2.288,3.14-1.862,4.257s1.756,1.809,2.767,3.192a64.366,64.366,0,0,0,7.875,7.715c2.661,2.129,4.789,3.884,6.119,5s2.128,1.756,2.235,2.394a4.116,4.116,0,0,0,.32,1.064,7.482,7.482,0,0,0-1.543,2.554,8.886,8.886,0,0,1-1.543,3.565,18.5,18.5,0,0,0-2.288,3.938,4.034,4.034,0,0,1-1.011,1.437,1.188,1.188,0,0,0,.266.585,11.129,11.129,0,0,0,.319,8.461,20.262,20.262,0,0,1-2.341,4.9,58.223,58.223,0,0,0-5.587,10.482s-1.437,3.405-2.182,5.374a9.43,9.43,0,0,1-2.66,3.938c-.639.426-5.268.639-7.184.372s-6.7-.851-10.7.692-14.26,5.055-16.016,5.587a.894.894,0,0,0-1.171,0,7.68,7.68,0,0,1-2.554.692,3.911,3.911,0,0,1-1.171,0,10.743,10.743,0,0,1-2.448-.426,16.305,16.305,0,0,0-4.682-.692c-1.437.053-2.288.414-2.661,1.165a22.88,22.88,0,0,0-1.809,5.22,7.644,7.644,0,0,1-1.6,3.831,13,13,0,0,0-2.66,7.556C75.131,193.25,76.409,196.123,76.94,196.549Zm68.695-89.872a15.381,15.381,0,0,1-2.235-4.789,10.028,10.028,0,0,0-1.011-2.66,33.957,33.957,0,0,0,5.055-1.7s.479,5.055.8,6.492,1.331,3.831,1.6,4.629a15.381,15.381,0,0,1,.426,2.448A19.467,19.467,0,0,1,145.635,106.677Z" transform="translate(-63.252 -44.211)"/><path class="f" d="M119.033,124.658a.758.758,0,0,1,.11-.642c.22-.22.092-.5.275-.844a2.235,2.235,0,0,0,.367-1.339c-.092-.459-.165-.771.018-1.064a1.333,1.333,0,0,0,.312-.734,6.328,6.328,0,0,1,.4-1.174,7.613,7.613,0,0,1,.275-1.119,5.279,5.279,0,0,0,.184-1.5,5.1,5.1,0,0,0,0-1.908c-.22-.679,0-.66-.147-1.045a19.077,19.077,0,0,1-.788-2.789c-.147-.917-1.064-3.265-1.395-4.567s-.752-3.962-1.082-5.632-1.449-3.742-2.073-5.687-1.211-3.577-1.211-3.577-3.687.917-4.678,1.064-4.494.88-5.631.88c0,0-.037,1.229-.092,3.027s.129,6.072.11,7.264a27.879,27.879,0,0,0,.477,4.293c.165.825.991,3.247,1.193,3.8a13.055,13.055,0,0,1,.587,2.11,15.4,15.4,0,0,0,.367,1.871,4.2,4.2,0,0,0,.66,1.412,18.488,18.488,0,0,1,.88,2.586,3.046,3.046,0,0,1,.184,1.523c-.055.459-.073,1.853-.092,2.164a1.591,1.591,0,0,1-1.137,1.156,4.733,4.733,0,0,1-.5.825l-.184.183s-.623,1.211-1.431,1.156a1.1,1.1,0,0,1-1.009-1.193,1.279,1.279,0,0,1-.917-.33,1.66,1.66,0,0,1-.532-.771,2.028,2.028,0,0,1-1.247-.275,1.05,1.05,0,0,1-.532-.844,1.653,1.653,0,0,1-1.211-.275,2.06,2.06,0,0,1-.734-1.376,13.42,13.42,0,0,1-.092-2.036,5.43,5.43,0,0,1,.33-2.348c.257-.477,1.027-1.743,1.027-1.743a4.657,4.657,0,0,1-.33-1.284,4.765,4.765,0,0,0-.825-2.018c-.459-.789-2.329-4.4-3.173-6.292A25.3,25.3,0,0,1,93.591,98a42.344,42.344,0,0,1-.385-5.815c.055-.99-.349-2.7.11-3.228a5.939,5.939,0,0,1,1.577-1.467c.587-.294,2.788-2.293,5.21-3.76s6.274-3.339,8.126-3.632,4.659-.9,5.54-1.651a12.273,12.273,0,0,1,3.54-2.165,10.5,10.5,0,0,1,4.4-.642,2.761,2.761,0,0,0,.716-.238c.238-.147.385-.752.917-1.119a7.859,7.859,0,0,1,1.284-.77,1.344,1.344,0,0,0,.587-.972,19.783,19.783,0,0,0,0-4.88c-.275-1.871-1.78-3.925-2.495-4.935a7.453,7.453,0,0,1-1.082-1.853,1.537,1.537,0,0,1-.349-.477,10.645,10.645,0,0,1,.807-7.594c1.853-3.43,2.843-3.889,4.751-4.586s5.081-.44,6.292-.33a19.579,19.579,0,0,1,4.714.954,15.346,15.346,0,0,1,3.027,1.926c.422.294.055,1.468-.367,1.853,0,0,.624,1.724.807,2.275s.642,1.981.789,2.641.208.74.1.972-.477.942-.391,1.211,1.211,1.6,1.8,2.385.908,1.229.835,1.761-.55.715-1.073.752a1.214,1.214,0,0,0-1.064.587c-.165.33.128.477.064.917s-.2.541-.532.532a.892.892,0,0,0-.449.064.727.727,0,0,1-.055.229,1.738,1.738,0,0,1-.44.083.392.392,0,0,0,.055.413c.165.183.734.339.881.66s.138.514-.046.679-.431.211-.449.66.257.715.284,1.357a1.37,1.37,0,0,1-.752,1.312c-.477.3-.5.5-1.284.56a9.6,9.6,0,0,0-2.1.376,1.35,1.35,0,0,0-.192.395,6.717,6.717,0,0,1,1.577.706,13.933,13.933,0,0,1,2.486,2.6c.936,1.339,1.761,2.779,2.21,3.421a11.558,11.558,0,0,1,1.155,2.22s1.981,1.807,2.623,2.54a20.737,20.737,0,0,1,2.972,3.311c.844,1.431,1.11,1.568,1.11,1.568a10.9,10.9,0,0,0,1.312-1.229,10.7,10.7,0,0,0,1.339-1.77c.156-.431,1.036-3.4,1.11-4.026a11.044,11.044,0,0,1,.339-1.742,4.281,4.281,0,0,0,.275-1.33,4.226,4.226,0,0,0-.422-1.6c-.211-.605-.1-1.155-.266-1.5a5.4,5.4,0,0,1-.422-1.752,6.527,6.527,0,0,1,.321-1.889,19.329,19.329,0,0,0,.394-2.357,17.607,17.607,0,0,0,.11-2.091,1.768,1.768,0,0,1,.073-.67A3.439,3.439,0,0,1,155.62,67c.073-.184.395-.66.706-.67a2.034,2.034,0,0,1,1.22.238,1.169,1.169,0,0,1,.34.963,1.639,1.639,0,0,1-.1.541,1.223,1.223,0,0,1,.862-.138,1.407,1.407,0,0,1,.826.725,6.388,6.388,0,0,1,.092,1.193,1.331,1.331,0,0,1,1.706.394,3.229,3.229,0,0,1,.138,1.422.954.954,0,0,1,.688-.385,1.114,1.114,0,0,1,1.055.578,2.791,2.791,0,0,1,.349,1.348c.009.293.284.5.138,1.109s-.294.743-.275,1.165a12.324,12.324,0,0,1-.606,3.1c-.394,1.174-.789,1.834-.862,2.073a2.448,2.448,0,0,0-.238.706c-.064.44-.5,2.045-.6,2.88s-.523,5.393-.679,6.383a23.55,23.55,0,0,1-1.366,5.87,42.174,42.174,0,0,1-2.385,4.293,13.406,13.406,0,0,1-1.513,2.275,2.181,2.181,0,0,1-1.78.541c-.725-.055-2.293.266-3.485-.431a23.326,23.326,0,0,1-3.742-3.577,34.7,34.7,0,0,0-2.641-2.293s.092,2.449-.037,3.953-.147,5.7-.294,6.961-.514,3.485-.715,4.366-.22,2.311-.624,3.65a15.254,15.254,0,0,0-.825,3.485,20.193,20.193,0,0,1,.422,2.862c-.055.789.349,2.609.11,3.762s-.036,1.833-.275,2.585-.33,1.027-.22,1.376-.238.807-.238.807a3.614,3.614,0,0,1,.11,1.669c-.2.624-.275.825-.275.825s1.082-.114,1.339.127a10.687,10.687,0,0,0,2.77,2.093,8.284,8.284,0,0,1,2.495,1.6c.092.183-.147.77-.147.77s8.108,5.026,12.033,9.1,7.521,8.438,8.768,9.8,2.532,3.229,2.568,4.623a16.415,16.415,0,0,1-.624,3.6c-.147.881-.477,5.613-.11,6.787s.807,7.484.587,12.657.147,11.3.844,13.685,1.21,3.962,1.21,3.962a1.132,1.132,0,0,1,.422.642c.128.459.886,2.233.954,1.688a4.933,4.933,0,0,1,0-1.046.437.437,0,0,1,.825.147,9.908,9.908,0,0,0,.9,2.458,3.718,3.718,0,0,0,.55.569s-.239-.606.238-.642a2.383,2.383,0,0,1,1.871,1.009c.569.752.954,1.486,1.449,1.523s1.412.128,1.724.532a1.255,1.255,0,0,0,1.137.587c.514-.018,1.468.606,1.853.569a56.533,56.533,0,0,1,5.833,0c.752.163,1.449,1.466,1.522,1.851a3.283,3.283,0,0,1-.312,1.523,9.606,9.606,0,0,1-1.376,1.284c-.128.11,0,.275-.073.33s-.146-.165-.385-.092-1.431.789-2.367,1.211-1.064.477-1.064.477,0,.477-.092.532-.514-.349-.514-.349-2.715.624-3.5.844c0,0-.22.184-.22.294a.22.22,0,0,1-.165.22c-.092.019-.183-.312-.385-.33s-1.706-.22-2.972-.4a51.755,51.755,0,0,0-5.43-.642c-1.357,0-4.127.807-5.888.715s-2.99-.44-3.082-.807-.073-1.247-.128-1.6a17,17,0,0,1-.825-3.045c-.11-1.266.037-1.651-.055-2.183a1.984,1.984,0,0,1,.11-1.3,1.647,1.647,0,0,1,.7-.275s-.073-1.376-.092-2.293-.257-1.193-.184-1.431a.719.719,0,0,1,.184-.33s-1.009-6.163-1.871-9.154-3.32-8.952-3.779-11.428a69.214,69.214,0,0,1-.66-11.135c.146-2.4-.367-4.641-.055-5.87a29.008,29.008,0,0,0-6.75-4.054c-3.944-1.669-9.52-3.98-13.134-6.6a36.467,36.467,0,0,0-7.851-4.164,1.366,1.366,0,0,1-.917.551c-.514,0-.642.55-.917.844s-.789.917-1.174.569a11.516,11.516,0,0,0-1.119-.826s-4.549,5.338-6.439,7.815a86.942,86.942,0,0,1-8.016,8.548c-2.44,2.293-2.036,2.238-3.558,3.3s-2.587,2.256-3.284,2.77a7.559,7.559,0,0,1-3.43,1.229c-1.412.147-4.549.55-5.466.752A48.217,48.217,0,0,0,86.8,181.34c-2.165,1.339-11.612,4.586-14.675,6.145a60.732,60.732,0,0,0-8.346,5.944s.055.257-.33.5-2.165,1.632-2.4,1.871a4.543,4.543,0,0,0-.514.7,3.556,3.556,0,0,1,1.137.275c.312.2.66.44.532.862s-.165.422-.477.367a5.694,5.694,0,0,0-2.293.789c-.147.257.128.66-.293.881s-.991.22-1.174.771a1.661,1.661,0,0,1-1.193,1.137,1.779,1.779,0,0,0-1.229,1.3c-.128.568-2.421,3.082-2.807,3.669a10.449,10.449,0,0,0-1.009,3.834c0,1.1-.037,2.146-1.431,2.586s-1.376.624-1.908.2a3.056,3.056,0,0,1-1.1-1.339c-.147-.477-.183-.66-.183-.66s-.606-.019-.624-.2.312-.477.312-.605-.55-2.9-.679-3.706a.662.662,0,0,0-.146-.275c-.092-.073-.624-.092-.624-.22s.458-.385.532-.477.055-.275.073-.514.11-2.7.22-3.43c0,0-.532-.147-.532-.33s.569-.239.569-.349a12.754,12.754,0,0,1,.7-2.11c.385-.9,2.256-4.219,2.55-6.145s.073-3.082.477-5.045.972-2.66,1.431-2.751a1.837,1.837,0,0,1,1.064.165c.257.092,2.917-.147,3.852-.018a9.213,9.213,0,0,0,2,.238c.44-.073,1.192.037,1.339.275a1.374,1.374,0,0,0,.514-.349.877.877,0,0,1,.936-.238,34.79,34.79,0,0,0,4.623-3.559c2.494-2.256,5.136-4.311,6.475-5.32s5.026-4.935,8.567-6.31,9.392-2.862,11.135-3.393,4.751-1.486,6.017-3.632a76.6,76.6,0,0,0,3.559-7.466c.771-1.8,4-6.952,5.283-7.869,0,0-.459-.349-.807-.624s-.55-.5-.385-.606a7.794,7.794,0,0,0,1.229-1.119,13.694,13.694,0,0,1,2.88-2.11s-1.027-1.743-.624-2.917,1.523-2.641,1.688-3.338,1.32-5.5,3.173-7.906,3.21-3.3,3.651-3.412a8.047,8.047,0,0,0,.961-.275C118.722,125.135,119.033,124.658,119.033,124.658Z" transform="translate(-45.347 -41.998)"/></g></g></g></svg>