<svg xmlns="http://www.w3.org/2000/svg" width="56" height="56" viewBox="0 0 56 56"><defs><style>.a{fill:none;}.b{fill:#fff;}</style></defs><g transform="translate(-57.002 -232.48)"><rect class="a" width="56" height="56" transform="translate(57.002 232.48)"/><path class="b" d="M79.695,256.29a4.181,4.181,0,1,0-4.18,4.18A4.18,4.18,0,0,0,79.695,256.29Zm5.445-20.975A25.082,25.082,0,1,0,110.223,260.4,25.081,25.081,0,0,0,85.14,235.315Zm0,46.206A21.123,21.123,0,1,1,106.262,260.4,21.152,21.152,0,0,1,85.14,281.521Zm9.625-29.412a4.181,4.181,0,1,0,4.18,4.181A4.18,4.18,0,0,0,94.765,252.109ZM85.14,263.516a10.04,10.04,0,0,0-10.04,10.04h20.08A10.04,10.04,0,0,0,85.14,263.516Z" transform="translate(-0.138 0.082)"/></g></svg>