<svg xmlns="http://www.w3.org/2000/svg" width="56" height="56" viewBox="0 0 56 56"><defs><style>.a{fill:none;}.b{fill:#fff;}</style></defs><g transform="translate(-238.002 -232.48)"><rect class="a" width="56" height="56" transform="translate(238.002 232.48)"/><path class="b" d="M532.375,235.316A25.082,25.082,0,1,0,557.457,260.4,25.084,25.084,0,0,0,532.375,235.316Zm0,46.2A21.121,21.121,0,1,1,553.5,260.4,21.147,21.147,0,0,1,532.375,281.52ZM526.93,256.29a4.181,4.181,0,1,0-4.181,4.181A4.18,4.18,0,0,0,526.93,256.29ZM542,252.11a4.181,4.181,0,1,0,4.181,4.181A4.18,4.18,0,0,0,542,252.11Zm-.713,14.816a1.894,1.894,0,0,0-2.64.464,7.885,7.885,0,0,1-12.543,0A1.9,1.9,0,0,0,523,269.565a11.354,11.354,0,0,0,9.376,4.722h.01a11.358,11.358,0,0,0,9.367-4.722A1.894,1.894,0,0,0,541.286,266.925Z" transform="translate(-266.373 0.082)"/></g></svg>