<svg xmlns="http://www.w3.org/2000/svg" width="56" height="56" viewBox="0 0 56 56"><defs><style>.a{fill:none;}.b{fill:#fff;}</style></defs><g transform="translate(-297.002 -232.48)"><rect class="a" width="56" height="56" transform="translate(297.002 232.48)"/><path class="b" d="M681.452,235.315A25.082,25.082,0,1,0,706.536,260.4,25.082,25.082,0,0,0,681.452,235.315Zm0,46.2A21.122,21.122,0,1,1,702.574,260.4,21.148,21.148,0,0,1,681.452,281.519Zm-5.444-25.229a4.181,4.181,0,1,0-4.181,4.18A4.181,4.181,0,0,0,676.008,256.29Zm15.07-4.181a4.181,4.181,0,1,0,4.18,4.181A4.181,4.181,0,0,0,691.078,252.109Zm-9.626,24.248a10.587,10.587,0,0,0,10.587-10.587H670.865A10.587,10.587,0,0,0,681.452,276.357Z" transform="translate(-356.451 0.082)"/></g></svg>