<svg xmlns="http://www.w3.org/2000/svg" width="56" height="56" viewBox="0 0 56 56"><defs><style>.a{fill:none;}.b{fill:#fff;}</style></defs><g transform="translate(-176.002 -232.48)"><rect class="a" width="56" height="56" transform="translate(176.002 232.48)"/><path class="b" d="M383.3,235.315A25.082,25.082,0,1,0,408.379,260.4,25.083,25.083,0,0,0,383.3,235.315Zm0,46.2A21.122,21.122,0,1,1,404.418,260.4,21.147,21.147,0,0,1,383.3,281.519Zm9.625-29.41a4.181,4.181,0,1,0,4.181,4.181A4.18,4.18,0,0,0,392.921,252.109Zm-15.07,4.181a4.181,4.181,0,1,0-4.181,4.18A4.18,4.18,0,0,0,377.852,256.29Zm10.818,11.376H377.924a1.9,1.9,0,0,0,0,3.792h10.745a1.9,1.9,0,0,0,0-3.792Z" transform="translate(-179.294 0.082)"/></g></svg>