<svg xmlns="http://www.w3.org/2000/svg" width="56" height="56" viewBox="0 0 56 56"><defs><style>.a{fill:none;}.b{fill:#fff;}</style></defs><g transform="translate(-117.002 -232.48)"><rect class="a" width="56" height="56" transform="translate(117.002 232.48)"/><path class="b" d="M243.844,252.11a4.181,4.181,0,1,0,4.181,4.181A4.181,4.181,0,0,0,243.844,252.11Zm-15.07,4.181a4.181,4.181,0,1,0-4.18,4.181A4.18,4.18,0,0,0,228.774,256.29Zm5.445-20.975A25.082,25.082,0,1,0,259.3,260.4,25.084,25.084,0,0,0,234.219,235.315Zm0,46.2A21.122,21.122,0,1,1,255.341,260.4,21.146,21.146,0,0,1,234.219,281.519Zm0-14.94h-.011a11.358,11.358,0,0,0-9.367,4.722,1.9,1.9,0,0,0,3.105,2.176,7.886,7.886,0,0,1,12.543,0,1.9,1.9,0,1,0,3.105-2.176A11.353,11.353,0,0,0,234.219,266.58Z" transform="translate(-89.217 0.083)"/></g></svg>