<svg xmlns="http://www.w3.org/2000/svg" width="20" height="20" viewBox="0 0 20 20"><defs><style>.a{fill:none;}.b{fill:#fff;}</style></defs><g transform="translate(-685 -685)"><rect class="a" width="20" height="20" transform="translate(685 685)"/><path class="b" d="M17.2,17.558a.581.581,0,0,0-.807.153l-1.184,1.737a7.691,7.691,0,1,0-2.081,7.07.581.581,0,0,0-.821-.821A6.533,6.533,0,1,1,14.117,19.9L12.055,18.5a.581.581,0,1,0-.654.96l3.075,2.1h0a.578.578,0,0,0,.154.074l0,0,.027.006a.573.573,0,0,0,.621-.235l2.072-3.039A.581.581,0,0,0,17.2,17.558Z" transform="translate(686.272 673.925)"/></g></svg>