<svg xmlns="http://www.w3.org/2000/svg" width="24" height="24" viewBox="0 0 24 24"><defs><style>.a{fill:none;}.b{fill:#e00034;}</style></defs><g transform="translate(-392 -114)"><rect class="a" width="24" height="24" transform="translate(392 114)"/><g transform="translate(395.161 117.161)"><path class="b" d="M8.842,0h0A8.834,8.834,0,0,0,1.683,14.02L.581,17.3l3.4-1.086A8.838,8.838,0,1,0,8.842,0Zm5.143,12.482A2.494,2.494,0,0,1,12.25,13.73c-.462.1-1.065.177-3.1-.665a11.073,11.073,0,0,1-4.4-3.887A5.048,5.048,0,0,1,3.7,6.511a2.822,2.822,0,0,1,.9-2.151,1.284,1.284,0,0,1,.9-.317c.109,0,.208.006.3.01.26.011.39.027.561.436C6.582,5,7.1,6.272,7.163,6.4A.526.526,0,0,1,7.2,6.88a1.528,1.528,0,0,1-.286.406c-.13.15-.254.265-.385.426-.119.14-.254.291-.1.55A7.846,7.846,0,0,0,7.86,10.045a6.5,6.5,0,0,0,2.073,1.278.559.559,0,0,0,.623-.1,10.7,10.7,0,0,0,.691-.915.493.493,0,0,1,.634-.192c.239.083,1.5.707,1.761.836s.431.192.494.3A2.2,2.2,0,0,1,13.985,12.482Z"/></g></g></svg>